<svg xmlns="http://www.w3.org/2000/svg" xmlns:xlink="http://www.w3.org/1999/xlink" xmlns:lucid="lucid" width="1582.12" height="1106.45"><g transform="translate(0 1140.7794508414522)" lucid:page-tab-id="0_0"><path d="M0-1140h1693.34V57.94H0z" fill="#fff"/><path d="M20-1120.78h680v419.22H20z" fill="#fff"/><path d="M31.86-1120.78h7.9m7.9 0h7.92m7.9 0h7.92m7.9 0h7.9m7.92 0h7.9m7.9 0h7.92m7.9 0h7.9m7.92 0h7.9m7.9 0h7.92m7.9 0h7.9m7.92 0h7.9m7.9 0h7.92m7.9 0h7.9m7.92 0h7.9m7.92 0h7.9m7.9 0H277m7.9 0h7.9m7.92 0h7.9m7.9 0h7.92m7.9 0h7.9m7.92 0h7.9m7.9 0h7.92m7.9 0h7.9m7.92 0h7.9m7.92 0h7.9m7.9 0h7.92m7.9 0h7.9m7.92 0h7.9m7.9 0h7.92m7.9 0h7.9m7.92 0h7.9m7.9 0H530m7.9 0h7.9m7.92 0h7.9m7.9 0h7.92m7.9 0h7.92m7.9 0h7.9m7.92 0h7.9m7.9 0h7.92m7.9 0h7.9m7.92 0h7.9m7.9 0h7.92m7.9 0H700v4.03m0 8.06v8.08m0 8.06v8.06m0 8.06v8.06m0 8.07v8.05m0 8.06v8.07m0 8.06v8.06m0 8.06v8.06m0 8.06v8.06m0 8.06v8.07m0 8.06v8.06m0 8.05v8.06m0 8.08v8.06m0 8.06v8.06m0 8.06v8.07m0 8.05v8.06m0 8.07v8.06m0 8.07v8.06m0 8.06v8.06m0 8.06v8.06m0 8.07v8.06m0 8.06v8.05m0 8.06v8.08m0 8.06v8.06m0 8.06v8.06m0 8.07v8.05m0 8.06v4.04h-3.95m-7.9 0h-7.92m-7.9 0h-7.9m-7.92 0h-7.9m-7.9 0h-7.9m-7.92 0h-7.9m-7.9 0h-7.92m-7.9 0h-7.9m-7.92 0h-7.9m-7.9 0h-7.92m-7.9 0h-7.9m-7.92 0h-7.9m-7.9 0h-7.92m-7.9 0h-7.9m-7.92 0h-7.9m-7.92 0h-7.9m-7.9 0H443m-7.9 0h-7.9m-7.92 0h-7.9m-7.9 0h-7.92m-7.9 0h-7.9m-7.92 0h-7.9m-7.9 0h-7.92m-7.9 0h-7.9m-7.92 0h-7.9m-7.92 0h-7.9m-7.9 0h-7.92m-7.9 0h-7.9m-7.92 0h-7.9m-7.9 0h-7.92m-7.9 0h-7.9m-7.92 0h-7.9m-7.9 0H190m-7.9 0h-7.9m-7.92 0h-7.9m-7.9 0h-7.92m-7.9 0h-7.92m-7.9 0h-7.9m-7.92 0h-7.9m-7.9 0H79.3m-7.9 0h-7.9m-7.92 0h-7.9m-7.9 0h-7.92m-7.9 0H20v-4.03m0-8.05v-8.06m0-8.08v-8.06m0-8.06v-8.06m0-8.06v-8.07m0-8.05v-8.06m0-8.07v-8.06m0-8.07v-8.06m0-8.06v-8.06m0-8.06v-8.06m0-8.07v-8.06m0-8.06v-8.05m0-8.06v-8.08m0-8.06v-8.06m0-8.06v-8.06m0-8.07v-8.05m0-8.06v-8.07m0-8.06v-8.07m0-8.06v-8.06m0-8.06v-8.06m0-8.07v-8.07m0-8.06v-8.06m0-8.05v-8.06m0-8.08v-8.06m0-8.06v-8.06m0-8.06v-8.07m0-8.05v-4.03h3.95" stroke="#b2b2b2" stroke-width="2" fill="none"/><use xlink:href="#a" transform="matrix(1,0,0,1,25,-1115.7794508414522) translate(262.625 14.4)"/><use xlink:href="#b" transform="matrix(1,0,0,1,25,-1115.7794508414522) translate(334.475 14.4)"/><path d="M720-1120.78h842.12v831.94H720z" fill="#fff"/><path d="M731.92-1120.78h7.94m7.95 0h7.95m7.94 0h7.94m7.94 0h7.95m7.94 0h7.95m7.94 0h7.95m7.95 0h7.95m7.94 0h7.94m7.95 0h7.94m7.95 0h7.94m7.95 0h7.95m7.95 0h7.94m7.94 0h7.95m7.94 0h7.95m7.94 0h7.95m7.95 0h7.95m7.94 0h7.95m7.93 0h7.94m7.95 0h7.94m7.95 0h7.95m7.95 0h7.94m7.95 0h7.93m7.94 0h7.95m7.94 0h7.95m7.95 0h7.95m7.94 0h7.95m7.93 0h7.95m7.94 0h7.94m7.95 0h7.95m7.95 0h7.94m7.95 0h7.93m7.95 0h7.94m7.94 0h7.95m7.95 0h7.95m7.94 0h7.95m7.93 0h7.95m7.94 0h7.95m7.94 0h7.95m7.95 0h7.94m7.95 0h7.93m7.95 0h7.94m7.95 0h7.94m7.95 0h7.95m7.94 0h7.95m7.93 0h7.95m7.94 0h7.95m7.94 0h7.96m7.94 0h7.94m7.95 0h7.93m7.95 0h7.94m7.95 0h7.94m7.96 0h7.94m7.94 0h3.98v4m0 8v8m0 8v8m0 8v8m0 8v8m0 8v8m0 8v8m0 8v8m0 8v8m0 8v8m0 8v8m0 8v8m0 8v8m0 8v8m0 7.98v8m0 8v8m0 8v8m0 8v8m0 8v8m0 8v8m0 8v8m0 8v8m0 8v8m0 8v8m0 8v8m0 8v8m0 8v8m0 8v8m0 8v8m0 8v8m0 8v8m0 7.98v8m0 8v8m0 8v8m0 8v8m0 8v8m0 8v8m0 8v8m0 8v8m0 8v8m0 8v8m0 8v8m0 8v8m0 8v8m0 8v8m0 8v8m0 8v8m0 8v8m0 8v7.98m0 8v8m0 8v8m0 8v8m0 8v4h-3.98m-7.94 0h-7.94m-7.95 0h-7.93m-7.95 0h-7.94m-7.95 0h-7.94m-7.96 0h-7.94m-7.94 0h-7.95m-7.93 0h-7.95m-7.94 0h-7.95m-7.94 0h-7.96m-7.94 0h-7.95m-7.94 0h-7.93m-7.95 0h-7.94m-7.95 0h-7.94m-7.96 0h-7.94m-7.95 0h-7.94m-7.93 0h-7.95m-7.94 0h-7.95m-7.94 0h-7.96m-7.94 0h-7.95m-7.94 0h-7.94m-7.94 0h-7.94m-7.95 0h-7.94m-7.96 0h-7.94m-7.95 0h-7.94m-7.94 0h-7.94m-7.94 0h-7.95m-7.94 0h-7.96m-7.94 0h-7.95m-7.94 0h-7.94m-7.94 0h-7.95m-7.94 0h-7.94m-7.96 0h-7.94m-7.95 0h-7.94m-7.94 0h-7.94m-7.95 0h-7.94m-7.94 0h-7.96m-7.94 0h-7.95m-7.94 0h-7.94m-7.94 0h-7.95m-7.94 0h-7.95m-7.94 0h-7.94m-7.95 0h-7.94m-7.94 0h-7.94m-7.95 0h-7.94m-7.95 0h-7.94m-7.94 0h-7.95m-7.94 0h-7.94m-7.94 0h-7.95m-7.94 0h-7.95m-7.94 0h-7.95m-7.95 0h-7.94m-7.94 0h-7.94m-7.95 0H720v-4m0-8v-8m0-8v-8m0-8v-8m0-8v-8m0-8v-8m0-8v-8m0-8v-8m0-8v-8m0-8v-8m0-8v-8m0-8v-8m0-8v-8m0-7.98v-8m0-8v-8m0-8v-8m0-8v-8m0-8v-8m0-8v-8m0-8v-8m0-8v-8m0-8v-8m0-8v-8m0-8v-8m0-8v-8m0-8v-8m0-8v-8m0-8v-8m0-8v-8m0-8v-8m0-8v-7.98m0-8v-8m0-8v-8m0-8v-8m0-8v-8m0-8v-8m0-8v-8m0-8v-8m0-8v-8m0-8v-8m0-8v-8m0-8v-8m0-8v-8m0-8v-8m0-8v-8m0-8v-8m0-8v-8m0-8v-7.98m0-8v-8m0-8v-8m0-8v-8m0-8v-8m0-8v-4h3.97" stroke="#b2b2b2" stroke-width="2" fill="none"/><use xlink:href="#c" transform="matrix(1,0,0,1,724.9999999999999,-1115.7794508414522) translate(346.6 814.8)"/><use xlink:href="#d" transform="matrix(1,0,0,1,724.9999999999999,-1115.7794508414522) translate(413.5 814.8)"/><path d="M120-681.56h300V-120H120z" fill="#fff"/><path d="M131.84-681.56h7.9m7.9 0h7.9m7.88 0h7.9m7.9 0h7.9m7.88 0h7.9m7.9 0h7.88m7.9 0h7.9m7.9 0h7.88m7.9 0h7.9m7.9 0h7.88m7.9 0h7.9m7.9 0h7.88m7.9 0h7.9m7.9 0H345m7.9 0h7.9m7.88 0h7.9m7.9 0h7.9m7.88 0h7.9m7.9 0H420v4m0 8.03v8.03m0 8.02v8.02m0 8.02v8.03m0 8v8.03m0 8.02v8.02m0 8.03v8.02m0 8.02v8.02m0 8.03v8m0 8.03v8.02m0 8.03v8.02m0 8.02v8.02m0 8.02v8.03m0 8v8.03m0 8.02v8.03m0 8.02v8.02m0 8.02v8.02m0 8.03v8m0 8.03v8.02m0 8.03v8.02m0 8.02v8.02m0 8.03v8.02m0 8v8.03m0 8.02v8.03m0 8.02v8.02m0 8.02v8.03m0 8.02v8m0 8.03v8.02m0 8.03v8.02m0 8.02v8.02m0 8.03v8.02m0 8v8.03m0 8.03v8.02m0 8.02v8.02m0 8.02v8.03m0 8.02v4h-3.95m-7.9 0h-7.9m-7.88 0h-7.9m-7.9 0h-7.9m-7.88 0h-7.9m-7.9 0h-7.9m-7.9 0h-7.88m-7.9 0h-7.9m-7.9 0h-7.88m-7.9 0h-7.9m-7.9 0h-7.88m-7.9 0h-7.9m-7.9 0h-7.88m-7.9 0h-7.9m-7.9 0H195m-7.9 0h-7.9m-7.88 0h-7.9m-7.9 0h-7.9m-7.88 0h-7.9m-7.9 0H120v-4m0-8.03v-8.03m0-8.02v-8.02m0-8.02v-8.02m0-8.03v-8.02m0-8v-8.03m0-8.03v-8.02m0-8.02v-8.02m0-8.03v-8.02m0-8.02v-8m0-8.03v-8.03m0-8.02v-8.02m0-8.02v-8.03m0-8.02v-8.02m0-8v-8.03m0-8.03v-8.02m0-8.02v-8.02m0-8.03v-8.02m0-8.02v-8m0-8.04v-8.02m0-8.02v-8.02m0-8.02v-8.03m0-8.02V-477m0-8v-8.04m0-8.02v-8.02m0-8.02v-8.02m0-8.03v-8.02m0-8.02v-8m0-8.04v-8.02m0-8.02v-8.02m0-8.03v-8.02m0-8.02v-8.02m0-8v-8.04m0-8.02v-8.02m0-8.02v-8.03m0-8.02v-4h3.95" stroke="#b2b2b2" stroke-width="2" fill="none"/><use xlink:href="#e" transform="matrix(1,0,0,1,125,-676.5589016829043) translate(82.55 544.8)"/><use xlink:href="#b" transform="matrix(1,0,0,1,125,-676.5589016829043) translate(134.55 544.8)"/><path d="M1348.94-220h160v40h-160z" stroke="#000" stroke-width="2" fill="#fff"/><use xlink:href="#f" transform="matrix(1,0,0,1,1353.9415411868902,-215) translate(2.5749999999999886 18.6)"/><use xlink:href="#g" transform="matrix(1,0,0,1,1353.9415411868902,-215) translate(79.52499999999999 18.6)"/><path d="M1385.52-124.33h-34.76v-2h34.76zm122.42 0h-35.57v-2h35.57z"/><path d="M1508.94-124.33h-1.02v-2h1.02zM1368.63-134.65l-15.76 9.32 15.76 9.32-1.02 1.7-18.66-11.03 18.67-11.04z"/><use xlink:href="#h" transform="matrix(1,0,0,1,1385.5165411868902,-136.1333333333328) translate(0.005000000000002558 14.4)"/><path d="M1390.35-64.33h-22.9v-2h22.9zm137.6 0h-9.75v-2h9.74z"/><path d="M1528.94-64.33h-1.02v-2h1.02z"/><path d="M1366.44-60.7l-14.26-4.63 14.26-4.64z" fill="#fff"/><path d="M1367.44-59.32l-18.5-6 18.5-6.03zm-12.03-6l10.04 3.25v-6.52z"/><use xlink:href="#i" transform="matrix(1,0,0,1,1390.3498745202235,-76.13333333333257) translate(0.005000000000002558 14.4)"/><path d="M980-215c0-2.76 2.24-5 5-5h150c2.76 0 5 2.24 5 5v110c0 2.76-2.24 5-5 5H985c-2.76 0-5-2.24-5-5z" stroke="#000" stroke-width="2" fill="#b2b2b2"/><use xlink:href="#j" transform="matrix(1,0,0,1,988,-211.9999999999613) translate(24.574999999999996 55.6)"/><use xlink:href="#k" transform="matrix(1,0,0,1,988,-211.9999999999613) translate(74.525 55.6)"/><path d="M1160-215c0-2.76 2.24-5 5-5h150c2.76 0 5 2.24 5 5v110c0 2.76-2.24 5-5 5h-150c-2.76 0-5-2.24-5-5z" stroke="#000" stroke-width="2" fill="#666"/><use xlink:href="#l" transform="matrix(1,0,0,1,1168,-211.9999999999613) translate(18.574999999999996 44.8)"/><use xlink:href="#m" transform="matrix(1,0,0,1,1168,-211.9999999999613) translate(68.525 44.8)"/><use xlink:href="#n" transform="matrix(1,0,0,1,1168,-211.9999999999613) translate(49.55 66.4)"/><path d="M1054.47-273.84c0-2.76 2.24-5 5-5h190c2.76 0 5 2.24 5 5v50c0 2.76-2.24 5-5 5h-190c-2.76 0-5-2.24-5-5z" stroke="#000" stroke-opacity="0" stroke-width="2" fill="#fff" fill-opacity="0"/><use xlink:href="#o" transform="matrix(1,0,0,1,1059.470770593445,-273.83968113376454) translate(0 28.6)"/><use xlink:href="#p" transform="matrix(1,0,0,1,1059.470770593445,-273.83968113376454) translate(72.80000000000001 28.6)"/><use xlink:href="#q" transform="matrix(1,0,0,1,1059.470770593445,-273.83968113376454) translate(143.70000000000002 28.6)"/><path d="M800-215c0-2.76 2.24-5 5-5h150c2.76 0 5 2.24 5 5v110c0 2.76-2.24 5-5 5H805c-2.76 0-5-2.24-5-5z" stroke="#000" stroke-width="2" fill="#fff"/><use xlink:href="#r" transform="matrix(1,0,0,1,807.9999999999999,-211.9999999999613) translate(33.599999999999994 55.6)"/><path d="M908.94-876.56c0-2.76 2.24-5 5-5h150c2.76 0 5 2.24 5 5v110c0 2.76-2.24 5-5 5h-150c-2.76 0-5-2.24-5-5z" stroke="#000" stroke-width="2" fill="#fff"/><use xlink:href="#s" transform="matrix(1,0,0,1,916.9415411868902,-873.5589016829044) translate(54.5 44.8)"/><use xlink:href="#t" transform="matrix(1,0,0,1,916.9415411868902,-873.5589016829044) translate(41.05 66.4)"/><path d="M1288.94-876.56c0-2.76 2.24-5 5-5h150c2.76 0 5 2.24 5 5v110c0 2.76-2.24 5-5 5h-150c-2.76 0-5-2.24-5-5z" stroke="#000" stroke-width="2" fill="#fff"/><use xlink:href="#s" transform="matrix(1,0,0,1,1296.9415411868902,-873.5589016829044) translate(54.5 44.8)"/><use xlink:href="#u" transform="matrix(1,0,0,1,1296.9415411868902,-873.5589016829044) translate(32.55 66.4)"/><path d="M1102.75-820.56h-31.8v-2h31.8zm183.37 0h-75.47v-2h75.47z"/><path d="M1070.97-820.56h-1.03v-2h1.03zM1287.94-821.56l-18.67 11.04-1.02-1.72 15.76-9.32-15.75-9.32 1.02-1.72z"/><use xlink:href="#v" transform="matrix(1,0,0,1,1102.7466432277065,-843.1589016829045) translate(36.455000000000005 14.4)"/><use xlink:href="#w" transform="matrix(1,0,0,1,1102.7466432277065,-843.1589016829045) translate(0.005000000000002558 36)"/><path d="M828.83-636.56c0-2.76 2.24-5 5-5h150c2.76 0 5 2.24 5 5v110c0 2.76-2.24 5-5 5h-150c-2.76 0-5-2.24-5-5z" stroke="#000" stroke-width="2" fill="#666"/><use xlink:href="#x" transform="matrix(1,0,0,1,836.8334854584509,-633.5589016829044) translate(49.525 55.6)"/><path d="M740-456.56c0-2.76 2.24-5 5-5h150c2.76 0 5 2.24 5 5v110c0 2.76-2.24 5-5 5H745c-2.76 0-5-2.24-5-5z" stroke="#000" stroke-width="2" fill="#666"/><use xlink:href="#y" transform="matrix(1,0,0,1,748,-453.55890168290443) translate(9.049999999999997 55.6)"/><use xlink:href="#z" transform="matrix(1,0,0,1,748,-453.55890168290443) translate(55 55.6)"/><use xlink:href="#A" transform="matrix(1,0,0,1,748,-453.55890168290443) translate(75 55.6)"/><path d="M928.94-456.56c0-2.76 2.24-5 5-5h150c2.76 0 5 2.24 5 5v110c0 2.76-2.24 5-5 5h-150c-2.76 0-5-2.24-5-5z" stroke="#000" stroke-width="2" fill="#666"/><use xlink:href="#B" transform="matrix(1,0,0,1,936.9415411868903,-453.55890168290443) translate(43.55 55.6)"/><path d="M1008.94-636.56c0-2.76 2.24-5 5-5h150c2.76 0 5 2.24 5 5v110c0 2.76-2.24 5-5 5h-150c-2.76 0-5-2.24-5-5z" stroke="#000" stroke-width="2" fill="#b2b2b2"/><use xlink:href="#C" transform="matrix(1,0,0,1,1016.9415411868904,-633.558901682904) translate(52 44.8)"/><use xlink:href="#D" transform="matrix(1,0,0,1,1016.9415411868904,-633.558901682904) translate(39.025 66.4)"/><path d="M1188.94-462.8c0-2.77 2.24-5 5-5h150c2.76 0 5 2.23 5 5v110c0 2.75-2.24 5-5 5h-150c-2.76 0-5-2.25-5-5z" stroke="#000" stroke-width="2" fill="#b2b2b2"/><use xlink:href="#E" transform="matrix(1,0,0,1,1196.9415411868902,-459.8104562290446) translate(50.5 44.8)"/><use xlink:href="#F" transform="matrix(1,0,0,1,1196.9415411868902,-459.8104562290446) translate(8.649999999999991 66.4)"/><path d="M1188.94-636.56c0-2.76 2.24-5 5-5h150c2.76 0 5 2.24 5 5v110c0 2.76-2.24 5-5 5h-150c-2.76 0-5-2.24-5-5z" stroke="#000" stroke-width="2" fill="#b2b2b2"/><use xlink:href="#E" transform="matrix(1,0,0,1,1196.9415411868902,-633.558901682904) translate(50.5 44.8)"/><use xlink:href="#t" transform="matrix(1,0,0,1,1196.9415411868902,-633.558901682904) translate(41.05 66.4)"/><path d="M1268.94-469.8v-32.26" stroke="#000" stroke-width="2" fill="none"/><path d="M1269.94-468.8h-2v-1.04h2z"/><path d="M1268.94-517.32l4.64 14.26h-9.27z" stroke="#000" stroke-width="2" fill="#fff"/><path d="M1088.94-643.56v-58h-100v-40.5" stroke="#000" stroke-width="2" fill="none"/><path d="M1089.94-642.56h-2v-1.02h2z"/><path d="M988.94-757.32l4.64 14.26h-9.27z" stroke="#000" stroke-width="2" fill="#fff"/><path d="M60-886.56c0-2.76 2.24-5 5-5h150c2.76 0 5 2.24 5 5v110c0 2.76-2.24 5-5 5H65c-2.76 0-5-2.24-5-5z" stroke="#000" stroke-width="2" fill="#666"/><use xlink:href="#G" transform="matrix(1,0,0,1,68,-883.5589016829044) translate(32.525 55.6)"/><path d="M60-1076.56c0-2.76 2.24-5 5-5h150c2.76 0 5 2.24 5 5v110c0 2.76-2.24 5-5 5H65c-2.76 0-5-2.24-5-5z" stroke="#000" stroke-width="2" fill="#fff"/><use xlink:href="#H" transform="matrix(1,0,0,1,68,-1073.5589016829044) translate(56.525 44.8)"/><use xlink:href="#I" transform="matrix(1,0,0,1,68,-1073.5589016829044) translate(38.574999999999996 66.4)"/><path d="M140-893.56v-48.5" stroke="#000" stroke-width="2" fill="none"/><path d="M141-892.56h-2v-1.02h2z"/><path d="M140-957.32l4.64 14.26h-9.28zM140-590.04c0-2.76 1.94-6.13 4.32-7.5l71.36-41.5c2.38-1.4 6.26-1.4 8.64 0l71.36 41.5c2.38 1.37 4.32 4.74 4.32 7.5v63.48c0 2.76-2.24 5-5 5H145c-2.76 0-5-2.24-5-5z" stroke="#000" stroke-width="2" fill="#fff"/><use xlink:href="#J" transform="matrix(1,0,0,1,140,-641.5589016829042) translate(60.025 52.8)"/><use xlink:href="#K" transform="matrix(1,0,0,1,140,-641.5589016829042) translate(56.5 74.4)"/><path d="M140-410.04c0-2.76 1.94-6.13 4.32-7.5l71.36-41.5c2.38-1.4 6.26-1.4 8.64 0l71.36 41.5c2.38 1.37 4.32 4.74 4.32 7.5v63.48c0 2.76-2.24 5-5 5H145c-2.76 0-5-2.24-5-5z" stroke="#000" stroke-width="2" fill="#fff"/><use xlink:href="#L" transform="matrix(1,0,0,1,140,-461.55890168286567) translate(63 52.8)"/><use xlink:href="#M" transform="matrix(1,0,0,1,140,-461.55890168286567) translate(29.074999999999996 74.4)"/><path d="M220-462.06v-40" stroke="#000" stroke-width="2" fill="none"/><path d="M221-461l-1.38-.1-.62.1v-1.08h2z"/><path d="M220-517.32l4.64 14.26h-9.28zM309.2-1076.56c0-2.76 2.25-5 5-5h150c2.77 0 5 2.24 5 5v110c0 2.76-2.23 5-5 5h-150c-2.75 0-5-2.24-5-5z" stroke="#000" stroke-width="2" fill="#fff"/><use xlink:href="#H" transform="matrix(1,0,0,1,317.2116917626219,-1073.5589016829044) translate(56.525 44.8)"/><use xlink:href="#N" transform="matrix(1,0,0,1,317.2116917626219,-1073.5589016829044) translate(11.099999999999994 66.4)"/><path d="M309.2-876.56c0-2.76 2.25-5 5-5h150c2.77 0 5 2.24 5 5v110c0 2.76-2.23 5-5 5h-150c-2.75 0-5-2.24-5-5z" stroke="#000" stroke-width="2" fill="#666"/><use xlink:href="#l" transform="matrix(1,0,0,1,317.2116917626219,-873.5589016829044) translate(23.074999999999996 55.6)"/><use xlink:href="#O" transform="matrix(1,0,0,1,317.2116917626219,-873.5589016829044) translate(73.025 55.6)"/><path d="M908.94-1076.56c0-2.76 2.24-5 5-5h150c2.76 0 5 2.24 5 5v110c0 2.76-2.24 5-5 5h-150c-2.76 0-5-2.24-5-5z" stroke="#000" stroke-width="2" fill="#666"/><use xlink:href="#P" transform="matrix(1,0,0,1,916.9415411868902,-1073.5589016829044) translate(41.05 44.8)"/><use xlink:href="#Q" transform="matrix(1,0,0,1,916.9415411868902,-1073.5589016829044) translate(19.124999999999993 66.4)"/><path d="M1128.94-1076.56c0-2.76 2.24-5 5-5h150c2.76 0 5 2.24 5 5v110c0 2.76-2.24 5-5 5h-150c-2.76 0-5-2.24-5-5z" stroke="#000" stroke-width="2" fill="#fff"/><use xlink:href="#R" transform="matrix(1,0,0,1,1136.9415411868904,-1073.5589016829044) translate(51 44.8)"/><use xlink:href="#S" transform="matrix(1,0,0,1,1136.9415411868904,-1073.5589016829044) translate(38.525 66.4)"/><path d="M1070.94-1021.56h38.5" stroke="#000" stroke-width="2" fill="none"/><path d="M1070.97-1020.56h-1.03v-2h1.03z"/><path d="M1124.7-1021.56l-14.26 4.64v-9.27z" stroke="#000" stroke-width="2" fill="#fff"/><path d="M389.2-883.56v-58.5" stroke="#000" stroke-width="2" fill="none"/><path d="M390.2-882.56h-2v-1.02h2z"/><path d="M389.2-957.32l4.65 14.26h-9.27z" stroke="#000" stroke-width="2" fill="#fff"/><path d="M190.64-721.56h18.13v2h-20.13v-49.18h2zm139.06 2h-30.13v-2h28.13v-38h2z"/><path d="M329.7-759.53h-2v-1.03h2zM200.7-751.9l-1.74 1.03-9.32-15.76-9.32 15.76-1.72-1.02 11.04-18.66z"/><use xlink:href="#T" transform="matrix(1,0,0,1,208.77055586647975,-731.3589016829044) translate(0 14.4)"/><path d="M390.2-220.56h-87.38v-2h85.4v-166.86h2zm0-190.46h-2v-348.54h2z"/><path d="M390.2-759.53h-2v-1.03h2zM320.7-230.88l-15.77 9.32 15.76 9.32-1.03 1.72L301-221.56l18.67-11.04z"/><use xlink:href="#U" transform="matrix(1,0,0,1,331.2616917626219,-411.01990061891473) translate(0 14.4)"/><use xlink:href="#V" transform="matrix(1,0,0,1,331.2616917626219,-411.01990061891473) translate(36.95 14.4)"/><use xlink:href="#W" transform="matrix(1,0,0,1,331.2616917626219,-411.01990061891473) translate(96.9 14.4)"/><path d="M520-1076.56c0-2.76 2.24-5 5-5h150c2.76 0 5 2.24 5 5v110c0 2.76-2.24 5-5 5H525c-2.76 0-5-2.24-5-5z" stroke="#000" stroke-width="2" fill="#fff"/><use xlink:href="#X" transform="matrix(1,0,0,1,528,-1073.5589016829044) translate(47.525 44.8)"/><use xlink:href="#Y" transform="matrix(1,0,0,1,528,-1073.5589016829044) translate(37.574999999999996 66.4)"/><path d="M467.54-920.56h-14.7v37h-2v-39h16.7zm133.46 0h-16.7v-2H599v-36.18h2z"/><path d="M452.83-882.56h-2v-1.02h2zM611.04-941.9l-1.72 1.03-9.32-15.76-9.32 15.76-1.72-1.02L600-960.55z"/><use xlink:href="#Z" transform="matrix(1,0,0,1,467.53963867564505,-932.3589016829044) translate(0 14.4)"/><path d="M989.94-883.56h-2v-5.8h2zm0-49h-2v-26.18h2z"/><path d="M989.94-882.56h-2v-1.02h2zM999.98-941.9l-1.72 1.03-9.32-15.76-9.32 15.76-1.72-1.02 11.04-18.66z"/><use xlink:href="#aa" transform="matrix(1,0,0,1,938.0415411868902,-932.5585204884952) translate(5.930000000000007 14.4)"/><use xlink:href="#ab" transform="matrix(1,0,0,1,938.0415411868902,-932.5585204884952) translate(39.93000000000001 14.4)"/><use xlink:href="#ac" transform="matrix(1,0,0,1,938.0415411868902,-932.5585204884952) translate(0.005000000000002558 36)"/><path d="M140-230.04c0-2.76 1.94-6.13 4.32-7.5l71.36-41.5c2.38-1.4 6.26-1.4 8.64 0l71.36 41.5c2.38 1.37 4.32 4.74 4.32 7.5v63.48c0 2.76-2.24 5-5 5H145c-2.76 0-5-2.24-5-5z" stroke="#000" stroke-width="2" fill="#666"/><use xlink:href="#ad" transform="matrix(1,0,0,1,140,-281.5589016828271) translate(35.1 63.6)"/><path d="M1368.94-636.56c0-2.76 2.24-5 5-5h150c2.76 0 5 2.24 5 5v110c0 2.76-2.24 5-5 5h-150c-2.76 0-5-2.24-5-5z" stroke="#000" stroke-width="2" fill="#b2b2b2"/><use xlink:href="#ae" transform="matrix(1,0,0,1,1376.9415411868902,-633.5589016829044) translate(52 34)"/><use xlink:href="#af" transform="matrix(1,0,0,1,1376.9415411868902,-633.5589016829044) translate(28.049999999999997 55.6)"/><use xlink:href="#ag" transform="matrix(1,0,0,1,1376.9415411868902,-633.5589016829044) translate(28.549999999999997 77.2)"/><path d="M1448.94-643.56v-58h-460v-40.5" stroke="#000" stroke-width="2" fill="none"/><path d="M1449.94-642.56h-2v-1.02h2z"/><path d="M988.94-757.32l4.64 14.26h-9.27z" stroke="#000" stroke-width="2" fill="#fff"/><path d="M331.88-884.38h-2v-47.18H319.7v-2h12.18zM210.8-931.56h-20.16v38h-2v-40h22.17z"/><path d="M190.64-892.56h-2v-1.02h2zM341.92-901.23l-11.04 18.67-11.05-18.67 1.73-1.02 9.32 15.76 9.32-15.75z"/><g><use xlink:href="#ah" transform="matrix(1,0,0,1,210.810027033628,-954.1589016829045) translate(0.005000000000002558 14.4)"/><use xlink:href="#ai" transform="matrix(1,0,0,1,210.810027033628,-954.1589016829045) translate(14.530000000000001 36)"/></g><path d="M220-282.06v-40" stroke="#000" stroke-width="2" fill="none"/><path d="M221-281l-1.38-.1-.62.1v-1.08h2z"/><path d="M220-337.32l4.64 14.26h-9.28z" stroke="#000" stroke-width="2" fill="#fff"/><path d="M820-463.56v-28h88.83v-10.5" stroke="#000" stroke-width="2" fill="none"/><path d="M821-462.56h-2v-1.02h2z"/><path d="M908.83-517.32l4.64 14.26h-9.27z" stroke="#000" stroke-width="2" fill="#fff"/><path d="M1008.94-463.56v-28h-100.1v-10.5" stroke="#000" stroke-width="2" fill="none"/><path d="M1009.94-462.56h-2v-1.02h2z"/><path d="M908.83-517.32l4.64 14.26h-9.27z" stroke="#000" stroke-width="2" fill="#fff"/><path d="M908.83-643.56v-58h80.1v-40.5" stroke="#000" stroke-width="2" fill="none"/><path d="M909.83-642.56h-2v-1.02h2z"/><path d="M988.94-757.32l4.64 14.26h-9.27z" stroke="#000" stroke-width="2" fill="#fff"/><path d="M625.63-820.56h-153.6v-2h153.6zm281.3 0h-154.4v-2h154.4z"/><path d="M907.94-820.56h-1.02v-2h1.02zM489.9-830.88l-15.76 9.32 15.76 9.32-1.02 1.72-18.67-11.04 18.68-11.04z"/><g><use xlink:href="#aa" transform="matrix(1,0,0,1,625.626616474756,-832.3589016829044) translate(0 14.4)"/><use xlink:href="#aj" transform="matrix(1,0,0,1,625.626616474756,-832.3589016829044) translate(34 14.4)"/><use xlink:href="#ak" transform="matrix(1,0,0,1,625.626616474756,-832.3589016829044) translate(81.95 14.4)"/></g><path d="M1268.94-643.56v-58h-280v-40.5" stroke="#000" stroke-width="2" fill="none"/><path d="M1269.94-642.56h-2v-1.02h2z"/><path d="M988.94-757.32l4.64 14.26h-9.27z" stroke="#000" stroke-width="2" fill="#fff"/><path d="M632.63-787.83H471.2v-2h161.43zm273.5 0h-160.6v-2h160.6z"/><path d="M471.24-787.83h-1.03v-2h1.04zM907.94-788.83l-18.67 11.04-1.02-1.7 15.76-9.33-15.75-9.33 1.02-1.72z"/><g><use xlink:href="#al" transform="matrix(1,0,0,1,632.626616474756,-799.6349054430876) translate(0 14.4)"/><use xlink:href="#am" transform="matrix(1,0,0,1,632.626616474756,-799.6349054430876) translate(47.95 14.4)"/><use xlink:href="#an" transform="matrix(1,0,0,1,632.626616474756,-799.6349054430876) translate(97.9 14.4)"/></g><defs><path fill="#999" d="M233-177c-1 41-23 64-60 70L243 0h-38l-65-103H63V0H30v-248c88 3 205-21 203 71zM63-129c60-2 137 13 137-47 0-61-80-42-137-45v92" id="ao"/><path fill="#999" d="M100-194c63 0 86 42 84 106H49c0 40 14 67 53 68 26 1 43-12 49-29l28 8c-11 28-37 45-77 45C44 4 14-33 15-96c1-61 26-98 85-98zm52 81c6-60-76-77-97-28-3 7-6 17-6 28h103" id="ap"/><path fill="#999" d="M177-190C167-65 218 103 67 71c-23-6-38-20-44-43l32-5c15 47 100 32 89-28v-30C133-14 115 1 83 1 29 1 15-40 15-95c0-56 16-97 71-98 29-1 48 16 59 35 1-10 0-23 2-32h30zM94-22c36 0 50-32 50-73 0-42-14-75-50-75-39 0-46 34-46 75s6 73 46 73" id="aq"/><path fill="#999" d="M24-231v-30h32v30H24zM24 0v-190h32V0H24" id="ar"/><path fill="#999" d="M135-143c-3-34-86-38-87 0 15 53 115 12 119 90S17 21 10-45l28-5c4 36 97 45 98 0-10-56-113-15-118-90-4-57 82-63 122-42 12 7 21 19 24 35" id="as"/><path fill="#999" d="M59-47c-2 24 18 29 38 22v24C64 9 27 4 27-40v-127H5v-23h24l9-43h21v43h35v23H59v120" id="at"/><path fill="#999" d="M114-163C36-179 61-72 57 0H25l-1-190h30c1 12-1 29 2 39 6-27 23-49 58-41v29" id="au"/><g id="a"><use transform="matrix(0.05,0,0,0.05,0,0)" xlink:href="#ao"/><use transform="matrix(0.05,0,0,0.05,12.950000000000001,0)" xlink:href="#ap"/><use transform="matrix(0.05,0,0,0.05,22.950000000000003,0)" xlink:href="#aq"/><use transform="matrix(0.05,0,0,0.05,32.95,0)" xlink:href="#ar"/><use transform="matrix(0.05,0,0,0.05,36.900000000000006,0)" xlink:href="#as"/><use transform="matrix(0.05,0,0,0.05,45.900000000000006,0)" xlink:href="#at"/><use transform="matrix(0.05,0,0,0.05,50.900000000000006,0)" xlink:href="#ap"/><use transform="matrix(0.05,0,0,0.05,60.900000000000006,0)" xlink:href="#au"/></g><path fill="#999" d="M24 0v-261h32V0H24" id="av"/><path fill="#999" d="M210-169c-67 3-38 105-44 169h-31v-121c0-29-5-50-35-48C34-165 62-65 56 0H25l-1-190h30c1 10-1 24 2 32 10-44 99-50 107 0 11-21 27-35 58-36 85-2 47 119 55 194h-31v-121c0-29-5-49-35-48" id="aw"/><path fill="#999" d="M117-194c89-4 53 116 60 194h-32v-121c0-31-8-49-39-48C34-167 62-67 57 0H25l-1-190h30c1 10-1 24 2 32 11-22 29-35 61-36" id="ax"/><g id="b"><use transform="matrix(0.05,0,0,0.05,0,0)" xlink:href="#ap"/><use transform="matrix(0.05,0,0,0.05,10,0)" xlink:href="#av"/><use transform="matrix(0.05,0,0,0.05,13.949999999999998,0)" xlink:href="#ap"/><use transform="matrix(0.05,0,0,0.05,23.95,0)" xlink:href="#aw"/><use transform="matrix(0.05,0,0,0.05,38.9,0)" xlink:href="#ap"/><use transform="matrix(0.05,0,0,0.05,48.9,0)" xlink:href="#ax"/><use transform="matrix(0.05,0,0,0.05,58.900000000000006,0)" xlink:href="#at"/><use transform="matrix(0.05,0,0,0.05,63.900000000000006,0)" xlink:href="#as"/></g><path fill="#999" d="M63-220v92h138v28H63V0H30v-248h175v28H63" id="ay"/><path fill="#999" d="M141-36C126-15 110 5 73 4 37 3 15-17 15-53c-1-64 63-63 125-63 3-35-9-54-41-54-24 1-41 7-42 31l-33-3c5-37 33-52 76-52 45 0 72 20 72 64v82c-1 20 7 32 28 27v20c-31 9-61-2-59-35zM48-53c0 20 12 33 32 33 41-3 63-29 60-74-43 2-92-5-92 41" id="az"/><path fill="#999" d="M84 4C-5 8 30-112 23-190h32v120c0 31 7 50 39 49 72-2 45-101 50-169h31l1 190h-30c-1-10 1-25-2-33-11 22-28 36-60 37" id="aA"/><g id="c"><use transform="matrix(0.05,0,0,0.05,0,0)" xlink:href="#ay"/><use transform="matrix(0.05,0,0,0.05,10.950000000000001,0)" xlink:href="#ap"/><use transform="matrix(0.05,0,0,0.05,20.950000000000003,0)" xlink:href="#az"/><use transform="matrix(0.05,0,0,0.05,30.950000000000003,0)" xlink:href="#at"/><use transform="matrix(0.05,0,0,0.05,35.95,0)" xlink:href="#aA"/><use transform="matrix(0.05,0,0,0.05,45.95,0)" xlink:href="#au"/><use transform="matrix(0.05,0,0,0.05,51.900000000000006,0)" xlink:href="#ap"/></g><g id="d"><use transform="matrix(0.05,0,0,0.05,0,0)" xlink:href="#ap"/><use transform="matrix(0.05,0,0,0.05,10,0)" xlink:href="#av"/><use transform="matrix(0.05,0,0,0.05,13.949999999999998,0)" xlink:href="#ap"/><use transform="matrix(0.05,0,0,0.05,23.95,0)" xlink:href="#aw"/><use transform="matrix(0.05,0,0,0.05,38.9,0)" xlink:href="#ap"/><use transform="matrix(0.05,0,0,0.05,48.9,0)" xlink:href="#ax"/><use transform="matrix(0.05,0,0,0.05,58.900000000000006,0)" xlink:href="#at"/><use transform="matrix(0.05,0,0,0.05,63.900000000000006,0)" xlink:href="#as"/></g><path fill="#999" d="M205 0l-28-72H64L36 0H1l101-248h38L239 0h-34zm-38-99l-47-123c-12 45-31 82-46 123h93" id="aB"/><g id="e"><use transform="matrix(0.05,0,0,0.05,0,0)" xlink:href="#aB"/><use transform="matrix(0.05,0,0,0.05,12,0)" xlink:href="#aq"/><use transform="matrix(0.05,0,0,0.05,22,0)" xlink:href="#ap"/><use transform="matrix(0.05,0,0,0.05,32,0)" xlink:href="#ax"/><use transform="matrix(0.05,0,0,0.05,42,0)" xlink:href="#at"/></g><path d="M30-248c118-7 216 8 213 122C240-48 200 0 122 0H30v-248zM63-27c89 8 146-16 146-99s-60-101-146-95v194" id="aC"/><path d="M141-36C126-15 110 5 73 4 37 3 15-17 15-53c-1-64 63-63 125-63 3-35-9-54-41-54-24 1-41 7-42 31l-33-3c5-37 33-52 76-52 45 0 72 20 72 64v82c-1 20 7 32 28 27v20c-31 9-61-2-59-35zM48-53c0 20 12 33 32 33 41-3 63-29 60-74-43 2-92-5-92 41" id="aD"/><path d="M59-47c-2 24 18 29 38 22v24C64 9 27 4 27-40v-127H5v-23h24l9-43h21v43h35v23H59v120" id="aE"/><path d="M179-190L93 31C79 59 56 82 12 73V49c39 6 53-20 64-50L1-190h34L92-34l54-156h33" id="aF"/><path d="M115-194c55 1 70 41 70 98S169 2 115 4C84 4 66-9 55-30l1 105H24l-1-265h31l2 30c10-21 28-34 59-34zm-8 174c40 0 45-34 45-75s-6-73-45-74c-42 0-51 32-51 76 0 43 10 73 51 73" id="aG"/><path d="M100-194c63 0 86 42 84 106H49c0 40 14 67 53 68 26 1 43-12 49-29l28 8c-11 28-37 45-77 45C44 4 14-33 15-96c1-61 26-98 85-98zm52 81c6-60-76-77-97-28-3 7-6 17-6 28h103" id="aH"/><g id="f"><use transform="matrix(0.05,0,0,0.05,0,0)" xlink:href="#aC"/><use transform="matrix(0.05,0,0,0.05,12.950000000000001,0)" xlink:href="#aD"/><use transform="matrix(0.05,0,0,0.05,22.950000000000003,0)" xlink:href="#aE"/><use transform="matrix(0.05,0,0,0.05,27.950000000000003,0)" xlink:href="#aD"/><use transform="matrix(0.05,0,0,0.05,37.95,0)" xlink:href="#aE"/><use transform="matrix(0.05,0,0,0.05,42.95,0)" xlink:href="#aF"/><use transform="matrix(0.05,0,0,0.05,51.95,0)" xlink:href="#aG"/><use transform="matrix(0.05,0,0,0.05,61.95,0)" xlink:href="#aH"/></g><path d="M30-248c87 1 191-15 191 75 0 78-77 80-158 76V0H30v-248zm33 125c57 0 124 11 124-50 0-59-68-47-124-48v98" id="aI"/><path d="M114-163C36-179 61-72 57 0H25l-1-190h30c1 12-1 29 2 39 6-27 23-49 58-41v29" id="aJ"/><path d="M100-194c62-1 85 37 85 99 1 63-27 99-86 99S16-35 15-95c0-66 28-99 85-99zM99-20c44 1 53-31 53-75 0-43-8-75-51-75s-53 32-53 75 10 74 51 75" id="aK"/><g id="g"><use transform="matrix(0.05,0,0,0.05,0,0)" xlink:href="#aI"/><use transform="matrix(0.05,0,0,0.05,12,0)" xlink:href="#aJ"/><use transform="matrix(0.05,0,0,0.05,17.95,0)" xlink:href="#aK"/><use transform="matrix(0.05,0,0,0.05,27.950000000000003,0)" xlink:href="#aG"/><use transform="matrix(0.05,0,0,0.05,37.95,0)" xlink:href="#aH"/><use transform="matrix(0.05,0,0,0.05,47.95,0)" xlink:href="#aJ"/><use transform="matrix(0.05,0,0,0.05,53.900000000000006,0)" xlink:href="#aE"/><use transform="matrix(0.05,0,0,0.05,58.900000000000006,0)" xlink:href="#aF"/></g><path d="M85-194c31 0 48 13 60 33l-1-100h32l1 261h-30c-2-10 0-23-3-31C134-8 116 4 85 4 32 4 16-35 15-94c0-66 23-100 70-100zm9 24c-40 0-46 34-46 75 0 40 6 74 45 74 42 0 51-32 51-76 0-42-9-74-50-73" id="aL"/><path d="M101-234c-31-9-42 10-38 44h38v23H63V0H32v-167H5v-23h27c-7-52 17-82 69-68v24" id="aM"/><path d="M33-154v-36h34v36H33zM33 0v-36h34V0H33" id="aN"/><g id="h"><use transform="matrix(0.05,0,0,0.05,0,0)" xlink:href="#aJ"/><use transform="matrix(0.05,0,0,0.05,5.95,0)" xlink:href="#aL"/><use transform="matrix(0.05,0,0,0.05,15.949999999999998,0)" xlink:href="#aM"/><use transform="matrix(0.05,0,0,0.05,20.95,0)" xlink:href="#aN"/><use transform="matrix(0.05,0,0,0.05,25.950000000000003,0)" xlink:href="#aG"/><use transform="matrix(0.05,0,0,0.05,35.95,0)" xlink:href="#aJ"/><use transform="matrix(0.05,0,0,0.05,41.900000000000006,0)" xlink:href="#aK"/><use transform="matrix(0.05,0,0,0.05,51.900000000000006,0)" xlink:href="#aG"/><use transform="matrix(0.05,0,0,0.05,61.900000000000006,0)" xlink:href="#aH"/><use transform="matrix(0.05,0,0,0.05,71.9,0)" xlink:href="#aJ"/><use transform="matrix(0.05,0,0,0.05,77.85000000000001,0)" xlink:href="#aF"/></g><path d="M135-143c-3-34-86-38-87 0 15 53 115 12 119 90S17 21 10-45l28-5c4 36 97 45 98 0-10-56-113-15-118-90-4-57 82-63 122-42 12 7 21 19 24 35" id="aO"/><path d="M84 4C-5 8 30-112 23-190h32v120c0 31 7 50 39 49 72-2 45-101 50-169h31l1 190h-30c-1-10 1-25-2-33-11 22-28 36-60 37" id="aP"/><path d="M115-194c53 0 69 39 70 98 0 66-23 100-70 100C84 3 66-7 56-30L54 0H23l1-261h32v101c10-23 28-34 59-34zm-8 174c40 0 45-34 45-75 0-40-5-75-45-74-42 0-51 32-51 76 0 43 10 73 51 73" id="aQ"/><path d="M212-179c-10-28-35-45-73-45-59 0-87 40-87 99 0 60 29 101 89 101 43 0 62-24 78-52l27 14C228-24 195 4 139 4 59 4 22-46 18-125c-6-104 99-153 187-111 19 9 31 26 39 46" id="aR"/><path d="M24 0v-261h32V0H24" id="aS"/><path d="M140-251c81 0 123 46 123 126C263-46 219 4 140 4 59 4 17-45 17-125s42-126 123-126zm0 227c63 0 89-41 89-101s-29-99-89-99c-61 0-89 39-89 99S79-25 140-24" id="aT"/><g id="i"><use transform="matrix(0.05,0,0,0.05,0,0)" xlink:href="#aJ"/><use transform="matrix(0.05,0,0,0.05,5.95,0)" xlink:href="#aL"/><use transform="matrix(0.05,0,0,0.05,15.949999999999998,0)" xlink:href="#aM"/><use transform="matrix(0.05,0,0,0.05,20.95,0)" xlink:href="#aO"/><use transform="matrix(0.05,0,0,0.05,29.950000000000003,0)" xlink:href="#aN"/><use transform="matrix(0.05,0,0,0.05,34.95,0)" xlink:href="#aO"/><use transform="matrix(0.05,0,0,0.05,43.95,0)" xlink:href="#aP"/><use transform="matrix(0.05,0,0,0.05,53.95,0)" xlink:href="#aQ"/><use transform="matrix(0.05,0,0,0.05,63.95,0)" xlink:href="#aR"/><use transform="matrix(0.05,0,0,0.05,76.9,0)" xlink:href="#aS"/><use transform="matrix(0.05,0,0,0.05,80.85000000000001,0)" xlink:href="#aD"/><use transform="matrix(0.05,0,0,0.05,90.85000000000001,0)" xlink:href="#aO"/><use transform="matrix(0.05,0,0,0.05,99.85000000000001,0)" xlink:href="#aO"/><use transform="matrix(0.05,0,0,0.05,108.85000000000001,0)" xlink:href="#aT"/><use transform="matrix(0.05,0,0,0.05,122.85000000000001,0)" xlink:href="#aM"/></g><path d="M30 0v-248h33v221h125V0H30" id="aU"/><path d="M96-169c-40 0-48 33-48 73s9 75 48 75c24 0 41-14 43-38l32 2c-6 37-31 61-74 61-59 0-76-41-82-99-10-93 101-131 147-64 4 7 5 14 7 22l-32 3c-4-21-16-35-41-35" id="aV"/><path d="M33 0v-248h34V0H33" id="aW"/><path d="M16-82v-28h88v28H16" id="aX"/><g id="j"><use transform="matrix(0.05,0,0,0.05,0,0)" xlink:href="#aU"/><use transform="matrix(0.05,0,0,0.05,10,0)" xlink:href="#aK"/><use transform="matrix(0.05,0,0,0.05,20,0)" xlink:href="#aV"/><use transform="matrix(0.05,0,0,0.05,29,0)" xlink:href="#aW"/><use transform="matrix(0.05,0,0,0.05,34,0)" xlink:href="#aX"/><use transform="matrix(0.05,0,0,0.05,39.95,0)" xlink:href="#aW"/></g><g id="k"><use transform="matrix(0.05,0,0,0.05,0,0)" xlink:href="#aR"/><use transform="matrix(0.05,0,0,0.05,12.950000000000001,0)" xlink:href="#aS"/><use transform="matrix(0.05,0,0,0.05,16.900000000000002,0)" xlink:href="#aD"/><use transform="matrix(0.05,0,0,0.05,26.900000000000002,0)" xlink:href="#aO"/><use transform="matrix(0.05,0,0,0.05,35.900000000000006,0)" xlink:href="#aO"/></g><path fill="#fff" d="M30-248c87 1 191-15 191 75 0 78-77 80-158 76V0H30v-248zm33 125c57 0 124 11 124-50 0-59-68-47-124-48v98" id="aY"/><path fill="#fff" d="M24 0v-261h32V0H24" id="aZ"/><path fill="#fff" d="M141-36C126-15 110 5 73 4 37 3 15-17 15-53c-1-64 63-63 125-63 3-35-9-54-41-54-24 1-41 7-42 31l-33-3c5-37 33-52 76-52 45 0 72 20 72 64v82c-1 20 7 32 28 27v20c-31 9-61-2-59-35zM48-53c0 20 12 33 32 33 41-3 63-29 60-74-43 2-92-5-92 41" id="ba"/><path fill="#fff" d="M96-169c-40 0-48 33-48 73s9 75 48 75c24 0 41-14 43-38l32 2c-6 37-31 61-74 61-59 0-76-41-82-99-10-93 101-131 147-64 4 7 5 14 7 22l-32 3c-4-21-16-35-41-35" id="bb"/><path fill="#fff" d="M100-194c63 0 86 42 84 106H49c0 40 14 67 53 68 26 1 43-12 49-29l28 8c-11 28-37 45-77 45C44 4 14-33 15-96c1-61 26-98 85-98zm52 81c6-60-76-77-97-28-3 7-6 17-6 28h103" id="bc"/><g id="l"><use transform="matrix(0.05,0,0,0.05,0,0)" xlink:href="#aY"/><use transform="matrix(0.05,0,0,0.05,12,0)" xlink:href="#aZ"/><use transform="matrix(0.05,0,0,0.05,15.949999999999998,0)" xlink:href="#ba"/><use transform="matrix(0.05,0,0,0.05,25.950000000000003,0)" xlink:href="#bb"/><use transform="matrix(0.05,0,0,0.05,34.95,0)" xlink:href="#bc"/></g><path fill="#fff" d="M190 0L58-211 59 0H30v-248h39L202-35l-2-213h31V0h-41" id="bd"/><path fill="#fff" d="M210-169c-67 3-38 105-44 169h-31v-121c0-29-5-50-35-48C34-165 62-65 56 0H25l-1-190h30c1 10-1 24 2 32 10-44 99-50 107 0 11-21 27-35 58-36 85-2 47 119 55 194h-31v-121c0-29-5-49-35-48" id="be"/><path fill="#fff" d="M135-143c-3-34-86-38-87 0 15 53 115 12 119 90S17 21 10-45l28-5c4 36 97 45 98 0-10-56-113-15-118-90-4-57 82-63 122-42 12 7 21 19 24 35" id="bf"/><g id="m"><use transform="matrix(0.05,0,0,0.05,0,0)" xlink:href="#bd"/><use transform="matrix(0.05,0,0,0.05,12.950000000000001,0)" xlink:href="#ba"/><use transform="matrix(0.05,0,0,0.05,22.950000000000003,0)" xlink:href="#be"/><use transform="matrix(0.05,0,0,0.05,37.900000000000006,0)" xlink:href="#bc"/><use transform="matrix(0.05,0,0,0.05,47.900000000000006,0)" xlink:href="#bf"/></g><path fill="#fff" d="M212-179c-10-28-35-45-73-45-59 0-87 40-87 99 0 60 29 101 89 101 43 0 62-24 78-52l27 14C228-24 195 4 139 4 59 4 22-46 18-125c-6-104 99-153 187-111 19 9 31 26 39 46" id="bg"/><g id="n"><use transform="matrix(0.05,0,0,0.05,0,0)" xlink:href="#bg"/><use transform="matrix(0.05,0,0,0.05,12.950000000000001,0)" xlink:href="#aZ"/><use transform="matrix(0.05,0,0,0.05,16.900000000000002,0)" xlink:href="#ba"/><use transform="matrix(0.05,0,0,0.05,26.900000000000002,0)" xlink:href="#bf"/><use transform="matrix(0.05,0,0,0.05,35.900000000000006,0)" xlink:href="#bf"/></g><path d="M24-231v-30h32v30H24zM24 0v-190h32V0H24" id="bh"/><path d="M177-190C167-65 218 103 67 71c-23-6-38-20-44-43l32-5c15 47 100 32 89-28v-30C133-14 115 1 83 1 29 1 15-40 15-95c0-56 16-97 71-98 29-1 48 16 59 35 1-10 0-23 2-32h30zM94-22c36 0 50-32 50-73 0-42-14-75-50-75-39 0-46 34-46 75s6 73 46 73" id="bi"/><path d="M210-169c-67 3-38 105-44 169h-31v-121c0-29-5-50-35-48C34-165 62-65 56 0H25l-1-190h30c1 10-1 24 2 32 10-44 99-50 107 0 11-21 27-35 58-36 85-2 47 119 55 194h-31v-121c0-29-5-49-35-48" id="bj"/><g id="o"><use transform="matrix(0.05,0,0,0.05,0,0)" xlink:href="#aC"/><use transform="matrix(0.05,0,0,0.05,12.950000000000001,0)" xlink:href="#bh"/><use transform="matrix(0.05,0,0,0.05,16.900000000000002,0)" xlink:href="#aD"/><use transform="matrix(0.05,0,0,0.05,26.900000000000002,0)" xlink:href="#bi"/><use transform="matrix(0.05,0,0,0.05,36.900000000000006,0)" xlink:href="#aJ"/><use transform="matrix(0.05,0,0,0.05,42.85000000000001,0)" xlink:href="#aD"/><use transform="matrix(0.05,0,0,0.05,52.85,0)" xlink:href="#bj"/><path d="M-.9 1.25h74.6v1.32H-.9z"/></g><path d="M30 0v-248h187v28H63v79h144v27H63v87h162V0H30" id="bk"/><path d="M117-194c89-4 53 116 60 194h-32v-121c0-31-8-49-39-48C34-167 62-67 57 0H25l-1-190h30c1 10-1 24 2 32 11-22 29-35 61-36" id="bl"/><g id="p"><use transform="matrix(0.05,0,0,0.05,0,0)" xlink:href="#bk"/><use transform="matrix(0.05,0,0,0.05,12,0)" xlink:href="#aS"/><use transform="matrix(0.05,0,0,0.05,15.949999999999998,0)" xlink:href="#aH"/><use transform="matrix(0.05,0,0,0.05,25.950000000000003,0)" xlink:href="#bj"/><use transform="matrix(0.05,0,0,0.05,40.9,0)" xlink:href="#aH"/><use transform="matrix(0.05,0,0,0.05,50.9,0)" xlink:href="#bl"/><use transform="matrix(0.05,0,0,0.05,60.900000000000006,0)" xlink:href="#aE"/><path d="M-.9 1.25h72.7v1.32H-.9z"/></g><path d="M194 0L95-120 63-95V0H30v-248h33v124l119-124h40L117-140 236 0h-42" id="bm"/><g id="q"><use transform="matrix(0.05,0,0,0.05,0,0)" xlink:href="#bm"/><use transform="matrix(0.05,0,0,0.05,12,0)" xlink:href="#aH"/><use transform="matrix(0.05,0,0,0.05,22,0)" xlink:href="#aF"/><path d="M-.9 1.25h32.8v1.32H-.9z"/></g><path d="M206 0h-36l-40-164L89 0H53L-1-190h32L70-26l43-164h34l41 164 42-164h31" id="bn"/><g id="r"><use transform="matrix(0.05,0,0,0.05,0,0)" xlink:href="#aK"/><use transform="matrix(0.05,0,0,0.05,10,0)" xlink:href="#bn"/><use transform="matrix(0.05,0,0,0.05,22.950000000000003,0)" xlink:href="#aS"/><use transform="matrix(0.05,0,0,0.05,26.900000000000002,0)" xlink:href="#aN"/><use transform="matrix(0.05,0,0,0.05,31.900000000000002,0)" xlink:href="#aR"/><use transform="matrix(0.05,0,0,0.05,44.85,0)" xlink:href="#aS"/><use transform="matrix(0.05,0,0,0.05,48.800000000000004,0)" xlink:href="#aD"/><use transform="matrix(0.05,0,0,0.05,58.800000000000004,0)" xlink:href="#aO"/><use transform="matrix(0.05,0,0,0.05,67.80000000000001,0)" xlink:href="#aO"/></g><g id="s"><use transform="matrix(0.05,0,0,0.05,0,0)" xlink:href="#bi"/><use transform="matrix(0.05,0,0,0.05,10,0)" xlink:href="#aH"/><use transform="matrix(0.05,0,0,0.05,20,0)" xlink:href="#aK"/><use transform="matrix(0.05,0,0,0.05,30,0)" xlink:href="#aN"/></g><path d="M63-220v92h138v28H63V0H30v-248h175v28H63" id="bo"/><g id="t"><use transform="matrix(0.05,0,0,0.05,0,0)" xlink:href="#bo"/><use transform="matrix(0.05,0,0,0.05,10.950000000000001,0)" xlink:href="#aH"/><use transform="matrix(0.05,0,0,0.05,20.950000000000003,0)" xlink:href="#aD"/><use transform="matrix(0.05,0,0,0.05,30.950000000000003,0)" xlink:href="#aE"/><use transform="matrix(0.05,0,0,0.05,35.95,0)" xlink:href="#aP"/><use transform="matrix(0.05,0,0,0.05,45.95,0)" xlink:href="#aJ"/><use transform="matrix(0.05,0,0,0.05,51.900000000000006,0)" xlink:href="#aH"/></g><path d="M143 4C61 4 22-44 18-125c-5-107 100-154 193-111 17 8 29 25 37 43l-32 9c-13-25-37-40-76-40-61 0-88 39-88 99 0 61 29 100 91 101 35 0 62-11 79-27v-45h-74v-28h105v86C228-13 192 4 143 4" id="bp"/><g id="u"><use transform="matrix(0.05,0,0,0.05,0,0)" xlink:href="#bp"/><use transform="matrix(0.05,0,0,0.05,14,0)" xlink:href="#aH"/><use transform="matrix(0.05,0,0,0.05,24,0)" xlink:href="#aK"/><use transform="matrix(0.05,0,0,0.05,34,0)" xlink:href="#bj"/><use transform="matrix(0.05,0,0,0.05,48.95,0)" xlink:href="#aH"/><use transform="matrix(0.05,0,0,0.05,58.95,0)" xlink:href="#aE"/><use transform="matrix(0.05,0,0,0.05,63.95,0)" xlink:href="#aJ"/><use transform="matrix(0.05,0,0,0.05,69.9,0)" xlink:href="#aF"/></g><g id="v"><use transform="matrix(0.05,0,0,0.05,0,0)" xlink:href="#bi"/><use transform="matrix(0.05,0,0,0.05,10,0)" xlink:href="#aH"/><use transform="matrix(0.05,0,0,0.05,20,0)" xlink:href="#aK"/><use transform="matrix(0.05,0,0,0.05,30,0)" xlink:href="#aN"/></g><path d="M106-169C34-169 62-67 57 0H25v-261h32l-1 103c12-21 28-36 61-36 89 0 53 116 60 194h-32v-121c2-32-8-49-39-48" id="bq"/><g id="w"><use transform="matrix(0.05,0,0,0.05,0,0)" xlink:href="#bq"/><use transform="matrix(0.05,0,0,0.05,10,0)" xlink:href="#aD"/><use transform="matrix(0.05,0,0,0.05,20,0)" xlink:href="#aO"/><use transform="matrix(0.05,0,0,0.05,29,0)" xlink:href="#bp"/><use transform="matrix(0.05,0,0,0.05,43,0)" xlink:href="#aH"/><use transform="matrix(0.05,0,0,0.05,53,0)" xlink:href="#aK"/><use transform="matrix(0.05,0,0,0.05,63,0)" xlink:href="#bj"/><use transform="matrix(0.05,0,0,0.05,77.95,0)" xlink:href="#aH"/><use transform="matrix(0.05,0,0,0.05,87.95,0)" xlink:href="#aE"/><use transform="matrix(0.05,0,0,0.05,92.95,0)" xlink:href="#aJ"/><use transform="matrix(0.05,0,0,0.05,98.9,0)" xlink:href="#aF"/></g><g id="x"><use transform="matrix(0.05,0,0,0.05,0,0)" xlink:href="#aY"/><use transform="matrix(0.05,0,0,0.05,12,0)" xlink:href="#aZ"/><use transform="matrix(0.05,0,0,0.05,15.949999999999998,0)" xlink:href="#ba"/><use transform="matrix(0.05,0,0,0.05,25.950000000000003,0)" xlink:href="#bb"/><use transform="matrix(0.05,0,0,0.05,34.95,0)" xlink:href="#bc"/></g><path fill="#fff" d="M100-194c62-1 85 37 85 99 1 63-27 99-86 99S16-35 15-95c0-66 28-99 85-99zM99-20c44 1 53-31 53-75 0-43-8-75-51-75s-53 32-53 75 10 74 51 75" id="br"/><path fill="#fff" d="M24-231v-30h32v30H24zM24 0v-190h32V0H24" id="bs"/><path fill="#fff" d="M117-194c89-4 53 116 60 194h-32v-121c0-31-8-49-39-48C34-167 62-67 57 0H25l-1-190h30c1 10-1 24 2 32 11-22 29-35 61-36" id="bt"/><path fill="#fff" d="M59-47c-2 24 18 29 38 22v24C64 9 27 4 27-40v-127H5v-23h24l9-43h21v43h35v23H59v120" id="bu"/><g id="y"><use transform="matrix(0.05,0,0,0.05,0,0)" xlink:href="#aY"/><use transform="matrix(0.05,0,0,0.05,12,0)" xlink:href="#br"/><use transform="matrix(0.05,0,0,0.05,22,0)" xlink:href="#bs"/><use transform="matrix(0.05,0,0,0.05,25.950000000000003,0)" xlink:href="#bt"/><use transform="matrix(0.05,0,0,0.05,35.95,0)" xlink:href="#bu"/></g><path fill="#fff" d="M101-234c-31-9-42 10-38 44h38v23H63V0H32v-167H5v-23h27c-7-52 17-82 69-68v24" id="bv"/><g id="z"><use transform="matrix(0.05,0,0,0.05,0,0)" xlink:href="#br"/><use transform="matrix(0.05,0,0,0.05,10,0)" xlink:href="#bv"/></g><path fill="#fff" d="M33 0v-248h34V0H33" id="bw"/><path fill="#fff" d="M114-163C36-179 61-72 57 0H25l-1-190h30c1 12-1 29 2 39 6-27 23-49 58-41v29" id="bx"/><g id="A"><use transform="matrix(0.05,0,0,0.05,0,0)" xlink:href="#bw"/><use transform="matrix(0.05,0,0,0.05,5,0)" xlink:href="#bt"/><use transform="matrix(0.05,0,0,0.05,15,0)" xlink:href="#bu"/><use transform="matrix(0.05,0,0,0.05,20,0)" xlink:href="#bc"/><use transform="matrix(0.05,0,0,0.05,30,0)" xlink:href="#bx"/><use transform="matrix(0.05,0,0,0.05,35.95,0)" xlink:href="#bc"/><use transform="matrix(0.05,0,0,0.05,45.95,0)" xlink:href="#bf"/><use transform="matrix(0.05,0,0,0.05,54.95,0)" xlink:href="#bu"/></g><path fill="#fff" d="M233-177c-1 41-23 64-60 70L243 0h-38l-65-103H63V0H30v-248c88 3 205-21 203 71zM63-129c60-2 137 13 137-47 0-61-80-42-137-45v92" id="by"/><path fill="#fff" d="M177-190C167-65 218 103 67 71c-23-6-38-20-44-43l32-5c15 47 100 32 89-28v-30C133-14 115 1 83 1 29 1 15-40 15-95c0-56 16-97 71-98 29-1 48 16 59 35 1-10 0-23 2-32h30zM94-22c36 0 50-32 50-73 0-42-14-75-50-75-39 0-46 34-46 75s6 73 46 73" id="bz"/><g id="B"><use transform="matrix(0.05,0,0,0.05,0,0)" xlink:href="#by"/><use transform="matrix(0.05,0,0,0.05,12.950000000000001,0)" xlink:href="#bc"/><use transform="matrix(0.05,0,0,0.05,22.950000000000003,0)" xlink:href="#bz"/><use transform="matrix(0.05,0,0,0.05,32.95,0)" xlink:href="#bs"/><use transform="matrix(0.05,0,0,0.05,36.900000000000006,0)" xlink:href="#br"/><use transform="matrix(0.05,0,0,0.05,46.900000000000006,0)" xlink:href="#bt"/></g><g id="C"><use transform="matrix(0.05,0,0,0.05,0,0)" xlink:href="#bi"/><use transform="matrix(0.05,0,0,0.05,10,0)" xlink:href="#bl"/><use transform="matrix(0.05,0,0,0.05,20,0)" xlink:href="#aD"/><use transform="matrix(0.05,0,0,0.05,30,0)" xlink:href="#aM"/><use transform="matrix(0.05,0,0,0.05,35,0)" xlink:href="#aN"/></g><path d="M205 0l-28-72H64L36 0H1l101-248h38L239 0h-34zm-38-99l-47-123c-12 45-31 82-46 123h93" id="bA"/><g id="D"><use transform="matrix(0.05,0,0,0.05,0,0)" xlink:href="#bA"/><use transform="matrix(0.05,0,0,0.05,12,0)" xlink:href="#aL"/><use transform="matrix(0.05,0,0,0.05,22,0)" xlink:href="#aL"/><use transform="matrix(0.05,0,0,0.05,32,0)" xlink:href="#aJ"/><use transform="matrix(0.05,0,0,0.05,37.95,0)" xlink:href="#aH"/><use transform="matrix(0.05,0,0,0.05,47.95,0)" xlink:href="#aO"/><use transform="matrix(0.05,0,0,0.05,56.95,0)" xlink:href="#aO"/></g><g id="E"><use transform="matrix(0.05,0,0,0.05,0,0)" xlink:href="#aD"/><use transform="matrix(0.05,0,0,0.05,10,0)" xlink:href="#aO"/><use transform="matrix(0.05,0,0,0.05,19,0)" xlink:href="#bi"/><use transform="matrix(0.05,0,0,0.05,29,0)" xlink:href="#aO"/><use transform="matrix(0.05,0,0,0.05,38,0)" xlink:href="#aN"/></g><path d="M185-189c-5-48-123-54-124 2 14 75 158 14 163 119 3 78-121 87-175 55-17-10-28-26-33-46l33-7c5 56 141 63 141-1 0-78-155-14-162-118-5-82 145-84 179-34 5 7 8 16 11 25" id="bB"/><path d="M127-220V0H93v-220H8v-28h204v28h-85" id="bC"/><g id="F"><use transform="matrix(0.05,0,0,0.05,0,0)" xlink:href="#bB"/><use transform="matrix(0.05,0,0,0.05,12,0)" xlink:href="#aE"/><use transform="matrix(0.05,0,0,0.05,17,0)" xlink:href="#aD"/><use transform="matrix(0.05,0,0,0.05,27,0)" xlink:href="#aE"/><use transform="matrix(0.05,0,0,0.05,32,0)" xlink:href="#aH"/><use transform="matrix(0.05,0,0,0.05,42,0)" xlink:href="#aT"/><use transform="matrix(0.05,0,0,0.05,56,0)" xlink:href="#aJ"/><use transform="matrix(0.05,0,0,0.05,61.95,0)" xlink:href="#bC"/><use transform="matrix(0.05,0,0,0.05,70.9,0)" xlink:href="#aH"/><use transform="matrix(0.05,0,0,0.05,80.9,0)" xlink:href="#aJ"/><use transform="matrix(0.05,0,0,0.05,86.85000000000001,0)" xlink:href="#aJ"/><use transform="matrix(0.05,0,0,0.05,92.80000000000001,0)" xlink:href="#bh"/><use transform="matrix(0.05,0,0,0.05,96.75000000000001,0)" xlink:href="#aE"/><use transform="matrix(0.05,0,0,0.05,101.75000000000001,0)" xlink:href="#aK"/><use transform="matrix(0.05,0,0,0.05,111.75,0)" xlink:href="#aJ"/><use transform="matrix(0.05,0,0,0.05,117.7,0)" xlink:href="#aF"/></g><path fill="#fff" d="M143 4C61 4 22-44 18-125c-5-107 100-154 193-111 17 8 29 25 37 43l-32 9c-13-25-37-40-76-40-61 0-88 39-88 99 0 61 29 100 91 101 35 0 62-11 79-27v-45h-74v-28h105v86C228-13 192 4 143 4" id="bD"/><path fill="#fff" d="M9 0v-24l116-142H16v-24h144v24L44-24h123V0H9" id="bE"/><g id="G"><use transform="matrix(0.05,0,0,0.05,0,0)" xlink:href="#bD"/><use transform="matrix(0.05,0,0,0.05,14,0)" xlink:href="#ba"/><use transform="matrix(0.05,0,0,0.05,24,0)" xlink:href="#bE"/><use transform="matrix(0.05,0,0,0.05,33,0)" xlink:href="#bc"/><use transform="matrix(0.05,0,0,0.05,43,0)" xlink:href="#bu"/><use transform="matrix(0.05,0,0,0.05,48,0)" xlink:href="#bu"/><use transform="matrix(0.05,0,0,0.05,53,0)" xlink:href="#bc"/><use transform="matrix(0.05,0,0,0.05,63,0)" xlink:href="#bc"/><use transform="matrix(0.05,0,0,0.05,73,0)" xlink:href="#bx"/></g><g id="H"><use transform="matrix(0.05,0,0,0.05,0,0)" xlink:href="#aJ"/><use transform="matrix(0.05,0,0,0.05,5.95,0)" xlink:href="#aH"/><use transform="matrix(0.05,0,0,0.05,15.949999999999998,0)" xlink:href="#bi"/><use transform="matrix(0.05,0,0,0.05,25.950000000000003,0)" xlink:href="#aN"/></g><path d="M233-177c-1 41-23 64-60 70L243 0h-38l-65-103H63V0H30v-248c88 3 205-21 203 71zM63-129c60-2 137 13 137-47 0-61-80-42-137-45v92" id="bF"/><g id="I"><use transform="matrix(0.05,0,0,0.05,0,0)" xlink:href="#bF"/><use transform="matrix(0.05,0,0,0.05,12.950000000000001,0)" xlink:href="#aH"/><use transform="matrix(0.05,0,0,0.05,22.950000000000003,0)" xlink:href="#bi"/><use transform="matrix(0.05,0,0,0.05,32.95,0)" xlink:href="#bh"/><use transform="matrix(0.05,0,0,0.05,36.900000000000006,0)" xlink:href="#aO"/><use transform="matrix(0.05,0,0,0.05,45.900000000000006,0)" xlink:href="#aE"/><use transform="matrix(0.05,0,0,0.05,50.900000000000006,0)" xlink:href="#aH"/><use transform="matrix(0.05,0,0,0.05,60.900000000000006,0)" xlink:href="#aJ"/></g><path d="M108 0H70L1-190h34L89-25l56-165h34" id="bG"/><g id="J"><use transform="matrix(0.05,0,0,0.05,0,0)" xlink:href="#aG"/><use transform="matrix(0.05,0,0,0.05,10,0)" xlink:href="#aJ"/><use transform="matrix(0.05,0,0,0.05,15.949999999999998,0)" xlink:href="#aK"/><use transform="matrix(0.05,0,0,0.05,25.950000000000003,0)" xlink:href="#bG"/><use transform="matrix(0.05,0,0,0.05,34.95,0)" xlink:href="#aN"/></g><g id="K"><use transform="matrix(0.05,0,0,0.05,0,0)" xlink:href="#bA"/><use transform="matrix(0.05,0,0,0.05,12,0)" xlink:href="#bi"/><use transform="matrix(0.05,0,0,0.05,22,0)" xlink:href="#aH"/><use transform="matrix(0.05,0,0,0.05,32,0)" xlink:href="#bl"/><use transform="matrix(0.05,0,0,0.05,42,0)" xlink:href="#aE"/></g><g id="L"><use transform="matrix(0.05,0,0,0.05,0,0)" xlink:href="#aO"/><use transform="matrix(0.05,0,0,0.05,9,0)" xlink:href="#aL"/><use transform="matrix(0.05,0,0,0.05,19,0)" xlink:href="#aK"/><use transform="matrix(0.05,0,0,0.05,29,0)" xlink:href="#aN"/></g><g id="M"><use transform="matrix(0.05,0,0,0.05,0,0)" xlink:href="#aT"/><use transform="matrix(0.05,0,0,0.05,14,0)" xlink:href="#aJ"/><use transform="matrix(0.05,0,0,0.05,19.95,0)" xlink:href="#bi"/><use transform="matrix(0.05,0,0,0.05,29.950000000000003,0)" xlink:href="#aD"/><use transform="matrix(0.05,0,0,0.05,39.95,0)" xlink:href="#bl"/><use transform="matrix(0.05,0,0,0.05,49.95,0)" xlink:href="#bh"/><use transform="matrix(0.05,0,0,0.05,53.900000000000006,0)" xlink:href="#aO"/><use transform="matrix(0.05,0,0,0.05,62.900000000000006,0)" xlink:href="#aD"/><use transform="matrix(0.05,0,0,0.05,72.9,0)" xlink:href="#aE"/><use transform="matrix(0.05,0,0,0.05,77.9,0)" xlink:href="#bh"/><use transform="matrix(0.05,0,0,0.05,81.85000000000001,0)" xlink:href="#aK"/><use transform="matrix(0.05,0,0,0.05,91.85000000000001,0)" xlink:href="#bl"/></g><g id="N"><use transform="matrix(0.05,0,0,0.05,0,0)" xlink:href="#bF"/><use transform="matrix(0.05,0,0,0.05,12.950000000000001,0)" xlink:href="#aH"/><use transform="matrix(0.05,0,0,0.05,22.950000000000003,0)" xlink:href="#bi"/><use transform="matrix(0.05,0,0,0.05,32.95,0)" xlink:href="#bh"/><use transform="matrix(0.05,0,0,0.05,36.900000000000006,0)" xlink:href="#aO"/><use transform="matrix(0.05,0,0,0.05,45.900000000000006,0)" xlink:href="#aE"/><use transform="matrix(0.05,0,0,0.05,50.900000000000006,0)" xlink:href="#aH"/><use transform="matrix(0.05,0,0,0.05,60.900000000000006,0)" xlink:href="#aJ"/><use transform="matrix(0.05,0,0,0.05,66.85000000000001,0)" xlink:href="#aH"/><use transform="matrix(0.05,0,0,0.05,76.85000000000001,0)" xlink:href="#aL"/><use transform="matrix(0.05,0,0,0.05,86.85000000000001,0)" xlink:href="#aW"/><use transform="matrix(0.05,0,0,0.05,91.85000000000001,0)" xlink:href="#aE"/><use transform="matrix(0.05,0,0,0.05,96.85000000000001,0)" xlink:href="#aH"/><use transform="matrix(0.05,0,0,0.05,106.85000000000001,0)" xlink:href="#bj"/></g><g id="O"><use transform="matrix(0.05,0,0,0.05,0,0)" xlink:href="#bd"/><use transform="matrix(0.05,0,0,0.05,12.950000000000001,0)" xlink:href="#ba"/><use transform="matrix(0.05,0,0,0.05,22.950000000000003,0)" xlink:href="#be"/><use transform="matrix(0.05,0,0,0.05,37.900000000000006,0)" xlink:href="#bc"/></g><path fill="#fff" d="M63-220v92h138v28H63V0H30v-248h175v28H63" id="bH"/><path fill="#fff" d="M84 4C-5 8 30-112 23-190h32v120c0 31 7 50 39 49 72-2 45-101 50-169h31l1 190h-30c-1-10 1-25-2-33-11 22-28 36-60 37" id="bI"/><g id="P"><use transform="matrix(0.05,0,0,0.05,0,0)" xlink:href="#bH"/><use transform="matrix(0.05,0,0,0.05,10.950000000000001,0)" xlink:href="#bc"/><use transform="matrix(0.05,0,0,0.05,20.950000000000003,0)" xlink:href="#ba"/><use transform="matrix(0.05,0,0,0.05,30.950000000000003,0)" xlink:href="#bu"/><use transform="matrix(0.05,0,0,0.05,35.95,0)" xlink:href="#bI"/><use transform="matrix(0.05,0,0,0.05,45.95,0)" xlink:href="#bx"/><use transform="matrix(0.05,0,0,0.05,51.900000000000006,0)" xlink:href="#bc"/></g><g id="Q"><use transform="matrix(0.05,0,0,0.05,0,0)" xlink:href="#bg"/><use transform="matrix(0.05,0,0,0.05,12.950000000000001,0)" xlink:href="#ba"/><use transform="matrix(0.05,0,0,0.05,22.950000000000003,0)" xlink:href="#aZ"/><use transform="matrix(0.05,0,0,0.05,26.900000000000002,0)" xlink:href="#bf"/><use transform="matrix(0.05,0,0,0.05,35.900000000000006,0)" xlink:href="#bf"/><use transform="matrix(0.05,0,0,0.05,44.900000000000006,0)" xlink:href="#bs"/><use transform="matrix(0.05,0,0,0.05,48.85000000000001,0)" xlink:href="#bv"/><use transform="matrix(0.05,0,0,0.05,53.85,0)" xlink:href="#bs"/><use transform="matrix(0.05,0,0,0.05,57.80000000000001,0)" xlink:href="#bb"/><use transform="matrix(0.05,0,0,0.05,66.80000000000001,0)" xlink:href="#ba"/><use transform="matrix(0.05,0,0,0.05,76.80000000000001,0)" xlink:href="#bu"/><use transform="matrix(0.05,0,0,0.05,81.80000000000001,0)" xlink:href="#bs"/><use transform="matrix(0.05,0,0,0.05,85.75000000000001,0)" xlink:href="#br"/><use transform="matrix(0.05,0,0,0.05,95.75000000000001,0)" xlink:href="#bt"/></g><path d="M143 0L79-87 56-68V0H24v-261h32v163l83-92h37l-77 82L181 0h-38" id="bJ"/><g id="R"><use transform="matrix(0.05,0,0,0.05,0,0)" xlink:href="#aO"/><use transform="matrix(0.05,0,0,0.05,9,0)" xlink:href="#bJ"/><use transform="matrix(0.05,0,0,0.05,18,0)" xlink:href="#aK"/><use transform="matrix(0.05,0,0,0.05,28,0)" xlink:href="#aO"/><use transform="matrix(0.05,0,0,0.05,37,0)" xlink:href="#aN"/></g><g id="S"><use transform="matrix(0.05,0,0,0.05,0,0)" xlink:href="#aR"/><use transform="matrix(0.05,0,0,0.05,12.950000000000001,0)" xlink:href="#aK"/><use transform="matrix(0.05,0,0,0.05,22.950000000000003,0)" xlink:href="#bl"/><use transform="matrix(0.05,0,0,0.05,32.95,0)" xlink:href="#aV"/><use transform="matrix(0.05,0,0,0.05,41.95,0)" xlink:href="#aH"/><use transform="matrix(0.05,0,0,0.05,51.95,0)" xlink:href="#aG"/><use transform="matrix(0.05,0,0,0.05,61.95,0)" xlink:href="#aE"/></g><g id="T"><use transform="matrix(0.05,0,0,0.05,0,0)" xlink:href="#aJ"/><use transform="matrix(0.05,0,0,0.05,5.95,0)" xlink:href="#aH"/><use transform="matrix(0.05,0,0,0.05,15.949999999999998,0)" xlink:href="#bi"/><use transform="matrix(0.05,0,0,0.05,25.950000000000003,0)" xlink:href="#aN"/><use transform="matrix(0.05,0,0,0.05,30.950000000000003,0)" xlink:href="#aJ"/><use transform="matrix(0.05,0,0,0.05,36.9,0)" xlink:href="#aH"/><use transform="matrix(0.05,0,0,0.05,46.9,0)" xlink:href="#bi"/><use transform="matrix(0.05,0,0,0.05,56.900000000000006,0)" xlink:href="#bh"/><use transform="matrix(0.05,0,0,0.05,60.85,0)" xlink:href="#aO"/><use transform="matrix(0.05,0,0,0.05,69.85,0)" xlink:href="#aE"/><use transform="matrix(0.05,0,0,0.05,74.85,0)" xlink:href="#aH"/><use transform="matrix(0.05,0,0,0.05,84.85,0)" xlink:href="#aJ"/></g><g id="U"><use transform="matrix(0.05,0,0,0.05,0,0)" xlink:href="#bn"/><use transform="matrix(0.05,0,0,0.05,12.950000000000001,0)" xlink:href="#aD"/><use transform="matrix(0.05,0,0,0.05,22.950000000000003,0)" xlink:href="#aO"/></g><g id="V"><use transform="matrix(0.05,0,0,0.05,0,0)" xlink:href="#bl"/><use transform="matrix(0.05,0,0,0.05,10,0)" xlink:href="#aD"/><use transform="matrix(0.05,0,0,0.05,20,0)" xlink:href="#bj"/><use transform="matrix(0.05,0,0,0.05,34.95,0)" xlink:href="#aH"/><use transform="matrix(0.05,0,0,0.05,44.95,0)" xlink:href="#aL"/></g><g id="W"><use transform="matrix(0.05,0,0,0.05,0,0)" xlink:href="#aQ"/><use transform="matrix(0.05,0,0,0.05,10,0)" xlink:href="#aF"/></g><g id="X"><use transform="matrix(0.05,0,0,0.05,0,0)" xlink:href="#aD"/><use transform="matrix(0.05,0,0,0.05,10,0)" xlink:href="#aL"/><use transform="matrix(0.05,0,0,0.05,20,0)" xlink:href="#bj"/><use transform="matrix(0.05,0,0,0.05,34.95,0)" xlink:href="#aO"/><use transform="matrix(0.05,0,0,0.05,43.95,0)" xlink:href="#aN"/></g><g id="Y"><use transform="matrix(0.05,0,0,0.05,0,0)" xlink:href="#aW"/><use transform="matrix(0.05,0,0,0.05,5,0)" xlink:href="#aL"/><use transform="matrix(0.05,0,0,0.05,15,0)" xlink:href="#aH"/><use transform="matrix(0.05,0,0,0.05,25,0)" xlink:href="#bl"/><use transform="matrix(0.05,0,0,0.05,35,0)" xlink:href="#aE"/><use transform="matrix(0.05,0,0,0.05,40,0)" xlink:href="#bh"/><use transform="matrix(0.05,0,0,0.05,43.95,0)" xlink:href="#aM"/><use transform="matrix(0.05,0,0,0.05,48.95,0)" xlink:href="#bh"/><use transform="matrix(0.05,0,0,0.05,52.900000000000006,0)" xlink:href="#aH"/><use transform="matrix(0.05,0,0,0.05,62.900000000000006,0)" xlink:href="#aJ"/></g><g id="Z"><use transform="matrix(0.05,0,0,0.05,0,0)" xlink:href="#aD"/><use transform="matrix(0.05,0,0,0.05,10,0)" xlink:href="#aL"/><use transform="matrix(0.05,0,0,0.05,20,0)" xlink:href="#bj"/><use transform="matrix(0.05,0,0,0.05,34.95,0)" xlink:href="#aO"/><use transform="matrix(0.05,0,0,0.05,43.95,0)" xlink:href="#aN"/><use transform="matrix(0.05,0,0,0.05,48.95,0)" xlink:href="#bh"/><use transform="matrix(0.05,0,0,0.05,52.900000000000006,0)" xlink:href="#aL"/><use transform="matrix(0.05,0,0,0.05,62.900000000000006,0)" xlink:href="#aH"/><use transform="matrix(0.05,0,0,0.05,72.9,0)" xlink:href="#bl"/><use transform="matrix(0.05,0,0,0.05,82.9,0)" xlink:href="#aE"/><use transform="matrix(0.05,0,0,0.05,87.9,0)" xlink:href="#bh"/><use transform="matrix(0.05,0,0,0.05,91.85000000000001,0)" xlink:href="#aM"/><use transform="matrix(0.05,0,0,0.05,96.85000000000001,0)" xlink:href="#bh"/><use transform="matrix(0.05,0,0,0.05,100.80000000000001,0)" xlink:href="#aH"/><use transform="matrix(0.05,0,0,0.05,110.80000000000001,0)" xlink:href="#aJ"/></g><g id="aa"><use transform="matrix(0.05,0,0,0.05,0,0)" xlink:href="#bq"/><use transform="matrix(0.05,0,0,0.05,10,0)" xlink:href="#aD"/><use transform="matrix(0.05,0,0,0.05,20,0)" xlink:href="#aO"/></g><g id="ab"><use transform="matrix(0.05,0,0,0.05,0,0)" xlink:href="#aM"/><use transform="matrix(0.05,0,0,0.05,5,0)" xlink:href="#aH"/><use transform="matrix(0.05,0,0,0.05,15,0)" xlink:href="#aD"/><use transform="matrix(0.05,0,0,0.05,25,0)" xlink:href="#aE"/><use transform="matrix(0.05,0,0,0.05,30,0)" xlink:href="#aP"/><use transform="matrix(0.05,0,0,0.05,40,0)" xlink:href="#aJ"/><use transform="matrix(0.05,0,0,0.05,45.95,0)" xlink:href="#aH"/></g><g id="ac"><use transform="matrix(0.05,0,0,0.05,0,0)" xlink:href="#aV"/><use transform="matrix(0.05,0,0,0.05,9,0)" xlink:href="#aS"/><use transform="matrix(0.05,0,0,0.05,12.949999999999998,0)" xlink:href="#aD"/><use transform="matrix(0.05,0,0,0.05,22.95,0)" xlink:href="#aO"/><use transform="matrix(0.05,0,0,0.05,31.950000000000003,0)" xlink:href="#aO"/><use transform="matrix(0.05,0,0,0.05,40.95,0)" xlink:href="#bh"/><use transform="matrix(0.05,0,0,0.05,44.900000000000006,0)" xlink:href="#aM"/><use transform="matrix(0.05,0,0,0.05,49.900000000000006,0)" xlink:href="#bh"/><use transform="matrix(0.05,0,0,0.05,53.85,0)" xlink:href="#aV"/><use transform="matrix(0.05,0,0,0.05,62.85,0)" xlink:href="#aD"/><use transform="matrix(0.05,0,0,0.05,72.85000000000001,0)" xlink:href="#aE"/><use transform="matrix(0.05,0,0,0.05,77.85000000000001,0)" xlink:href="#bh"/><use transform="matrix(0.05,0,0,0.05,81.80000000000001,0)" xlink:href="#aK"/><use transform="matrix(0.05,0,0,0.05,91.80000000000001,0)" xlink:href="#bl"/></g><path fill="#fff" d="M153-248C145-148 188 4 80 4 36 3 13-21 6-62l32-5c4 25 16 42 43 43 27 0 39-20 39-49v-147H72v-28h81" id="bK"/><path fill="#fff" d="M85-194c31 0 48 13 60 33l-1-100h32l1 261h-30c-2-10 0-23-3-31C134-8 116 4 85 4 32 4 16-35 15-94c0-66 23-100 70-100zm9 24c-40 0-46 34-46 75 0 40 6 74 45 74 42 0 51-32 51-76 0-42-9-74-50-73" id="bL"/><g id="ad"><use transform="matrix(0.05,0,0,0.05,0,0)" xlink:href="#bK"/><use transform="matrix(0.05,0,0,0.05,9,0)" xlink:href="#bI"/><use transform="matrix(0.05,0,0,0.05,19,0)" xlink:href="#bx"/><use transform="matrix(0.05,0,0,0.05,24.95,0)" xlink:href="#bs"/><use transform="matrix(0.05,0,0,0.05,28.899999999999995,0)" xlink:href="#bf"/><use transform="matrix(0.05,0,0,0.05,37.9,0)" xlink:href="#bL"/><use transform="matrix(0.05,0,0,0.05,47.9,0)" xlink:href="#bs"/><use transform="matrix(0.05,0,0,0.05,51.85,0)" xlink:href="#bb"/><use transform="matrix(0.05,0,0,0.05,60.85,0)" xlink:href="#bu"/><use transform="matrix(0.05,0,0,0.05,65.85,0)" xlink:href="#bs"/><use transform="matrix(0.05,0,0,0.05,69.8,0)" xlink:href="#br"/><use transform="matrix(0.05,0,0,0.05,79.8,0)" xlink:href="#bt"/></g><g id="ae"><use transform="matrix(0.05,0,0,0.05,0,0)" xlink:href="#bi"/><use transform="matrix(0.05,0,0,0.05,10,0)" xlink:href="#aH"/><use transform="matrix(0.05,0,0,0.05,20,0)" xlink:href="#aK"/><use transform="matrix(0.05,0,0,0.05,30,0)" xlink:href="#aM"/><use transform="matrix(0.05,0,0,0.05,35,0)" xlink:href="#aN"/></g><g id="af"><use transform="matrix(0.05,0,0,0.05,0,0)" xlink:href="#aR"/><use transform="matrix(0.05,0,0,0.05,12.950000000000001,0)" xlink:href="#aK"/><use transform="matrix(0.05,0,0,0.05,22.950000000000003,0)" xlink:href="#bl"/><use transform="matrix(0.05,0,0,0.05,32.95,0)" xlink:href="#aE"/><use transform="matrix(0.05,0,0,0.05,37.95,0)" xlink:href="#aJ"/><use transform="matrix(0.05,0,0,0.05,43.900000000000006,0)" xlink:href="#aD"/><use transform="matrix(0.05,0,0,0.05,53.900000000000006,0)" xlink:href="#aV"/><use transform="matrix(0.05,0,0,0.05,62.900000000000006,0)" xlink:href="#aE"/><use transform="matrix(0.05,0,0,0.05,67.9,0)" xlink:href="#aH"/><use transform="matrix(0.05,0,0,0.05,77.9,0)" xlink:href="#aL"/></g><g id="ag"><use transform="matrix(0.05,0,0,0.05,0,0)" xlink:href="#aR"/><use transform="matrix(0.05,0,0,0.05,12.950000000000001,0)" xlink:href="#aD"/><use transform="matrix(0.05,0,0,0.05,22.950000000000003,0)" xlink:href="#aE"/><use transform="matrix(0.05,0,0,0.05,27.950000000000003,0)" xlink:href="#aV"/><use transform="matrix(0.05,0,0,0.05,36.95,0)" xlink:href="#bq"/><use transform="matrix(0.05,0,0,0.05,46.95,0)" xlink:href="#bj"/><use transform="matrix(0.05,0,0,0.05,61.900000000000006,0)" xlink:href="#aH"/><use transform="matrix(0.05,0,0,0.05,71.9,0)" xlink:href="#bl"/><use transform="matrix(0.05,0,0,0.05,81.9,0)" xlink:href="#aE"/></g><g id="ah"><use transform="matrix(0.05,0,0,0.05,0,0)" xlink:href="#aJ"/><use transform="matrix(0.05,0,0,0.05,5.95,0)" xlink:href="#aH"/><use transform="matrix(0.05,0,0,0.05,15.949999999999998,0)" xlink:href="#bi"/><use transform="matrix(0.05,0,0,0.05,25.950000000000003,0)" xlink:href="#aN"/><use transform="matrix(0.05,0,0,0.05,30.950000000000003,0)" xlink:href="#aV"/><use transform="matrix(0.05,0,0,0.05,39.95,0)" xlink:href="#aK"/><use transform="matrix(0.05,0,0,0.05,49.95,0)" xlink:href="#bl"/><use transform="matrix(0.05,0,0,0.05,59.95,0)" xlink:href="#aE"/><use transform="matrix(0.05,0,0,0.05,64.95,0)" xlink:href="#aD"/><use transform="matrix(0.05,0,0,0.05,74.95,0)" xlink:href="#bh"/><use transform="matrix(0.05,0,0,0.05,78.9,0)" xlink:href="#bl"/><use transform="matrix(0.05,0,0,0.05,88.9,0)" xlink:href="#aH"/><use transform="matrix(0.05,0,0,0.05,98.9,0)" xlink:href="#aL"/></g><g id="ai"><use transform="matrix(0.05,0,0,0.05,0,0)" xlink:href="#aW"/><use transform="matrix(0.05,0,0,0.05,5,0)" xlink:href="#aE"/><use transform="matrix(0.05,0,0,0.05,10,0)" xlink:href="#aH"/><use transform="matrix(0.05,0,0,0.05,20,0)" xlink:href="#bj"/><use transform="matrix(0.05,0,0,0.05,34.95,0)" xlink:href="#aR"/><use transform="matrix(0.05,0,0,0.05,47.900000000000006,0)" xlink:href="#aS"/><use transform="matrix(0.05,0,0,0.05,51.85,0)" xlink:href="#aD"/><use transform="matrix(0.05,0,0,0.05,61.85,0)" xlink:href="#aO"/><use transform="matrix(0.05,0,0,0.05,70.85000000000001,0)" xlink:href="#aO"/></g><g id="aj"><use transform="matrix(0.05,0,0,0.05,0,0)" xlink:href="#aG"/><use transform="matrix(0.05,0,0,0.05,10,0)" xlink:href="#aS"/><use transform="matrix(0.05,0,0,0.05,13.949999999999998,0)" xlink:href="#aD"/><use transform="matrix(0.05,0,0,0.05,23.95,0)" xlink:href="#aV"/><use transform="matrix(0.05,0,0,0.05,32.95,0)" xlink:href="#aH"/></g><g id="ak"><use transform="matrix(0.05,0,0,0.05,0,0)" xlink:href="#bl"/><use transform="matrix(0.05,0,0,0.05,10,0)" xlink:href="#aD"/><use transform="matrix(0.05,0,0,0.05,20,0)" xlink:href="#bj"/><use transform="matrix(0.05,0,0,0.05,34.95,0)" xlink:href="#aH"/></g><g id="al"><use transform="matrix(0.05,0,0,0.05,0,0)" xlink:href="#aG"/><use transform="matrix(0.05,0,0,0.05,10,0)" xlink:href="#aS"/><use transform="matrix(0.05,0,0,0.05,13.949999999999998,0)" xlink:href="#aD"/><use transform="matrix(0.05,0,0,0.05,23.95,0)" xlink:href="#aV"/><use transform="matrix(0.05,0,0,0.05,32.95,0)" xlink:href="#aH"/></g><g id="am"><use transform="matrix(0.05,0,0,0.05,0,0)" xlink:href="#bl"/><use transform="matrix(0.05,0,0,0.05,10,0)" xlink:href="#aD"/><use transform="matrix(0.05,0,0,0.05,20,0)" xlink:href="#bj"/><use transform="matrix(0.05,0,0,0.05,34.95,0)" xlink:href="#aH"/></g><g id="an"><use transform="matrix(0.05,0,0,0.05,0,0)" xlink:href="#aK"/><use transform="matrix(0.05,0,0,0.05,10,0)" xlink:href="#aM"/></g></defs></g></svg>