<svg xmlns="http://www.w3.org/2000/svg" xmlns:xlink="http://www.w3.org/1999/xlink" xmlns:lucid="lucid" width="1160" height="660"><g transform="translate(0.15943312666075826 0.1594331266608151)" lucid:page-tab-id="~3emjFSJ_BMR"><path d="M0 0h1159.68v820.4H0z" fill="#fff"/><path d="M959.84 378.68h160v40h-160z" stroke="#000" stroke-width="2" fill="#fff"/><use xlink:href="#a" transform="matrix(1,0,0,1,964.8405668733392,383.6802480071423) translate(2.5749999999999886 18.6)"/><use xlink:href="#b" transform="matrix(1,0,0,1,964.8405668733392,383.6802480071423) translate(79.52499999999999 18.6)"/><path d="M1006.42 460.84h-44.76v-2h44.76zm132.42 0h-45.57v-2h45.57z"/><path d="M1139.84 460.84h-1.03v-2h1.04zM979.53 450.52l-15.76 9.32 15.76 9.32-1.02 1.72-18.66-11.04 18.67-11.04z"/><use xlink:href="#c" transform="matrix(1,0,0,1,1006.4155668733392,449.0405668733392) translate(0.005000000000002558 14.4)"/><path d="M1001.25 519.68h-22.9v-2h22.9zm137.6 0h-9.75v-2h9.74z"/><path d="M1139.84 519.68h-1.03v-2h1.04z"/><path d="M977.34 523.32l-14.26-4.64 14.26-4.64z" fill="#fff"/><path d="M978.34 524.7l-18.5-6.02 18.5-6zm-12.03-6.02l10.04 3.26v-6.52z"/><use xlink:href="#d" transform="matrix(1,0,0,1,1001.2489002066725,507.88024800714237) translate(0.005000000000002558 14.4)"/><path d="M959.84 234.26c0-2.76 2.24-5 5-5h150c2.76 0 5 2.24 5 5v110c0 2.76-2.24 5-5 5h-150c-2.76 0-5-2.24-5-5z" stroke="#000" stroke-width="2" fill="#666"/><use xlink:href="#e" transform="matrix(1,0,0,1,967.8405668733392,237.26040744024078) translate(18.574999999999996 44.8)"/><use xlink:href="#f" transform="matrix(1,0,0,1,967.8405668733392,237.26040744024078) translate(68.525 44.8)"/><use xlink:href="#g" transform="matrix(1,0,0,1,967.8405668733392,237.26040744024078) translate(49.55 66.4)"/><path d="M939.84 24.84c0-2.76 2.24-5 5-5h190c2.76 0 5 2.24 5 5v50c0 2.76-2.24 5-5 5h-190c-2.76 0-5-2.24-5-5z" stroke="#000" stroke-opacity="0" stroke-width="2" fill="#fff" fill-opacity="0"/><use xlink:href="#h" transform="matrix(1,0,0,1,944.8405668733392,24.840566873339185) translate(0 28.6)"/><use xlink:href="#i" transform="matrix(1,0,0,1,944.8405668733392,24.840566873339185) translate(72.80000000000001 28.6)"/><use xlink:href="#j" transform="matrix(1,0,0,1,944.8405668733392,24.840566873339185) translate(143.70000000000002 28.6)"/><path d="M959.84 84.84c0-2.76 2.24-5 5-5h150c2.76 0 5 2.24 5 5v110c0 2.76-2.24 5-5 5h-150c-2.76 0-5-2.24-5-5z" stroke="#000" stroke-width="2" fill="#fff"/><use xlink:href="#k" transform="matrix(1,0,0,1,967.8405668733392,87.84056687333918) translate(33.599999999999994 55.6)"/><path d="M19.84 244.84c0-2.76 2.24-5 5-5h150c2.76 0 5 2.24 5 5v110c0 2.76-2.24 5-5 5h-150c-2.76 0-5-2.24-5-5z" stroke="#000" stroke-width="2" fill="#666"/><use xlink:href="#l" transform="matrix(1,0,0,1,27.84056687333924,247.84056687333918) translate(32.525 55.6)"/><path d="M369.05 44.84c0-2.76 2.24-5 5-5h150c2.76 0 5 2.24 5 5v110c0 2.76-2.24 5-5 5h-150c-2.76 0-5-2.24-5-5z" stroke="#000" stroke-width="2" fill="#fff"/><use xlink:href="#m" transform="matrix(1,0,0,1,377.0522586359612,47.840566873339185) translate(56.525 44.8)"/><use xlink:href="#n" transform="matrix(1,0,0,1,377.0522586359612,47.840566873339185) translate(11.099999999999994 66.4)"/><path d="M369.05 244.84c0-2.76 2.24-5 5-5h150c2.76 0 5 2.24 5 5v110c0 2.76-2.24 5-5 5h-150c-2.76 0-5-2.24-5-5z" stroke="#000" stroke-width="2" fill="#666"/><use xlink:href="#e" transform="matrix(1,0,0,1,377.0522586359612,247.84056687333918) translate(23.074999999999996 55.6)"/><use xlink:href="#o" transform="matrix(1,0,0,1,377.0522586359612,247.84056687333918) translate(73.025 55.6)"/><path d="M449.05 237.84v-58.5" stroke="#000" stroke-width="2" fill="none"/><path d="M450.05 238.84h-2v-1.03h2z"/><path d="M449.05 164.08l4.64 14.26h-9.28z" stroke="#000" stroke-width="2" fill="#fff"/><path d="M229.05 338.84h-46.4v-2h46.4zm138 0h-47.2v-2h47.2z"/><path d="M368.05 338.84h-1.02v-2h1.02zM200.53 328.52l-15.76 9.32 15.76 9.32-1.02 1.72-18.66-11.04 18.67-11.04z"/><use xlink:href="#p" transform="matrix(1,0,0,1,229.04641275465022,327.04056687333895) translate(0 14.4)"/><path d="M579.84 44.84c0-2.76 2.24-5 5-5h150c2.76 0 5 2.24 5 5v110c0 2.76-2.24 5-5 5h-150c-2.76 0-5-2.24-5-5z" stroke="#000" stroke-width="2" fill="#fff"/><use xlink:href="#q" transform="matrix(1,0,0,1,587.8405668733392,47.840566873339185) translate(47.525 44.8)"/><use xlink:href="#r" transform="matrix(1,0,0,1,587.8405668733392,47.840566873339185) translate(37.574999999999996 66.4)"/><path d="M527.38 200.84h-14.7v37h-2v-39h16.7zm133.46 0h-16.7v-2h14.7v-36.18h2z"/><path d="M512.67 238.84h-2v-1.03h2zM670.88 179.5l-1.72 1.03-9.32-15.76-9.32 15.76-1.72-1.02 11.04-18.66z"/><use xlink:href="#s" transform="matrix(1,0,0,1,527.3802055489842,189.04056687333917) translate(0 14.4)"/><path d="M220 269.5h-38.16v-2H220zm146.23-1.33H328.9v-2h37.33z"/><path d="M181.87 269.5h-1.03v-2h1.03zM368.05 267.17l-18.67 11.05-1.02-1.73 15.76-9.33-15.76-9.32 1.02-1.72z"/><use xlink:href="#t" transform="matrix(1,0,0,1,219.99641275465024,246.24056687333896) translate(0.005000000000002558 14.4)"/><use xlink:href="#u" transform="matrix(1,0,0,1,219.99641275465024,246.24056687333896) translate(14.530000000000001 36)"/><path d="M560.2 330.84h-28.33v-2h28.34zm156.06 0H687.1v-2h29.16z"/><path d="M717.26 330.84h-1.02v-2h1.02zM549.74 320.52l-15.76 9.32 15.76 9.32-1.02 1.72-18.67-11.04 18.67-11.04z"/><use xlink:href="#v" transform="matrix(1,0,0,1,560.2081045172721,319.04056687333895) translate(0 14.4)"/><use xlink:href="#w" transform="matrix(1,0,0,1,560.2081045172721,319.04056687333895) translate(34 14.4)"/><use xlink:href="#x" transform="matrix(1,0,0,1,560.2081045172721,319.04056687333895) translate(81.95 14.4)"/><path d="M567.2 268.17h-36.15v-2h36.16zm148.25 0H680.1v-2h35.35z"/><path d="M531.08 268.17h-1.03v-2h1.03zM717.26 267.17l-18.67 11.05-1.02-1.73 15.76-9.33-15.76-9.32 1-1.72z"/><use xlink:href="#y" transform="matrix(1,0,0,1,567.2081045172721,256.3739002066722) translate(0 14.4)"/><use xlink:href="#z" transform="matrix(1,0,0,1,567.2081045172721,256.3739002066722) translate(47.95 14.4)"/><use xlink:href="#A" transform="matrix(1,0,0,1,567.2081045172721,256.3739002066722) translate(97.9 14.4)"/><path d="M718.26 244.84c0-2.76 2.24-5 5-5h150c2.77 0 5 2.24 5 5v110c0 2.76-2.23 5-5 5h-150c-2.76 0-5-2.24-5-5z" stroke="#000" stroke-width="2" fill="#fff"/><use xlink:href="#B" transform="matrix(1,0,0,1,726.2639503985831,247.84056687333918) translate(54.5 44.8)"/><use xlink:href="#C" transform="matrix(1,0,0,1,726.2639503985831,247.84056687333918) translate(41.05 66.4)"/><path d="M158.26 44.84c0-2.76 2.24-5 5-5h150c2.77 0 5 2.24 5 5v110c0 2.76-2.23 5-5 5h-150c-2.76 0-5-2.24-5-5z" stroke="#000" stroke-width="2" fill="#fff"/><use xlink:href="#m" transform="matrix(1,0,0,1,166.26395039858318,47.840566873339185) translate(56.525 44.8)"/><use xlink:href="#D" transform="matrix(1,0,0,1,166.26395039858318,47.840566873339185) translate(46.5 66.4)"/><path d="M394.17 198.84v39h-2v-37H355.2v-2zm-117.93 0v2h-38.98v-38.18h2v36.18z"/><path d="M394.17 238.84h-2v-1.03h2zM249.3 179.5l-1.72 1.03-9.32-15.76-9.32 15.76-1.72-1.02 11.04-18.66z"/><use xlink:href="#E" transform="matrix(1,0,0,1,276.2439253026279,189.04056687333917) translate(0 14.4)"/><path d="M450.05 518.52h-2v-31.88h2zm0-53.48h-2v-103.2h2z"/><path d="M450.05 361.87h-2v-1.03h2zM449.05 516.4l9.32-15.75 1.72 1.02-11.05 18.67L438 501.67l1.73-1.02z"/><use xlink:href="#F" transform="matrix(1,0,0,1,391.1022586359612,465.04056687333895) translate(0 14.4)"/><use xlink:href="#G" transform="matrix(1,0,0,1,391.1022586359612,465.04056687333895) translate(36.95 14.4)"/><use xlink:href="#H" transform="matrix(1,0,0,1,391.1022586359612,465.04056687333895) translate(96.9 14.4)"/><path d="M369.05 571.36c0-2.76 1.94-6.13 4.32-7.5l71.36-41.5c2.4-1.4 6.26-1.4 8.64 0l71.36 41.5c2.4 1.37 4.32 4.74 4.32 7.5v63.48c0 2.76-2.24 5-5 5h-150c-2.76 0-5-2.24-5-5z" stroke="#000" stroke-width="2" fill="#666"/><g><use xlink:href="#I" transform="matrix(1,0,0,1,369.0522586359612,519.8405668733392) translate(35.1 63.6)"/></g><path d="M718.26 429.26h160v40h-160z" stroke="#000" stroke-width="2" fill="#fff"/><g><use xlink:href="#J" transform="matrix(1,0,0,1,723.2639503985831,434.2604074402408) translate(36.55 18.6)"/></g><path d="M520.84 448.26h20.88v2h-22.88v-88.42h2zm194.6 0v2h-65.87v-2z"/><path d="M520.84 361.87h-2v-1.03h2zM717.26 449.26L698.6 460.3l-1.02-1.72 15.76-9.32-15.76-9.32 1-1.72z"/><g><use xlink:href="#K" transform="matrix(1,0,0,1,541.7153401672814,438.4604074402408) translate(0 14.4)"/></g><path d="M19.84 429.26h160v40h-160z" stroke="#000" stroke-width="2" fill="#fff"/><g><use xlink:href="#J" transform="matrix(1,0,0,1,24.84056687333924,434.2604074402408) translate(36.55 18.6)"/></g><path d="M243.66 450.26h-61v-2h61zm146.5 0h-19.6v-2h17.6v-86.42h2z"/><path d="M390.17 361.87h-2v-1.03h2zM200.53 439.94l-15.76 9.32 15.76 9.32-1.02 1.72-18.66-11.04 18.67-11.04z"/><g><use xlink:href="#v" transform="matrix(1,0,0,1,243.65625839698743,438.4604074402408) translate(0 14.4)"/><use xlink:href="#w" transform="matrix(1,0,0,1,243.65625839698743,438.4604074402408) translate(34 14.4)"/><use xlink:href="#x" transform="matrix(1,0,0,1,243.65625839698743,438.4604074402408) translate(81.95 14.4)"/></g><defs><path d="M30-248c118-7 216 8 213 122C240-48 200 0 122 0H30v-248zM63-27c89 8 146-16 146-99s-60-101-146-95v194" id="L"/><path d="M141-36C126-15 110 5 73 4 37 3 15-17 15-53c-1-64 63-63 125-63 3-35-9-54-41-54-24 1-41 7-42 31l-33-3c5-37 33-52 76-52 45 0 72 20 72 64v82c-1 20 7 32 28 27v20c-31 9-61-2-59-35zM48-53c0 20 12 33 32 33 41-3 63-29 60-74-43 2-92-5-92 41" id="M"/><path d="M59-47c-2 24 18 29 38 22v24C64 9 27 4 27-40v-127H5v-23h24l9-43h21v43h35v23H59v120" id="N"/><path d="M179-190L93 31C79 59 56 82 12 73V49c39 6 53-20 64-50L1-190h34L92-34l54-156h33" id="O"/><path d="M115-194c55 1 70 41 70 98S169 2 115 4C84 4 66-9 55-30l1 105H24l-1-265h31l2 30c10-21 28-34 59-34zm-8 174c40 0 45-34 45-75s-6-73-45-74c-42 0-51 32-51 76 0 43 10 73 51 73" id="P"/><path d="M100-194c63 0 86 42 84 106H49c0 40 14 67 53 68 26 1 43-12 49-29l28 8c-11 28-37 45-77 45C44 4 14-33 15-96c1-61 26-98 85-98zm52 81c6-60-76-77-97-28-3 7-6 17-6 28h103" id="Q"/><g id="a"><use transform="matrix(0.05,0,0,0.05,0,0)" xlink:href="#L"/><use transform="matrix(0.05,0,0,0.05,12.950000000000001,0)" xlink:href="#M"/><use transform="matrix(0.05,0,0,0.05,22.950000000000003,0)" xlink:href="#N"/><use transform="matrix(0.05,0,0,0.05,27.950000000000003,0)" xlink:href="#M"/><use transform="matrix(0.05,0,0,0.05,37.95,0)" xlink:href="#N"/><use transform="matrix(0.05,0,0,0.05,42.95,0)" xlink:href="#O"/><use transform="matrix(0.05,0,0,0.05,51.95,0)" xlink:href="#P"/><use transform="matrix(0.05,0,0,0.05,61.95,0)" xlink:href="#Q"/></g><path d="M30-248c87 1 191-15 191 75 0 78-77 80-158 76V0H30v-248zm33 125c57 0 124 11 124-50 0-59-68-47-124-48v98" id="R"/><path d="M114-163C36-179 61-72 57 0H25l-1-190h30c1 12-1 29 2 39 6-27 23-49 58-41v29" id="S"/><path d="M100-194c62-1 85 37 85 99 1 63-27 99-86 99S16-35 15-95c0-66 28-99 85-99zM99-20c44 1 53-31 53-75 0-43-8-75-51-75s-53 32-53 75 10 74 51 75" id="T"/><g id="b"><use transform="matrix(0.05,0,0,0.05,0,0)" xlink:href="#R"/><use transform="matrix(0.05,0,0,0.05,12,0)" xlink:href="#S"/><use transform="matrix(0.05,0,0,0.05,17.95,0)" xlink:href="#T"/><use transform="matrix(0.05,0,0,0.05,27.950000000000003,0)" xlink:href="#P"/><use transform="matrix(0.05,0,0,0.05,37.95,0)" xlink:href="#Q"/><use transform="matrix(0.05,0,0,0.05,47.95,0)" xlink:href="#S"/><use transform="matrix(0.05,0,0,0.05,53.900000000000006,0)" xlink:href="#N"/><use transform="matrix(0.05,0,0,0.05,58.900000000000006,0)" xlink:href="#O"/></g><path d="M85-194c31 0 48 13 60 33l-1-100h32l1 261h-30c-2-10 0-23-3-31C134-8 116 4 85 4 32 4 16-35 15-94c0-66 23-100 70-100zm9 24c-40 0-46 34-46 75 0 40 6 74 45 74 42 0 51-32 51-76 0-42-9-74-50-73" id="U"/><path d="M101-234c-31-9-42 10-38 44h38v23H63V0H32v-167H5v-23h27c-7-52 17-82 69-68v24" id="V"/><path d="M33-154v-36h34v36H33zM33 0v-36h34V0H33" id="W"/><g id="c"><use transform="matrix(0.05,0,0,0.05,0,0)" xlink:href="#S"/><use transform="matrix(0.05,0,0,0.05,5.95,0)" xlink:href="#U"/><use transform="matrix(0.05,0,0,0.05,15.949999999999998,0)" xlink:href="#V"/><use transform="matrix(0.05,0,0,0.05,20.95,0)" xlink:href="#W"/><use transform="matrix(0.05,0,0,0.05,25.950000000000003,0)" xlink:href="#P"/><use transform="matrix(0.05,0,0,0.05,35.95,0)" xlink:href="#S"/><use transform="matrix(0.05,0,0,0.05,41.900000000000006,0)" xlink:href="#T"/><use transform="matrix(0.05,0,0,0.05,51.900000000000006,0)" xlink:href="#P"/><use transform="matrix(0.05,0,0,0.05,61.900000000000006,0)" xlink:href="#Q"/><use transform="matrix(0.05,0,0,0.05,71.9,0)" xlink:href="#S"/><use transform="matrix(0.05,0,0,0.05,77.85000000000001,0)" xlink:href="#O"/></g><path d="M135-143c-3-34-86-38-87 0 15 53 115 12 119 90S17 21 10-45l28-5c4 36 97 45 98 0-10-56-113-15-118-90-4-57 82-63 122-42 12 7 21 19 24 35" id="X"/><path d="M84 4C-5 8 30-112 23-190h32v120c0 31 7 50 39 49 72-2 45-101 50-169h31l1 190h-30c-1-10 1-25-2-33-11 22-28 36-60 37" id="Y"/><path d="M115-194c53 0 69 39 70 98 0 66-23 100-70 100C84 3 66-7 56-30L54 0H23l1-261h32v101c10-23 28-34 59-34zm-8 174c40 0 45-34 45-75 0-40-5-75-45-74-42 0-51 32-51 76 0 43 10 73 51 73" id="Z"/><path d="M212-179c-10-28-35-45-73-45-59 0-87 40-87 99 0 60 29 101 89 101 43 0 62-24 78-52l27 14C228-24 195 4 139 4 59 4 22-46 18-125c-6-104 99-153 187-111 19 9 31 26 39 46" id="aa"/><path d="M24 0v-261h32V0H24" id="ab"/><path d="M140-251c81 0 123 46 123 126C263-46 219 4 140 4 59 4 17-45 17-125s42-126 123-126zm0 227c63 0 89-41 89-101s-29-99-89-99c-61 0-89 39-89 99S79-25 140-24" id="ac"/><g id="d"><use transform="matrix(0.05,0,0,0.05,0,0)" xlink:href="#S"/><use transform="matrix(0.05,0,0,0.05,5.95,0)" xlink:href="#U"/><use transform="matrix(0.05,0,0,0.05,15.949999999999998,0)" xlink:href="#V"/><use transform="matrix(0.05,0,0,0.05,20.95,0)" xlink:href="#X"/><use transform="matrix(0.05,0,0,0.05,29.950000000000003,0)" xlink:href="#W"/><use transform="matrix(0.05,0,0,0.05,34.95,0)" xlink:href="#X"/><use transform="matrix(0.05,0,0,0.05,43.95,0)" xlink:href="#Y"/><use transform="matrix(0.05,0,0,0.05,53.95,0)" xlink:href="#Z"/><use transform="matrix(0.05,0,0,0.05,63.95,0)" xlink:href="#aa"/><use transform="matrix(0.05,0,0,0.05,76.9,0)" xlink:href="#ab"/><use transform="matrix(0.05,0,0,0.05,80.85000000000001,0)" xlink:href="#M"/><use transform="matrix(0.05,0,0,0.05,90.85000000000001,0)" xlink:href="#X"/><use transform="matrix(0.05,0,0,0.05,99.85000000000001,0)" xlink:href="#X"/><use transform="matrix(0.05,0,0,0.05,108.85000000000001,0)" xlink:href="#ac"/><use transform="matrix(0.05,0,0,0.05,122.85000000000001,0)" xlink:href="#V"/></g><path fill="#fff" d="M30-248c87 1 191-15 191 75 0 78-77 80-158 76V0H30v-248zm33 125c57 0 124 11 124-50 0-59-68-47-124-48v98" id="ad"/><path fill="#fff" d="M24 0v-261h32V0H24" id="ae"/><path fill="#fff" d="M141-36C126-15 110 5 73 4 37 3 15-17 15-53c-1-64 63-63 125-63 3-35-9-54-41-54-24 1-41 7-42 31l-33-3c5-37 33-52 76-52 45 0 72 20 72 64v82c-1 20 7 32 28 27v20c-31 9-61-2-59-35zM48-53c0 20 12 33 32 33 41-3 63-29 60-74-43 2-92-5-92 41" id="af"/><path fill="#fff" d="M96-169c-40 0-48 33-48 73s9 75 48 75c24 0 41-14 43-38l32 2c-6 37-31 61-74 61-59 0-76-41-82-99-10-93 101-131 147-64 4 7 5 14 7 22l-32 3c-4-21-16-35-41-35" id="ag"/><path fill="#fff" d="M100-194c63 0 86 42 84 106H49c0 40 14 67 53 68 26 1 43-12 49-29l28 8c-11 28-37 45-77 45C44 4 14-33 15-96c1-61 26-98 85-98zm52 81c6-60-76-77-97-28-3 7-6 17-6 28h103" id="ah"/><g id="e"><use transform="matrix(0.05,0,0,0.05,0,0)" xlink:href="#ad"/><use transform="matrix(0.05,0,0,0.05,12,0)" xlink:href="#ae"/><use transform="matrix(0.05,0,0,0.05,15.949999999999998,0)" xlink:href="#af"/><use transform="matrix(0.05,0,0,0.05,25.950000000000003,0)" xlink:href="#ag"/><use transform="matrix(0.05,0,0,0.05,34.95,0)" xlink:href="#ah"/></g><path fill="#fff" d="M190 0L58-211 59 0H30v-248h39L202-35l-2-213h31V0h-41" id="ai"/><path fill="#fff" d="M210-169c-67 3-38 105-44 169h-31v-121c0-29-5-50-35-48C34-165 62-65 56 0H25l-1-190h30c1 10-1 24 2 32 10-44 99-50 107 0 11-21 27-35 58-36 85-2 47 119 55 194h-31v-121c0-29-5-49-35-48" id="aj"/><path fill="#fff" d="M135-143c-3-34-86-38-87 0 15 53 115 12 119 90S17 21 10-45l28-5c4 36 97 45 98 0-10-56-113-15-118-90-4-57 82-63 122-42 12 7 21 19 24 35" id="ak"/><g id="f"><use transform="matrix(0.05,0,0,0.05,0,0)" xlink:href="#ai"/><use transform="matrix(0.05,0,0,0.05,12.950000000000001,0)" xlink:href="#af"/><use transform="matrix(0.05,0,0,0.05,22.950000000000003,0)" xlink:href="#aj"/><use transform="matrix(0.05,0,0,0.05,37.900000000000006,0)" xlink:href="#ah"/><use transform="matrix(0.05,0,0,0.05,47.900000000000006,0)" xlink:href="#ak"/></g><path fill="#fff" d="M212-179c-10-28-35-45-73-45-59 0-87 40-87 99 0 60 29 101 89 101 43 0 62-24 78-52l27 14C228-24 195 4 139 4 59 4 22-46 18-125c-6-104 99-153 187-111 19 9 31 26 39 46" id="al"/><g id="g"><use transform="matrix(0.05,0,0,0.05,0,0)" xlink:href="#al"/><use transform="matrix(0.05,0,0,0.05,12.950000000000001,0)" xlink:href="#ae"/><use transform="matrix(0.05,0,0,0.05,16.900000000000002,0)" xlink:href="#af"/><use transform="matrix(0.05,0,0,0.05,26.900000000000002,0)" xlink:href="#ak"/><use transform="matrix(0.05,0,0,0.05,35.900000000000006,0)" xlink:href="#ak"/></g><path d="M24-231v-30h32v30H24zM24 0v-190h32V0H24" id="am"/><path d="M177-190C167-65 218 103 67 71c-23-6-38-20-44-43l32-5c15 47 100 32 89-28v-30C133-14 115 1 83 1 29 1 15-40 15-95c0-56 16-97 71-98 29-1 48 16 59 35 1-10 0-23 2-32h30zM94-22c36 0 50-32 50-73 0-42-14-75-50-75-39 0-46 34-46 75s6 73 46 73" id="an"/><path d="M210-169c-67 3-38 105-44 169h-31v-121c0-29-5-50-35-48C34-165 62-65 56 0H25l-1-190h30c1 10-1 24 2 32 10-44 99-50 107 0 11-21 27-35 58-36 85-2 47 119 55 194h-31v-121c0-29-5-49-35-48" id="ao"/><g id="h"><use transform="matrix(0.05,0,0,0.05,0,0)" xlink:href="#L"/><use transform="matrix(0.05,0,0,0.05,12.950000000000001,0)" xlink:href="#am"/><use transform="matrix(0.05,0,0,0.05,16.900000000000002,0)" xlink:href="#M"/><use transform="matrix(0.05,0,0,0.05,26.900000000000002,0)" xlink:href="#an"/><use transform="matrix(0.05,0,0,0.05,36.900000000000006,0)" xlink:href="#S"/><use transform="matrix(0.05,0,0,0.05,42.85000000000001,0)" xlink:href="#M"/><use transform="matrix(0.05,0,0,0.05,52.85,0)" xlink:href="#ao"/><path d="M-.9 1.25h74.6v1.32H-.9z"/></g><path d="M30 0v-248h187v28H63v79h144v27H63v87h162V0H30" id="ap"/><path d="M117-194c89-4 53 116 60 194h-32v-121c0-31-8-49-39-48C34-167 62-67 57 0H25l-1-190h30c1 10-1 24 2 32 11-22 29-35 61-36" id="aq"/><g id="i"><use transform="matrix(0.05,0,0,0.05,0,0)" xlink:href="#ap"/><use transform="matrix(0.05,0,0,0.05,12,0)" xlink:href="#ab"/><use transform="matrix(0.05,0,0,0.05,15.949999999999998,0)" xlink:href="#Q"/><use transform="matrix(0.05,0,0,0.05,25.950000000000003,0)" xlink:href="#ao"/><use transform="matrix(0.05,0,0,0.05,40.9,0)" xlink:href="#Q"/><use transform="matrix(0.05,0,0,0.05,50.9,0)" xlink:href="#aq"/><use transform="matrix(0.05,0,0,0.05,60.900000000000006,0)" xlink:href="#N"/><path d="M-.9 1.25h72.7v1.32H-.9z"/></g><path d="M194 0L95-120 63-95V0H30v-248h33v124l119-124h40L117-140 236 0h-42" id="ar"/><g id="j"><use transform="matrix(0.05,0,0,0.05,0,0)" xlink:href="#ar"/><use transform="matrix(0.05,0,0,0.05,12,0)" xlink:href="#Q"/><use transform="matrix(0.05,0,0,0.05,22,0)" xlink:href="#O"/><path d="M-.9 1.25h32.8v1.32H-.9z"/></g><path d="M206 0h-36l-40-164L89 0H53L-1-190h32L70-26l43-164h34l41 164 42-164h31" id="as"/><g id="k"><use transform="matrix(0.05,0,0,0.05,0,0)" xlink:href="#T"/><use transform="matrix(0.05,0,0,0.05,10,0)" xlink:href="#as"/><use transform="matrix(0.05,0,0,0.05,22.950000000000003,0)" xlink:href="#ab"/><use transform="matrix(0.05,0,0,0.05,26.900000000000002,0)" xlink:href="#W"/><use transform="matrix(0.05,0,0,0.05,31.900000000000002,0)" xlink:href="#aa"/><use transform="matrix(0.05,0,0,0.05,44.85,0)" xlink:href="#ab"/><use transform="matrix(0.05,0,0,0.05,48.800000000000004,0)" xlink:href="#M"/><use transform="matrix(0.05,0,0,0.05,58.800000000000004,0)" xlink:href="#X"/><use transform="matrix(0.05,0,0,0.05,67.80000000000001,0)" xlink:href="#X"/></g><path fill="#fff" d="M143 4C61 4 22-44 18-125c-5-107 100-154 193-111 17 8 29 25 37 43l-32 9c-13-25-37-40-76-40-61 0-88 39-88 99 0 61 29 100 91 101 35 0 62-11 79-27v-45h-74v-28h105v86C228-13 192 4 143 4" id="at"/><path fill="#fff" d="M9 0v-24l116-142H16v-24h144v24L44-24h123V0H9" id="au"/><path fill="#fff" d="M59-47c-2 24 18 29 38 22v24C64 9 27 4 27-40v-127H5v-23h24l9-43h21v43h35v23H59v120" id="av"/><path fill="#fff" d="M114-163C36-179 61-72 57 0H25l-1-190h30c1 12-1 29 2 39 6-27 23-49 58-41v29" id="aw"/><g id="l"><use transform="matrix(0.05,0,0,0.05,0,0)" xlink:href="#at"/><use transform="matrix(0.05,0,0,0.05,14,0)" xlink:href="#af"/><use transform="matrix(0.05,0,0,0.05,24,0)" xlink:href="#au"/><use transform="matrix(0.05,0,0,0.05,33,0)" xlink:href="#ah"/><use transform="matrix(0.05,0,0,0.05,43,0)" xlink:href="#av"/><use transform="matrix(0.05,0,0,0.05,48,0)" xlink:href="#av"/><use transform="matrix(0.05,0,0,0.05,53,0)" xlink:href="#ah"/><use transform="matrix(0.05,0,0,0.05,63,0)" xlink:href="#ah"/><use transform="matrix(0.05,0,0,0.05,73,0)" xlink:href="#aw"/></g><g id="m"><use transform="matrix(0.05,0,0,0.05,0,0)" xlink:href="#S"/><use transform="matrix(0.05,0,0,0.05,5.95,0)" xlink:href="#Q"/><use transform="matrix(0.05,0,0,0.05,15.949999999999998,0)" xlink:href="#an"/><use transform="matrix(0.05,0,0,0.05,25.950000000000003,0)" xlink:href="#W"/></g><path d="M233-177c-1 41-23 64-60 70L243 0h-38l-65-103H63V0H30v-248c88 3 205-21 203 71zM63-129c60-2 137 13 137-47 0-61-80-42-137-45v92" id="ax"/><path d="M33 0v-248h34V0H33" id="ay"/><g id="n"><use transform="matrix(0.05,0,0,0.05,0,0)" xlink:href="#ax"/><use transform="matrix(0.05,0,0,0.05,12.950000000000001,0)" xlink:href="#Q"/><use transform="matrix(0.05,0,0,0.05,22.950000000000003,0)" xlink:href="#an"/><use transform="matrix(0.05,0,0,0.05,32.95,0)" xlink:href="#am"/><use transform="matrix(0.05,0,0,0.05,36.900000000000006,0)" xlink:href="#X"/><use transform="matrix(0.05,0,0,0.05,45.900000000000006,0)" xlink:href="#N"/><use transform="matrix(0.05,0,0,0.05,50.900000000000006,0)" xlink:href="#Q"/><use transform="matrix(0.05,0,0,0.05,60.900000000000006,0)" xlink:href="#S"/><use transform="matrix(0.05,0,0,0.05,66.85000000000001,0)" xlink:href="#Q"/><use transform="matrix(0.05,0,0,0.05,76.85000000000001,0)" xlink:href="#U"/><use transform="matrix(0.05,0,0,0.05,86.85000000000001,0)" xlink:href="#ay"/><use transform="matrix(0.05,0,0,0.05,91.85000000000001,0)" xlink:href="#N"/><use transform="matrix(0.05,0,0,0.05,96.85000000000001,0)" xlink:href="#Q"/><use transform="matrix(0.05,0,0,0.05,106.85000000000001,0)" xlink:href="#ao"/></g><g id="o"><use transform="matrix(0.05,0,0,0.05,0,0)" xlink:href="#ai"/><use transform="matrix(0.05,0,0,0.05,12.950000000000001,0)" xlink:href="#af"/><use transform="matrix(0.05,0,0,0.05,22.950000000000003,0)" xlink:href="#aj"/><use transform="matrix(0.05,0,0,0.05,37.900000000000006,0)" xlink:href="#ah"/></g><g id="p"><use transform="matrix(0.05,0,0,0.05,0,0)" xlink:href="#S"/><use transform="matrix(0.05,0,0,0.05,5.95,0)" xlink:href="#Q"/><use transform="matrix(0.05,0,0,0.05,15.949999999999998,0)" xlink:href="#an"/><use transform="matrix(0.05,0,0,0.05,25.950000000000003,0)" xlink:href="#W"/><use transform="matrix(0.05,0,0,0.05,30.950000000000003,0)" xlink:href="#S"/><use transform="matrix(0.05,0,0,0.05,36.9,0)" xlink:href="#Q"/><use transform="matrix(0.05,0,0,0.05,46.9,0)" xlink:href="#an"/><use transform="matrix(0.05,0,0,0.05,56.900000000000006,0)" xlink:href="#am"/><use transform="matrix(0.05,0,0,0.05,60.85,0)" xlink:href="#X"/><use transform="matrix(0.05,0,0,0.05,69.85,0)" xlink:href="#N"/><use transform="matrix(0.05,0,0,0.05,74.85,0)" xlink:href="#Q"/><use transform="matrix(0.05,0,0,0.05,84.85,0)" xlink:href="#S"/></g><g id="q"><use transform="matrix(0.05,0,0,0.05,0,0)" xlink:href="#M"/><use transform="matrix(0.05,0,0,0.05,10,0)" xlink:href="#U"/><use transform="matrix(0.05,0,0,0.05,20,0)" xlink:href="#ao"/><use transform="matrix(0.05,0,0,0.05,34.95,0)" xlink:href="#X"/><use transform="matrix(0.05,0,0,0.05,43.95,0)" xlink:href="#W"/></g><g id="r"><use transform="matrix(0.05,0,0,0.05,0,0)" xlink:href="#ay"/><use transform="matrix(0.05,0,0,0.05,5,0)" xlink:href="#U"/><use transform="matrix(0.05,0,0,0.05,15,0)" xlink:href="#Q"/><use transform="matrix(0.05,0,0,0.05,25,0)" xlink:href="#aq"/><use transform="matrix(0.05,0,0,0.05,35,0)" xlink:href="#N"/><use transform="matrix(0.05,0,0,0.05,40,0)" xlink:href="#am"/><use transform="matrix(0.05,0,0,0.05,43.95,0)" xlink:href="#V"/><use transform="matrix(0.05,0,0,0.05,48.95,0)" xlink:href="#am"/><use transform="matrix(0.05,0,0,0.05,52.900000000000006,0)" xlink:href="#Q"/><use transform="matrix(0.05,0,0,0.05,62.900000000000006,0)" xlink:href="#S"/></g><g id="s"><use transform="matrix(0.05,0,0,0.05,0,0)" xlink:href="#M"/><use transform="matrix(0.05,0,0,0.05,10,0)" xlink:href="#U"/><use transform="matrix(0.05,0,0,0.05,20,0)" xlink:href="#ao"/><use transform="matrix(0.05,0,0,0.05,34.95,0)" xlink:href="#X"/><use transform="matrix(0.05,0,0,0.05,43.95,0)" xlink:href="#W"/><use transform="matrix(0.05,0,0,0.05,48.95,0)" xlink:href="#am"/><use transform="matrix(0.05,0,0,0.05,52.900000000000006,0)" xlink:href="#U"/><use transform="matrix(0.05,0,0,0.05,62.900000000000006,0)" xlink:href="#Q"/><use transform="matrix(0.05,0,0,0.05,72.9,0)" xlink:href="#aq"/><use transform="matrix(0.05,0,0,0.05,82.9,0)" xlink:href="#N"/><use transform="matrix(0.05,0,0,0.05,87.9,0)" xlink:href="#am"/><use transform="matrix(0.05,0,0,0.05,91.85000000000001,0)" xlink:href="#V"/><use transform="matrix(0.05,0,0,0.05,96.85000000000001,0)" xlink:href="#am"/><use transform="matrix(0.05,0,0,0.05,100.80000000000001,0)" xlink:href="#Q"/><use transform="matrix(0.05,0,0,0.05,110.80000000000001,0)" xlink:href="#S"/></g><path d="M96-169c-40 0-48 33-48 73s9 75 48 75c24 0 41-14 43-38l32 2c-6 37-31 61-74 61-59 0-76-41-82-99-10-93 101-131 147-64 4 7 5 14 7 22l-32 3c-4-21-16-35-41-35" id="az"/><g id="t"><use transform="matrix(0.05,0,0,0.05,0,0)" xlink:href="#S"/><use transform="matrix(0.05,0,0,0.05,5.95,0)" xlink:href="#Q"/><use transform="matrix(0.05,0,0,0.05,15.949999999999998,0)" xlink:href="#an"/><use transform="matrix(0.05,0,0,0.05,25.950000000000003,0)" xlink:href="#W"/><use transform="matrix(0.05,0,0,0.05,30.950000000000003,0)" xlink:href="#az"/><use transform="matrix(0.05,0,0,0.05,39.95,0)" xlink:href="#T"/><use transform="matrix(0.05,0,0,0.05,49.95,0)" xlink:href="#aq"/><use transform="matrix(0.05,0,0,0.05,59.95,0)" xlink:href="#N"/><use transform="matrix(0.05,0,0,0.05,64.95,0)" xlink:href="#M"/><use transform="matrix(0.05,0,0,0.05,74.95,0)" xlink:href="#am"/><use transform="matrix(0.05,0,0,0.05,78.9,0)" xlink:href="#aq"/><use transform="matrix(0.05,0,0,0.05,88.9,0)" xlink:href="#Q"/><use transform="matrix(0.05,0,0,0.05,98.9,0)" xlink:href="#U"/></g><g id="u"><use transform="matrix(0.05,0,0,0.05,0,0)" xlink:href="#ay"/><use transform="matrix(0.05,0,0,0.05,5,0)" xlink:href="#N"/><use transform="matrix(0.05,0,0,0.05,10,0)" xlink:href="#Q"/><use transform="matrix(0.05,0,0,0.05,20,0)" xlink:href="#ao"/><use transform="matrix(0.05,0,0,0.05,34.95,0)" xlink:href="#aa"/><use transform="matrix(0.05,0,0,0.05,47.900000000000006,0)" xlink:href="#ab"/><use transform="matrix(0.05,0,0,0.05,51.85,0)" xlink:href="#M"/><use transform="matrix(0.05,0,0,0.05,61.85,0)" xlink:href="#X"/><use transform="matrix(0.05,0,0,0.05,70.85000000000001,0)" xlink:href="#X"/></g><path d="M106-169C34-169 62-67 57 0H25v-261h32l-1 103c12-21 28-36 61-36 89 0 53 116 60 194h-32v-121c2-32-8-49-39-48" id="aA"/><g id="v"><use transform="matrix(0.05,0,0,0.05,0,0)" xlink:href="#aA"/><use transform="matrix(0.05,0,0,0.05,10,0)" xlink:href="#M"/><use transform="matrix(0.05,0,0,0.05,20,0)" xlink:href="#X"/></g><g id="w"><use transform="matrix(0.05,0,0,0.05,0,0)" xlink:href="#P"/><use transform="matrix(0.05,0,0,0.05,10,0)" xlink:href="#ab"/><use transform="matrix(0.05,0,0,0.05,13.949999999999998,0)" xlink:href="#M"/><use transform="matrix(0.05,0,0,0.05,23.95,0)" xlink:href="#az"/><use transform="matrix(0.05,0,0,0.05,32.95,0)" xlink:href="#Q"/></g><g id="x"><use transform="matrix(0.05,0,0,0.05,0,0)" xlink:href="#aq"/><use transform="matrix(0.05,0,0,0.05,10,0)" xlink:href="#M"/><use transform="matrix(0.05,0,0,0.05,20,0)" xlink:href="#ao"/><use transform="matrix(0.05,0,0,0.05,34.95,0)" xlink:href="#Q"/></g><g id="y"><use transform="matrix(0.05,0,0,0.05,0,0)" xlink:href="#P"/><use transform="matrix(0.05,0,0,0.05,10,0)" xlink:href="#ab"/><use transform="matrix(0.05,0,0,0.05,13.949999999999998,0)" xlink:href="#M"/><use transform="matrix(0.05,0,0,0.05,23.95,0)" xlink:href="#az"/><use transform="matrix(0.05,0,0,0.05,32.95,0)" xlink:href="#Q"/></g><g id="z"><use transform="matrix(0.05,0,0,0.05,0,0)" xlink:href="#aq"/><use transform="matrix(0.05,0,0,0.05,10,0)" xlink:href="#M"/><use transform="matrix(0.05,0,0,0.05,20,0)" xlink:href="#ao"/><use transform="matrix(0.05,0,0,0.05,34.95,0)" xlink:href="#Q"/></g><g id="A"><use transform="matrix(0.05,0,0,0.05,0,0)" xlink:href="#T"/><use transform="matrix(0.05,0,0,0.05,10,0)" xlink:href="#V"/></g><g id="B"><use transform="matrix(0.05,0,0,0.05,0,0)" xlink:href="#an"/><use transform="matrix(0.05,0,0,0.05,10,0)" xlink:href="#Q"/><use transform="matrix(0.05,0,0,0.05,20,0)" xlink:href="#T"/><use transform="matrix(0.05,0,0,0.05,30,0)" xlink:href="#W"/></g><path d="M63-220v92h138v28H63V0H30v-248h175v28H63" id="aB"/><g id="C"><use transform="matrix(0.05,0,0,0.05,0,0)" xlink:href="#aB"/><use transform="matrix(0.05,0,0,0.05,10.950000000000001,0)" xlink:href="#Q"/><use transform="matrix(0.05,0,0,0.05,20.950000000000003,0)" xlink:href="#M"/><use transform="matrix(0.05,0,0,0.05,30.950000000000003,0)" xlink:href="#N"/><use transform="matrix(0.05,0,0,0.05,35.95,0)" xlink:href="#Y"/><use transform="matrix(0.05,0,0,0.05,45.95,0)" xlink:href="#S"/><use transform="matrix(0.05,0,0,0.05,51.900000000000006,0)" xlink:href="#Q"/></g><path d="M185-189c-5-48-123-54-124 2 14 75 158 14 163 119 3 78-121 87-175 55-17-10-28-26-33-46l33-7c5 56 141 63 141-1 0-78-155-14-162-118-5-82 145-84 179-34 5 7 8 16 11 25" id="aC"/><g id="D"><use transform="matrix(0.05,0,0,0.05,0,0)" xlink:href="#aC"/><use transform="matrix(0.05,0,0,0.05,12,0)" xlink:href="#N"/><use transform="matrix(0.05,0,0,0.05,17,0)" xlink:href="#M"/><use transform="matrix(0.05,0,0,0.05,27,0)" xlink:href="#N"/><use transform="matrix(0.05,0,0,0.05,32,0)" xlink:href="#Y"/><use transform="matrix(0.05,0,0,0.05,42,0)" xlink:href="#X"/></g><g id="E"><use transform="matrix(0.05,0,0,0.05,0,0)" xlink:href="#S"/><use transform="matrix(0.05,0,0,0.05,5.95,0)" xlink:href="#Q"/><use transform="matrix(0.05,0,0,0.05,15.949999999999998,0)" xlink:href="#an"/><use transform="matrix(0.05,0,0,0.05,25.950000000000003,0)" xlink:href="#W"/><use transform="matrix(0.05,0,0,0.05,30.950000000000003,0)" xlink:href="#X"/><use transform="matrix(0.05,0,0,0.05,39.95,0)" xlink:href="#N"/><use transform="matrix(0.05,0,0,0.05,44.95,0)" xlink:href="#M"/><use transform="matrix(0.05,0,0,0.05,54.95,0)" xlink:href="#N"/><use transform="matrix(0.05,0,0,0.05,59.95,0)" xlink:href="#Y"/><use transform="matrix(0.05,0,0,0.05,69.95,0)" xlink:href="#X"/></g><g id="F"><use transform="matrix(0.05,0,0,0.05,0,0)" xlink:href="#as"/><use transform="matrix(0.05,0,0,0.05,12.950000000000001,0)" xlink:href="#M"/><use transform="matrix(0.05,0,0,0.05,22.950000000000003,0)" xlink:href="#X"/></g><g id="G"><use transform="matrix(0.05,0,0,0.05,0,0)" xlink:href="#aq"/><use transform="matrix(0.05,0,0,0.05,10,0)" xlink:href="#M"/><use transform="matrix(0.05,0,0,0.05,20,0)" xlink:href="#ao"/><use transform="matrix(0.05,0,0,0.05,34.95,0)" xlink:href="#Q"/><use transform="matrix(0.05,0,0,0.05,44.95,0)" xlink:href="#U"/></g><g id="H"><use transform="matrix(0.05,0,0,0.05,0,0)" xlink:href="#Z"/><use transform="matrix(0.05,0,0,0.05,10,0)" xlink:href="#O"/></g><path fill="#fff" d="M153-248C145-148 188 4 80 4 36 3 13-21 6-62l32-5c4 25 16 42 43 43 27 0 39-20 39-49v-147H72v-28h81" id="aD"/><path fill="#fff" d="M84 4C-5 8 30-112 23-190h32v120c0 31 7 50 39 49 72-2 45-101 50-169h31l1 190h-30c-1-10 1-25-2-33-11 22-28 36-60 37" id="aE"/><path fill="#fff" d="M24-231v-30h32v30H24zM24 0v-190h32V0H24" id="aF"/><path fill="#fff" d="M85-194c31 0 48 13 60 33l-1-100h32l1 261h-30c-2-10 0-23-3-31C134-8 116 4 85 4 32 4 16-35 15-94c0-66 23-100 70-100zm9 24c-40 0-46 34-46 75 0 40 6 74 45 74 42 0 51-32 51-76 0-42-9-74-50-73" id="aG"/><path fill="#fff" d="M100-194c62-1 85 37 85 99 1 63-27 99-86 99S16-35 15-95c0-66 28-99 85-99zM99-20c44 1 53-31 53-75 0-43-8-75-51-75s-53 32-53 75 10 74 51 75" id="aH"/><path fill="#fff" d="M117-194c89-4 53 116 60 194h-32v-121c0-31-8-49-39-48C34-167 62-67 57 0H25l-1-190h30c1 10-1 24 2 32 11-22 29-35 61-36" id="aI"/><g id="I"><use transform="matrix(0.05,0,0,0.05,0,0)" xlink:href="#aD"/><use transform="matrix(0.05,0,0,0.05,9,0)" xlink:href="#aE"/><use transform="matrix(0.05,0,0,0.05,19,0)" xlink:href="#aw"/><use transform="matrix(0.05,0,0,0.05,24.95,0)" xlink:href="#aF"/><use transform="matrix(0.05,0,0,0.05,28.899999999999995,0)" xlink:href="#ak"/><use transform="matrix(0.05,0,0,0.05,37.9,0)" xlink:href="#aG"/><use transform="matrix(0.05,0,0,0.05,47.9,0)" xlink:href="#aF"/><use transform="matrix(0.05,0,0,0.05,51.85,0)" xlink:href="#ag"/><use transform="matrix(0.05,0,0,0.05,60.85,0)" xlink:href="#av"/><use transform="matrix(0.05,0,0,0.05,65.85,0)" xlink:href="#aF"/><use transform="matrix(0.05,0,0,0.05,69.8,0)" xlink:href="#aH"/><use transform="matrix(0.05,0,0,0.05,79.8,0)" xlink:href="#aI"/></g><path d="M141 0L90-78 38 0H4l68-98-65-92h35l48 74 47-74h35l-64 92 68 98h-35" id="aJ"/><g id="J"><use transform="matrix(0.05,0,0,0.05,0,0)" xlink:href="#aJ"/><use transform="matrix(0.05,0,0,0.05,9,0)" xlink:href="#X"/><use transform="matrix(0.05,0,0,0.05,18,0)" xlink:href="#U"/><use transform="matrix(0.05,0,0,0.05,28,0)" xlink:href="#W"/><use transform="matrix(0.05,0,0,0.05,33,0)" xlink:href="#X"/><use transform="matrix(0.05,0,0,0.05,42,0)" xlink:href="#N"/><use transform="matrix(0.05,0,0,0.05,47,0)" xlink:href="#S"/><use transform="matrix(0.05,0,0,0.05,52.95,0)" xlink:href="#am"/><use transform="matrix(0.05,0,0,0.05,56.900000000000006,0)" xlink:href="#aq"/><use transform="matrix(0.05,0,0,0.05,66.9,0)" xlink:href="#an"/></g><g id="K"><use transform="matrix(0.05,0,0,0.05,0,0)" xlink:href="#P"/><use transform="matrix(0.05,0,0,0.05,10,0)" xlink:href="#S"/><use transform="matrix(0.05,0,0,0.05,15.949999999999998,0)" xlink:href="#T"/><use transform="matrix(0.05,0,0,0.05,25.950000000000003,0)" xlink:href="#aq"/><use transform="matrix(0.05,0,0,0.05,35.95,0)" xlink:href="#Y"/><use transform="matrix(0.05,0,0,0.05,45.95,0)" xlink:href="#aq"/><use transform="matrix(0.05,0,0,0.05,55.95,0)" xlink:href="#az"/><use transform="matrix(0.05,0,0,0.05,64.95,0)" xlink:href="#am"/><use transform="matrix(0.05,0,0,0.05,68.9,0)" xlink:href="#M"/><use transform="matrix(0.05,0,0,0.05,78.9,0)" xlink:href="#N"/><use transform="matrix(0.05,0,0,0.05,83.9,0)" xlink:href="#am"/><use transform="matrix(0.05,0,0,0.05,87.85000000000001,0)" xlink:href="#T"/><use transform="matrix(0.05,0,0,0.05,97.85000000000001,0)" xlink:href="#aq"/></g></defs></g></svg>