<svg xmlns="http://www.w3.org/2000/svg" xmlns:xlink="http://www.w3.org/1999/xlink" xmlns:lucid="lucid" width="1580" height="930"><g transform="translate(-7.2807794508414645 -7.28077945084145)" lucid:page-tab-id="0_0"><path d="M27.28 587.28h260v260h-260z" fill="#fff"/><path d="M39.47 587.28h8.12m8.12 0h8.12m8.13 0h8.12m8.12 0h8.12m8.13 0h8.12m8.12 0h8.12m8.13 0h8.12m8.12 0h8.12m8.13 0h8.12m8.12 0h8.12m8.13 0h8.12m8.12 0h8.12m8.13 0h8.12m8.12 0h8.12m8.13 0h8.12m8.12 0h4.06v4.06m0 8.13v8.12m0 8.12v8.12m0 8.13v8.12m0 8.12v8.12m0 8.13v8.12m0 8.12v8.12m0 8.13v8.12m0 8.12v8.12m0 8.13v8.12m0 8.12v8.12m0 8.13v8.12m0 8.12v8.12m0 8.13v8.12m0 8.12v8.12m0 8.13v8.12m0 8.12v4.06h-4.06m-8.13 0h-8.13m-8.13 0h-8.12m-8.13 0h-8.13m-8.13 0h-8.12m-8.13 0h-8.13m-8.13 0h-8.12m-8.13 0h-8.13m-8.13 0h-8.12m-8.13 0h-8.13m-8.13 0h-8.12m-8.13 0h-8.13m-8.13 0h-8.12m-8.13 0h-8.13m-8.13 0h-8.12m-8.13 0h-8.13m-8.13 0h-4.06v-4.06m0-8.13v-8.13m0-8.13v-8.12m0-8.13v-8.13m0-8.13v-8.12m0-8.13v-8.13m0-8.13v-8.12m0-8.13v-8.13m0-8.13v-8.12m0-8.13v-8.13m0-8.13v-8.12m0-8.13v-8.13m0-8.13v-8.12m0-8.13v-8.13m0-8.13v-8.12m0-8.13v-8.13m0-8.13v-4.06h4.06" stroke="#000" stroke-width="2" fill="none"/><use xlink:href="#a" transform="matrix(1,0,0,1,32.280779450841464,592.2807794508417) translate(84.6 221.20000000000002)"/><use xlink:href="#b" transform="matrix(1,0,0,1,32.280779450841464,592.2807794508417) translate(47.625 242.8)"/><use xlink:href="#c" transform="matrix(1,0,0,1,32.280779450841464,592.2807794508417) translate(128.525 242.8)"/><path d="M1367.28 512.6h160v40h-160z" stroke="#000" stroke-width="2" fill="#fff"/><use xlink:href="#d" transform="matrix(1,0,0,1,1372.2807794508415,517.6141127841744) translate(2.5749999999999886 18.6)"/><use xlink:href="#e" transform="matrix(1,0,0,1,1372.2807794508415,517.6141127841744) translate(79.52499999999999 18.6)"/><path d="M1403.86 608.28h-34.76v-2h34.76zm122.42 0h-35.57v-2h35.58z"/><path d="M1527.28 608.28h-1.02v-2h1.02zM1386.97 597.96l-15.76 9.32 15.77 9.32-1.02 1.72-18.67-11.04 18.67-11.04z"/><use xlink:href="#f" transform="matrix(1,0,0,1,1403.8557794508415,596.4807794508415) translate(0.005000000000002558 14.4)"/><path d="M1408.7 668.28h-22.92v-2h22.9zm137.58 0h-9.74v-2h9.74z"/><path d="M1547.28 668.28h-1.02v-2h1.02z"/><path d="M1384.78 671.92l-14.26-4.64 14.26-4.63z" fill="#fff"/><path d="M1385.78 673.3l-18.5-6.02 18.5-6zm-12.03-6.02l10.03 3.26v-6.52z"/><use xlink:href="#g" transform="matrix(1,0,0,1,1408.6891127841748,656.4807794508417) translate(0.005000000000002558 14.4)"/><path d="M1367.28 232.28c0-2.76 2.24-5 5-5h150c2.76 0 5 2.24 5 5v110c0 2.76-2.24 5-5 5h-150c-2.76 0-5-2.24-5-5z" stroke="#000" stroke-width="2" fill="#b2b2b2"/><use xlink:href="#h" transform="matrix(1,0,0,1,1375.2807794508415,235.2807794508414) translate(24.574999999999996 55.6)"/><use xlink:href="#i" transform="matrix(1,0,0,1,1375.2807794508415,235.2807794508414) translate(74.525 55.6)"/><path d="M1367.28 374.95c0-2.76 2.24-5 5-5h150c2.76 0 5 2.24 5 5v110c0 2.76-2.24 5-5 5h-150c-2.76 0-5-2.24-5-5z" stroke="#000" stroke-width="2" fill="#666"/><use xlink:href="#j" transform="matrix(1,0,0,1,1375.2807794508415,377.9474461175079) translate(18.574999999999996 44.8)"/><use xlink:href="#k" transform="matrix(1,0,0,1,1375.2807794508415,377.9474461175079) translate(68.525 44.8)"/><use xlink:href="#l" transform="matrix(1,0,0,1,1375.2807794508415,377.9474461175079) translate(49.55 66.4)"/><path d="M1367.28 32.28c0-2.76 2.24-5 5-5h190c2.76 0 5 2.24 5 5v50c0 2.76-2.24 5-5 5h-190c-2.76 0-5-2.24-5-5z" stroke="#000" stroke-opacity="0" stroke-width="2" fill="#fff" fill-opacity="0"/><use xlink:href="#m" transform="matrix(1,0,0,1,1372.2807794508415,32.28077945084145) translate(0 28.6)"/><use xlink:href="#n" transform="matrix(1,0,0,1,1372.2807794508415,32.28077945084145) translate(72.80000000000001 28.6)"/><use xlink:href="#o" transform="matrix(1,0,0,1,1372.2807794508415,32.28077945084145) translate(143.70000000000002 28.6)"/><path d="M1367.28 89.6c0-2.75 2.24-5 5-5h150c2.76 0 5 2.25 5 5v110c0 2.78-2.24 5-5 5h-150c-2.76 0-5-2.22-5-5z" stroke="#000" stroke-width="2" fill="#fff"/><use xlink:href="#p" transform="matrix(1,0,0,1,1375.2807794508415,92.61411278417495) translate(33.599999999999994 55.6)"/><path d="M37.28 422.28c0-2.76 2.24-5 5-5h150c2.76 0 5 2.24 5 5v110c0 2.76-2.24 5-5 5h-150c-2.76 0-5-2.24-5-5z" stroke="#000" stroke-width="2" fill="#666"/><use xlink:href="#q" transform="matrix(1,0,0,1,45.28077945084145,425.28077945084164) translate(27.1 55.6)"/><path d="M847.28 42.28c0-2.76 2.24-5 5-5h150c2.76 0 5 2.24 5 5v110c0 2.76-2.24 5-5 5h-150c-2.76 0-5-2.24-5-5z" stroke="#000" stroke-width="2" fill="#fff"/><use xlink:href="#r" transform="matrix(1,0,0,1,855.2807794508415,45.28077945084168) translate(54.5 44.8)"/><use xlink:href="#s" transform="matrix(1,0,0,1,855.2807794508415,45.28077945084168) translate(41.05 66.4)"/><path d="M1167.28 42.28c0-2.76 2.24-5 5-5h150c2.76 0 5 2.24 5 5v110c0 2.76-2.24 5-5 5h-150c-2.76 0-5-2.24-5-5z" stroke="#000" stroke-width="2" fill="#fff"/><use xlink:href="#r" transform="matrix(1,0,0,1,1175.2807794508415,45.28077945084168) translate(54.5 44.8)"/><use xlink:href="#t" transform="matrix(1,0,0,1,1175.2807794508415,45.28077945084168) translate(32.55 66.4)"/><path d="M1017.2 98.28h-7.92v-2h7.93zm147.26 0h-39.35v-2h39.36z"/><path d="M1009.3 98.28h-1.02v-2h1.03zM1166.28 97.28l-18.67 11.04-1-1.72 15.75-9.32-15.76-9.32 1-1.72z"/><use xlink:href="#r" transform="matrix(1,0,0,1,1017.2083304712496,75.68077945084167) translate(36.455000000000005 14.4)"/><use xlink:href="#u" transform="matrix(1,0,0,1,1017.2083304712496,75.68077945084167) translate(0.005000000000002558 36)"/><path d="M487.28 422.28c0-2.76 2.24-5 5-5h150c2.76 0 5 2.24 5 5v110c0 2.76-2.24 5-5 5h-150c-2.76 0-5-2.24-5-5z" stroke="#000" stroke-width="2" fill="#666"/><use xlink:href="#v" transform="matrix(1,0,0,1,495.28077945084146,425.28077945084164) translate(49.525 55.6)"/><path d="M667.28 422.28c0-2.76 2.24-5 5-5h150c2.76 0 5 2.24 5 5v110c0 2.76-2.24 5-5 5h-150c-2.76 0-5-2.24-5-5z" stroke="#000" stroke-width="2" fill="#666"/><use xlink:href="#w" transform="matrix(1,0,0,1,675.2807794508415,425.28077945084164) translate(9.049999999999997 55.6)"/><use xlink:href="#x" transform="matrix(1,0,0,1,675.2807794508415,425.28077945084164) translate(55 55.6)"/><use xlink:href="#y" transform="matrix(1,0,0,1,675.2807794508415,425.28077945084164) translate(75 55.6)"/><path d="M847.28 422.28c0-2.76 2.24-5 5-5h150c2.76 0 5 2.24 5 5v110c0 2.76-2.24 5-5 5h-150c-2.76 0-5-2.24-5-5z" stroke="#000" stroke-width="2" fill="#666"/><use xlink:href="#z" transform="matrix(1,0,0,1,855.2807794508415,425.28077945084164) translate(43.55 55.6)"/><path d="M667.28 232.28c0-2.76 2.24-5 5-5h150c2.76 0 5 2.24 5 5v110c0 2.76-2.24 5-5 5h-150c-2.76 0-5-2.24-5-5z" stroke="#000" stroke-width="2" fill="#fff"/><use xlink:href="#A" transform="matrix(1,0,0,1,675.2807794508415,235.2807794508417) translate(23.525 55.6)"/><path d="M927.28 415.28v-33h-180v-15.5" stroke="#000" stroke-width="2" fill="none"/><path d="M928.28 416.28h-2v-1.02h2z"/><path d="M747.28 351.52l4.64 14.26h-9.27z" stroke="#000" stroke-width="2" fill="#fff"/><path d="M747.28 415.28v-48.5" stroke="#000" stroke-width="2" fill="none"/><path d="M748.28 416.28h-2v-1.02h2z"/><path d="M747.28 351.52l4.64 14.26h-9.27z" stroke="#000" stroke-width="2" fill="#fff"/><path d="M748.28 383.28h-180v32h-2v-34h180v-14.5h2z"/><path d="M568.28 416.28h-2v-1.02h2z"/><path d="M751.92 365.78h-9.27l4.63-14.26z" fill="#fff"/><path d="M753.3 366.78h-12.03l6-18.5zm-9.28-2h6.52l-3.26-10.03z"/><path d="M847.28 232.28c0-2.76 2.24-5 5-5h150c2.76 0 5 2.24 5 5v110c0 2.76-2.24 5-5 5h-150c-2.76 0-5-2.24-5-5z" stroke="#000" stroke-width="2" fill="#b2b2b2"/><use xlink:href="#B" transform="matrix(1,0,0,1,855.2807794508415,235.2807794508417) translate(52 44.8)"/><use xlink:href="#C" transform="matrix(1,0,0,1,855.2807794508415,235.2807794508417) translate(39.025 66.4)"/><path d="M1027.28 422.28c0-2.76 2.24-5 5-5h150c2.76 0 5 2.24 5 5v110c0 2.76-2.24 5-5 5h-150c-2.76 0-5-2.24-5-5z" stroke="#000" stroke-width="2" fill="#b2b2b2"/><use xlink:href="#D" transform="matrix(1,0,0,1,1035.2807794508415,425.28077945084164) translate(50.5 44.8)"/><use xlink:href="#E" transform="matrix(1,0,0,1,1035.2807794508415,425.28077945084164) translate(8.649999999999991 66.4)"/><path d="M1027.28 232.28c0-2.76 2.24-5 5-5h150c2.76 0 5 2.24 5 5v110c0 2.76-2.24 5-5 5h-150c-2.76 0-5-2.24-5-5z" stroke="#000" stroke-width="2" fill="#b2b2b2"/><use xlink:href="#D" transform="matrix(1,0,0,1,1035.2807794508415,235.2807794508417) translate(50.5 44.8)"/><use xlink:href="#s" transform="matrix(1,0,0,1,1035.2807794508415,235.2807794508417) translate(41.05 66.4)"/><path d="M1107.28 415.28v-48.5" stroke="#000" stroke-width="2" fill="none"/><path d="M1108.28 416.28h-2v-1.02h2z"/><path d="M1107.28 351.52l4.64 14.26h-9.27z" stroke="#000" stroke-width="2" fill="#fff"/><path d="M1107.28 225.28v-33h-180v-15.5" stroke="#000" stroke-width="2" fill="none"/><path d="M1108.28 226.28h-2v-1.02h2z"/><path d="M927.28 161.52l4.64 14.26h-9.27z" stroke="#000" stroke-width="2" fill="#fff"/><path d="M927.28 225.28v-48.5" stroke="#000" stroke-width="2" fill="none"/><path d="M928.28 226.28h-2v-1.02h2z"/><path d="M927.28 161.52l4.64 14.26h-9.27z" stroke="#000" stroke-width="2" fill="#fff"/><path d="M747.28 225.28v-33h180v-15.5" stroke="#000" stroke-width="2" fill="none"/><path d="M748.28 226.28h-2v-1.02h2z"/><path d="M927.28 161.52l4.64 14.26h-9.27z" stroke="#000" stroke-width="2" fill="#fff"/><path d="M307.28 232.28c0-2.76 2.24-5 5-5h150c2.76 0 5 2.24 5 5v110c0 2.76-2.24 5-5 5h-150c-2.76 0-5-2.24-5-5z" stroke="#000" stroke-width="2" fill="#666"/><use xlink:href="#F" transform="matrix(1,0,0,1,315.28077945084146,235.2807794508417) translate(32.525 55.6)"/><path d="M307.28 42.28c0-2.76 2.24-5 5-5h150c2.76 0 5 2.24 5 5v110c0 2.76-2.24 5-5 5h-150c-2.76 0-5-2.24-5-5z" stroke="#000" stroke-width="2" fill="#fff"/><use xlink:href="#G" transform="matrix(1,0,0,1,315.28077945084146,45.28077945084168) translate(56.525 44.8)"/><use xlink:href="#H" transform="matrix(1,0,0,1,315.28077945084146,45.28077945084168) translate(38.574999999999996 66.4)"/><path d="M387.28 225.28v-48.5" stroke="#000" stroke-width="2" fill="none"/><path d="M388.28 226.28h-2v-1.02h2z"/><path d="M387.28 161.52l4.64 14.26h-9.27zM667.28 658.8c0-2.76 1.94-6.13 4.32-7.5l71.36-41.5c2.4-1.4 6.26-1.4 8.64 0l71.36 41.5c2.4 1.37 4.32 4.74 4.32 7.5v63.48c0 2.76-2.24 5-5 5h-150c-2.76 0-5-2.24-5-5z" stroke="#000" stroke-width="2" fill="#fff"/><use xlink:href="#I" transform="matrix(1,0,0,1,667.2807794508415,607.2807794508417) translate(60.025 52.8)"/><use xlink:href="#J" transform="matrix(1,0,0,1,667.2807794508415,607.2807794508417) translate(56.5 74.4)"/><path d="M767.28 848.8c0-2.76 1.94-6.13 4.32-7.5l71.36-41.5c2.4-1.4 6.26-1.4 8.64 0l71.36 41.5c2.4 1.37 4.32 4.74 4.32 7.5v63.48c0 2.76-2.24 5-5 5h-150c-2.76 0-5-2.24-5-5z" stroke="#000" stroke-width="2" fill="#fff"/><use xlink:href="#K" transform="matrix(1,0,0,1,767.2807794508414,797.2807794508417) translate(63 52.8)"/><use xlink:href="#L" transform="matrix(1,0,0,1,767.2807794508414,797.2807794508417) translate(29.074999999999996 74.4)"/><path d="M587.28 848.8c0-2.76 1.94-6.13 4.32-7.5l71.36-41.5c2.4-1.4 6.26-1.4 8.64 0l71.36 41.5c2.4 1.37 4.32 4.74 4.32 7.5v63.48c0 2.76-2.24 5-5 5h-150c-2.76 0-5-2.24-5-5z" stroke="#000" stroke-width="2" fill="#fff"/><use xlink:href="#K" transform="matrix(1,0,0,1,587.2807794508415,797.2807794508417) translate(63 52.8)"/><use xlink:href="#M" transform="matrix(1,0,0,1,587.2807794508415,797.2807794508417) translate(51.525 74.4)"/><path d="M667.28 796.78v-33.75h80v-16.25" stroke="#000" stroke-width="2" fill="none"/><path d="M668.28 797.85l-1.38-.1-.62.1v-1.1h2z"/><path d="M747.28 731.52l4.64 14.26h-9.27z" stroke="#000" stroke-width="2" fill="#fff"/><path d="M847.28 796.78v-33.75h-100v-16.25" stroke="#000" stroke-width="2" fill="none"/><path d="M848.28 797.85l-1.38-.1-.62.1v-1.1h2z"/><path d="M747.28 731.52l4.64 14.26h-9.27z" stroke="#000" stroke-width="2" fill="#fff"/><path d="M37.28 612.28c0-2.76 2.24-5 5-5h150c2.76 0 5 2.24 5 5v110c0 2.76-2.24 5-5 5h-150c-2.76 0-5-2.24-5-5z" stroke="#000" stroke-width="2" fill="#666"/><use xlink:href="#q" transform="matrix(1,0,0,1,45.28077945084145,615.2807794508417) translate(27.1 55.6)"/><path d="M117.28 605.28v-48.5" stroke="#000" stroke-width="2" fill="none"/><path d="M118.28 606.28h-2v-1.02h2z"/><path d="M117.28 541.52l4.64 14.26h-9.27z" stroke="#000" stroke-width="2" fill="#fff"/><path d="M57.28 632.28c0-2.76 2.24-5 5-5h150c2.76 0 5 2.24 5 5v110c0 2.76-2.24 5-5 5h-150c-2.76 0-5-2.24-5-5z" stroke="#000" stroke-width="2" fill="#666"/><use xlink:href="#q" transform="matrix(1,0,0,1,65.28077945084146,635.2807794508417) translate(27.1 55.6)"/><path d="M77.28 652.28c0-2.76 2.24-5 5-5h150c2.76 0 5 2.24 5 5v110c0 2.76-2.24 5-5 5h-150c-2.76 0-5-2.24-5-5z" stroke="#000" stroke-width="2" fill="#666"/><use xlink:href="#q" transform="matrix(1,0,0,1,85.28077945084146,655.2807794508417) translate(27.1 55.6)"/><path d="M97.28 672.28c0-2.76 2.24-5 5-5h150c2.76 0 5 2.24 5 5v110c0 2.76-2.24 5-5 5h-150c-2.76 0-5-2.24-5-5z" stroke="#000" stroke-width="2" fill="#666"/><use xlink:href="#N" transform="matrix(1,0,0,1,105.28077945084146,675.2807794508417) translate(38.025 55.6)"/><path d="M487.28 612.28c0-2.76 2.24-5 5-5h150c2.76 0 5 2.24 5 5v110c0 2.76-2.24 5-5 5h-150c-2.76 0-5-2.24-5-5z" stroke="#000" stroke-width="2" fill="#fff"/><use xlink:href="#G" transform="matrix(1,0,0,1,495.28077945084146,615.2807794508417) translate(56.525 44.8)"/><use xlink:href="#O" transform="matrix(1,0,0,1,495.28077945084146,615.2807794508417) translate(11.099999999999994 66.4)"/><path d="M307.28 612.28c0-2.76 2.24-5 5-5h150c2.76 0 5 2.24 5 5v110c0 2.76-2.24 5-5 5h-150c-2.76 0-5-2.24-5-5z" stroke="#000" stroke-width="2" fill="#666"/><use xlink:href="#j" transform="matrix(1,0,0,1,315.28077945084146,615.2807794508417) translate(23.074999999999996 55.6)"/><use xlink:href="#P" transform="matrix(1,0,0,1,315.28077945084146,615.2807794508417) translate(73.025 55.6)"/><path d="M37.28 232.28c0-2.76 2.24-5 5-5h150c2.76 0 5 2.24 5 5v110c0 2.76-2.24 5-5 5h-150c-2.76 0-5-2.24-5-5z" stroke="#000" stroke-width="2" fill="#666"/><use xlink:href="#Q" transform="matrix(1,0,0,1,45.28077945084145,235.2807794508417) translate(41.05 44.8)"/><use xlink:href="#R" transform="matrix(1,0,0,1,45.28077945084145,235.2807794508417) translate(19.124999999999993 66.4)"/><path d="M37.28 42.28c0-2.76 2.24-5 5-5h150c2.76 0 5 2.24 5 5v110c0 2.76-2.24 5-5 5h-150c-2.76 0-5-2.24-5-5z" stroke="#000" stroke-width="2" fill="#fff"/><use xlink:href="#S" transform="matrix(1,0,0,1,45.28077945084145,45.28077945084168) translate(51 44.8)"/><use xlink:href="#T" transform="matrix(1,0,0,1,45.28077945084145,45.28077945084168) translate(38.525 66.4)"/><path d="M117.28 225.28v-48.5" stroke="#000" stroke-width="2" fill="none"/><path d="M118.28 226.28h-2v-1.02h2z"/><path d="M117.28 161.52l4.64 14.26h-9.27z" stroke="#000" stroke-width="2" fill="#fff"/><path d="M567.28 539.28v48.5" stroke="#000" stroke-width="2" fill="none"/><path d="M568.28 539.3h-2v-1.02h2z"/><path d="M567.28 603.04l-4.63-14.26h9.27z" stroke="#000" stroke-width="2" fill="#fff"/><path d="M388.28 428.95h97v2h-99V405.3h2zm0-45.25h-2v-33.6h2z"/><path d="M486.28 430.95h-1.02v-2h1.02zM398.32 366.95l-1.72 1.02-9.32-15.76-9.32 15.77-1.72-1.02 11.04-18.67z"/><use xlink:href="#U" transform="matrix(1,0,0,1,341.8807794508415,383.7039763319333) translate(0 14.4)"/><path d="M388.28 604.46h-2v-36.9h2zm97-91.68h-97v33.2h-2v-35.2h99z"/><path d="M486.28 512.78h-1.02v-2h1.02zM398.32 587.6l-11.04 18.68-11.04-18.67 1.72-1 9.32 15.75 9.32-15.76z"/><g><use xlink:href="#V" transform="matrix(1,0,0,1,311.3307794508415,545.9742005034734) translate(0 14.4)"/><use xlink:href="#W" transform="matrix(1,0,0,1,311.3307794508415,545.9742005034734) translate(34 14.4)"/><use xlink:href="#X" transform="matrix(1,0,0,1,311.3307794508415,545.9742005034734) translate(81.95 14.4)"/><use xlink:href="#Y" transform="matrix(1,0,0,1,311.3307794508415,545.9742005034734) translate(131.9 14.4)"/></g><path d="M256.9 478.28h-56.8v-2h56.8zm228.38 0h-124.7v-2h124.7z"/><path d="M486.28 478.28h-1.02v-2h1.02zM217.97 467.96l-15.76 9.32 15.77 9.32-1.02 1.72-18.67-11.04 18.67-11.04z"/><g><use xlink:href="#Z" transform="matrix(1,0,0,1,256.88798421790534,466.4807794508416) translate(0 14.4)"/><use xlink:href="#aa" transform="matrix(1,0,0,1,256.88798421790534,466.4807794508416) translate(18.95 14.4)"/></g><path d="M748.28 605.96h-2v-22.13h2zm-76.6-33.93v2h-60.73v-34.75h2v32.75z"/><path d="M612.95 539.3h-2v-1.02h2zM758.32 589.1l-11.04 18.68-11.04-18.67 1.72-1 9.32 15.75 9.32-15.76z"/><g><use xlink:href="#ab" transform="matrix(1,0,0,1,671.6746413842636,562.2308839292675) translate(0 14.4)"/><use xlink:href="#ac" transform="matrix(1,0,0,1,671.6746413842636,562.2308839292675) translate(36.95 14.4)"/><use xlink:href="#ad" transform="matrix(1,0,0,1,671.6746413842636,562.2308839292675) translate(96.9 14.4)"/></g><path d="M748.28 605.96h-2v-22.13h2zm0-43.73h-2v-22.95h2z"/><path d="M748.28 539.3h-2v-1.02h2zM758.32 589.1l-11.04 18.68-11.04-18.67 1.72-1 9.32 15.75 9.32-15.76z"/><path d="M487.28 162.28c0-2.76 2.24-5 5-5h150c2.76 0 5 2.24 5 5v110c0 2.76-2.24 5-5 5h-150c-2.76 0-5-2.24-5-5z" stroke="#000" stroke-width="2" fill="#fff"/><g><use xlink:href="#ae" transform="matrix(1,0,0,1,495.28077945084146,165.2807794508417) translate(47.525 44.8)"/><use xlink:href="#af" transform="matrix(1,0,0,1,495.28077945084146,165.2807794508417) translate(37.574999999999996 66.4)"/></g><path d="M543.6 415.28h-2v-57.2h2zm0-78.8h-2V280.1h2z"/><path d="M543.6 416.28h-2v-1.02h2zM553.66 296.95l-1.73 1.02-9.32-15.76-9.3 15.77-1.73-1.02 11.04-18.67z"/><g><use xlink:href="#ag" transform="matrix(1,0,0,1,484.23911278417484,336.4807794508417) translate(0 14.4)"/></g><path d="M248.28 454.28h237v2h-239v-52.73h2zm0-93.93h-2v-72.07H200.1v-2h48.18z"/><path d="M486.28 456.28h-1.02v-2h1.02zM217.97 277.96l-15.76 9.32 15.77 9.32-1.02 1.72-18.67-11.04 18.67-11.04z"/><g><use xlink:href="#V" transform="matrix(1,0,0,1,196.38077945084146,360.34744611750835) translate(5.930000000000007 14.4)"/><use xlink:href="#ah" transform="matrix(1,0,0,1,196.38077945084146,360.34744611750835) translate(39.93000000000001 14.4)"/><use xlink:href="#ai" transform="matrix(1,0,0,1,196.38077945084146,360.34744611750835) translate(0.005000000000002558 36)"/></g><defs><path d="M153-248C145-148 188 4 80 4 36 3 13-21 6-62l32-5c4 25 16 42 43 43 27 0 39-20 39-49v-147H72v-28h81" id="aj"/><path d="M84 4C-5 8 30-112 23-190h32v120c0 31 7 50 39 49 72-2 45-101 50-169h31l1 190h-30c-1-10 1-25-2-33-11 22-28 36-60 37" id="ak"/><path d="M114-163C36-179 61-72 57 0H25l-1-190h30c1 12-1 29 2 39 6-27 23-49 58-41v29" id="al"/><path d="M24-231v-30h32v30H24zM24 0v-190h32V0H24" id="am"/><path d="M135-143c-3-34-86-38-87 0 15 53 115 12 119 90S17 21 10-45l28-5c4 36 97 45 98 0-10-56-113-15-118-90-4-57 82-63 122-42 12 7 21 19 24 35" id="an"/><path d="M85-194c31 0 48 13 60 33l-1-100h32l1 261h-30c-2-10 0-23-3-31C134-8 116 4 85 4 32 4 16-35 15-94c0-66 23-100 70-100zm9 24c-40 0-46 34-46 75 0 40 6 74 45 74 42 0 51-32 51-76 0-42-9-74-50-73" id="ao"/><path d="M59-47c-2 24 18 29 38 22v24C64 9 27 4 27-40v-127H5v-23h24l9-43h21v43h35v23H59v120" id="ap"/><path d="M100-194c62-1 85 37 85 99 1 63-27 99-86 99S16-35 15-95c0-66 28-99 85-99zM99-20c44 1 53-31 53-75 0-43-8-75-51-75s-53 32-53 75 10 74 51 75" id="aq"/><path d="M117-194c89-4 53 116 60 194h-32v-121c0-31-8-49-39-48C34-167 62-67 57 0H25l-1-190h30c1 10-1 24 2 32 11-22 29-35 61-36" id="ar"/><g id="a"><use transform="matrix(0.05,0,0,0.05,0,0)" xlink:href="#aj"/><use transform="matrix(0.05,0,0,0.05,9,0)" xlink:href="#ak"/><use transform="matrix(0.05,0,0,0.05,19,0)" xlink:href="#al"/><use transform="matrix(0.05,0,0,0.05,24.95,0)" xlink:href="#am"/><use transform="matrix(0.05,0,0,0.05,28.899999999999995,0)" xlink:href="#an"/><use transform="matrix(0.05,0,0,0.05,37.9,0)" xlink:href="#ao"/><use transform="matrix(0.05,0,0,0.05,47.9,0)" xlink:href="#am"/><use transform="matrix(0.05,0,0,0.05,51.85,0)" xlink:href="#ap"/><use transform="matrix(0.05,0,0,0.05,56.85,0)" xlink:href="#am"/><use transform="matrix(0.05,0,0,0.05,60.800000000000004,0)" xlink:href="#aq"/><use transform="matrix(0.05,0,0,0.05,70.80000000000001,0)" xlink:href="#ar"/></g><path d="M115-194c53 0 69 39 70 98 0 66-23 100-70 100C84 3 66-7 56-30L54 0H23l1-261h32v101c10-23 28-34 59-34zm-8 174c40 0 45-34 45-75 0-40-5-75-45-74-42 0-51 32-51 76 0 43 10 73 51 73" id="as"/><path d="M16-82v-28h88v28H16" id="at"/><path d="M96-169c-40 0-48 33-48 73s9 75 48 75c24 0 41-14 43-38l32 2c-6 37-31 61-74 61-59 0-76-41-82-99-10-93 101-131 147-64 4 7 5 14 7 22l-32 3c-4-21-16-35-41-35" id="au"/><path d="M24 0v-261h32V0H24" id="av"/><path d="M141-36C126-15 110 5 73 4 37 3 15-17 15-53c-1-64 63-63 125-63 3-35-9-54-41-54-24 1-41 7-42 31l-33-3c5-37 33-52 76-52 45 0 72 20 72 64v82c-1 20 7 32 28 27v20c-31 9-61-2-59-35zM48-53c0 20 12 33 32 33 41-3 63-29 60-74-43 2-92-5-92 41" id="aw"/><g id="b"><use transform="matrix(0.05,0,0,0.05,0,0)" xlink:href="#an"/><use transform="matrix(0.05,0,0,0.05,9,0)" xlink:href="#ak"/><use transform="matrix(0.05,0,0,0.05,19,0)" xlink:href="#as"/><use transform="matrix(0.05,0,0,0.05,29,0)" xlink:href="#at"/><use transform="matrix(0.05,0,0,0.05,34.95,0)" xlink:href="#au"/><use transform="matrix(0.05,0,0,0.05,43.95,0)" xlink:href="#av"/><use transform="matrix(0.05,0,0,0.05,47.900000000000006,0)" xlink:href="#aw"/><use transform="matrix(0.05,0,0,0.05,57.900000000000006,0)" xlink:href="#an"/><use transform="matrix(0.05,0,0,0.05,66.9,0)" xlink:href="#an"/></g><path d="M106-169C34-169 62-67 57 0H25v-261h32l-1 103c12-21 28-36 61-36 89 0 53 116 60 194h-32v-121c2-32-8-49-39-48" id="ax"/><path d="M100-194c63 0 86 42 84 106H49c0 40 14 67 53 68 26 1 43-12 49-29l28 8c-11 28-37 45-77 45C44 4 14-33 15-96c1-61 26-98 85-98zm52 81c6-60-76-77-97-28-3 7-6 17-6 28h103" id="ay"/><path d="M179-190L93 31C79 59 56 82 12 73V49c39 6 53-20 64-50L1-190h34L92-34l54-156h33" id="az"/><g id="c"><use transform="matrix(0.05,0,0,0.05,0,0)" xlink:href="#ax"/><use transform="matrix(0.05,0,0,0.05,10,0)" xlink:href="#am"/><use transform="matrix(0.05,0,0,0.05,13.949999999999998,0)" xlink:href="#ay"/><use transform="matrix(0.05,0,0,0.05,23.95,0)" xlink:href="#al"/><use transform="matrix(0.05,0,0,0.05,29.899999999999995,0)" xlink:href="#aw"/><use transform="matrix(0.05,0,0,0.05,39.9,0)" xlink:href="#al"/><use transform="matrix(0.05,0,0,0.05,45.85,0)" xlink:href="#au"/><use transform="matrix(0.05,0,0,0.05,54.85,0)" xlink:href="#ax"/><use transform="matrix(0.05,0,0,0.05,64.85,0)" xlink:href="#az"/></g><path d="M30-248c118-7 216 8 213 122C240-48 200 0 122 0H30v-248zM63-27c89 8 146-16 146-99s-60-101-146-95v194" id="aA"/><path d="M115-194c55 1 70 41 70 98S169 2 115 4C84 4 66-9 55-30l1 105H24l-1-265h31l2 30c10-21 28-34 59-34zm-8 174c40 0 45-34 45-75s-6-73-45-74c-42 0-51 32-51 76 0 43 10 73 51 73" id="aB"/><g id="d"><use transform="matrix(0.05,0,0,0.05,0,0)" xlink:href="#aA"/><use transform="matrix(0.05,0,0,0.05,12.950000000000001,0)" xlink:href="#aw"/><use transform="matrix(0.05,0,0,0.05,22.950000000000003,0)" xlink:href="#ap"/><use transform="matrix(0.05,0,0,0.05,27.950000000000003,0)" xlink:href="#aw"/><use transform="matrix(0.05,0,0,0.05,37.95,0)" xlink:href="#ap"/><use transform="matrix(0.05,0,0,0.05,42.95,0)" xlink:href="#az"/><use transform="matrix(0.05,0,0,0.05,51.95,0)" xlink:href="#aB"/><use transform="matrix(0.05,0,0,0.05,61.95,0)" xlink:href="#ay"/></g><path d="M30-248c87 1 191-15 191 75 0 78-77 80-158 76V0H30v-248zm33 125c57 0 124 11 124-50 0-59-68-47-124-48v98" id="aC"/><g id="e"><use transform="matrix(0.05,0,0,0.05,0,0)" xlink:href="#aC"/><use transform="matrix(0.05,0,0,0.05,12,0)" xlink:href="#al"/><use transform="matrix(0.05,0,0,0.05,17.95,0)" xlink:href="#aq"/><use transform="matrix(0.05,0,0,0.05,27.950000000000003,0)" xlink:href="#aB"/><use transform="matrix(0.05,0,0,0.05,37.95,0)" xlink:href="#ay"/><use transform="matrix(0.05,0,0,0.05,47.95,0)" xlink:href="#al"/><use transform="matrix(0.05,0,0,0.05,53.900000000000006,0)" xlink:href="#ap"/><use transform="matrix(0.05,0,0,0.05,58.900000000000006,0)" xlink:href="#az"/></g><path d="M101-234c-31-9-42 10-38 44h38v23H63V0H32v-167H5v-23h27c-7-52 17-82 69-68v24" id="aD"/><path d="M33-154v-36h34v36H33zM33 0v-36h34V0H33" id="aE"/><g id="f"><use transform="matrix(0.05,0,0,0.05,0,0)" xlink:href="#al"/><use transform="matrix(0.05,0,0,0.05,5.95,0)" xlink:href="#ao"/><use transform="matrix(0.05,0,0,0.05,15.949999999999998,0)" xlink:href="#aD"/><use transform="matrix(0.05,0,0,0.05,20.95,0)" xlink:href="#aE"/><use transform="matrix(0.05,0,0,0.05,25.950000000000003,0)" xlink:href="#aB"/><use transform="matrix(0.05,0,0,0.05,35.95,0)" xlink:href="#al"/><use transform="matrix(0.05,0,0,0.05,41.900000000000006,0)" xlink:href="#aq"/><use transform="matrix(0.05,0,0,0.05,51.900000000000006,0)" xlink:href="#aB"/><use transform="matrix(0.05,0,0,0.05,61.900000000000006,0)" xlink:href="#ay"/><use transform="matrix(0.05,0,0,0.05,71.9,0)" xlink:href="#al"/><use transform="matrix(0.05,0,0,0.05,77.85000000000001,0)" xlink:href="#az"/></g><path d="M212-179c-10-28-35-45-73-45-59 0-87 40-87 99 0 60 29 101 89 101 43 0 62-24 78-52l27 14C228-24 195 4 139 4 59 4 22-46 18-125c-6-104 99-153 187-111 19 9 31 26 39 46" id="aF"/><path d="M140-251c81 0 123 46 123 126C263-46 219 4 140 4 59 4 17-45 17-125s42-126 123-126zm0 227c63 0 89-41 89-101s-29-99-89-99c-61 0-89 39-89 99S79-25 140-24" id="aG"/><g id="g"><use transform="matrix(0.05,0,0,0.05,0,0)" xlink:href="#al"/><use transform="matrix(0.05,0,0,0.05,5.95,0)" xlink:href="#ao"/><use transform="matrix(0.05,0,0,0.05,15.949999999999998,0)" xlink:href="#aD"/><use transform="matrix(0.05,0,0,0.05,20.95,0)" xlink:href="#an"/><use transform="matrix(0.05,0,0,0.05,29.950000000000003,0)" xlink:href="#aE"/><use transform="matrix(0.05,0,0,0.05,34.95,0)" xlink:href="#an"/><use transform="matrix(0.05,0,0,0.05,43.95,0)" xlink:href="#ak"/><use transform="matrix(0.05,0,0,0.05,53.95,0)" xlink:href="#as"/><use transform="matrix(0.05,0,0,0.05,63.95,0)" xlink:href="#aF"/><use transform="matrix(0.05,0,0,0.05,76.9,0)" xlink:href="#av"/><use transform="matrix(0.05,0,0,0.05,80.85000000000001,0)" xlink:href="#aw"/><use transform="matrix(0.05,0,0,0.05,90.85000000000001,0)" xlink:href="#an"/><use transform="matrix(0.05,0,0,0.05,99.85000000000001,0)" xlink:href="#an"/><use transform="matrix(0.05,0,0,0.05,108.85000000000001,0)" xlink:href="#aG"/><use transform="matrix(0.05,0,0,0.05,122.85000000000001,0)" xlink:href="#aD"/></g><path d="M30 0v-248h33v221h125V0H30" id="aH"/><path d="M33 0v-248h34V0H33" id="aI"/><g id="h"><use transform="matrix(0.05,0,0,0.05,0,0)" xlink:href="#aH"/><use transform="matrix(0.05,0,0,0.05,10,0)" xlink:href="#aq"/><use transform="matrix(0.05,0,0,0.05,20,0)" xlink:href="#au"/><use transform="matrix(0.05,0,0,0.05,29,0)" xlink:href="#aI"/><use transform="matrix(0.05,0,0,0.05,34,0)" xlink:href="#at"/><use transform="matrix(0.05,0,0,0.05,39.95,0)" xlink:href="#aI"/></g><g id="i"><use transform="matrix(0.05,0,0,0.05,0,0)" xlink:href="#aF"/><use transform="matrix(0.05,0,0,0.05,12.950000000000001,0)" xlink:href="#av"/><use transform="matrix(0.05,0,0,0.05,16.900000000000002,0)" xlink:href="#aw"/><use transform="matrix(0.05,0,0,0.05,26.900000000000002,0)" xlink:href="#an"/><use transform="matrix(0.05,0,0,0.05,35.900000000000006,0)" xlink:href="#an"/></g><path fill="#fff" d="M30-248c87 1 191-15 191 75 0 78-77 80-158 76V0H30v-248zm33 125c57 0 124 11 124-50 0-59-68-47-124-48v98" id="aJ"/><path fill="#fff" d="M24 0v-261h32V0H24" id="aK"/><path fill="#fff" d="M141-36C126-15 110 5 73 4 37 3 15-17 15-53c-1-64 63-63 125-63 3-35-9-54-41-54-24 1-41 7-42 31l-33-3c5-37 33-52 76-52 45 0 72 20 72 64v82c-1 20 7 32 28 27v20c-31 9-61-2-59-35zM48-53c0 20 12 33 32 33 41-3 63-29 60-74-43 2-92-5-92 41" id="aL"/><path fill="#fff" d="M96-169c-40 0-48 33-48 73s9 75 48 75c24 0 41-14 43-38l32 2c-6 37-31 61-74 61-59 0-76-41-82-99-10-93 101-131 147-64 4 7 5 14 7 22l-32 3c-4-21-16-35-41-35" id="aM"/><path fill="#fff" d="M100-194c63 0 86 42 84 106H49c0 40 14 67 53 68 26 1 43-12 49-29l28 8c-11 28-37 45-77 45C44 4 14-33 15-96c1-61 26-98 85-98zm52 81c6-60-76-77-97-28-3 7-6 17-6 28h103" id="aN"/><g id="j"><use transform="matrix(0.05,0,0,0.05,0,0)" xlink:href="#aJ"/><use transform="matrix(0.05,0,0,0.05,12,0)" xlink:href="#aK"/><use transform="matrix(0.05,0,0,0.05,15.949999999999998,0)" xlink:href="#aL"/><use transform="matrix(0.05,0,0,0.05,25.950000000000003,0)" xlink:href="#aM"/><use transform="matrix(0.05,0,0,0.05,34.95,0)" xlink:href="#aN"/></g><path fill="#fff" d="M190 0L58-211 59 0H30v-248h39L202-35l-2-213h31V0h-41" id="aO"/><path fill="#fff" d="M210-169c-67 3-38 105-44 169h-31v-121c0-29-5-50-35-48C34-165 62-65 56 0H25l-1-190h30c1 10-1 24 2 32 10-44 99-50 107 0 11-21 27-35 58-36 85-2 47 119 55 194h-31v-121c0-29-5-49-35-48" id="aP"/><path fill="#fff" d="M135-143c-3-34-86-38-87 0 15 53 115 12 119 90S17 21 10-45l28-5c4 36 97 45 98 0-10-56-113-15-118-90-4-57 82-63 122-42 12 7 21 19 24 35" id="aQ"/><g id="k"><use transform="matrix(0.05,0,0,0.05,0,0)" xlink:href="#aO"/><use transform="matrix(0.05,0,0,0.05,12.950000000000001,0)" xlink:href="#aL"/><use transform="matrix(0.05,0,0,0.05,22.950000000000003,0)" xlink:href="#aP"/><use transform="matrix(0.05,0,0,0.05,37.900000000000006,0)" xlink:href="#aN"/><use transform="matrix(0.05,0,0,0.05,47.900000000000006,0)" xlink:href="#aQ"/></g><path fill="#fff" d="M212-179c-10-28-35-45-73-45-59 0-87 40-87 99 0 60 29 101 89 101 43 0 62-24 78-52l27 14C228-24 195 4 139 4 59 4 22-46 18-125c-6-104 99-153 187-111 19 9 31 26 39 46" id="aR"/><g id="l"><use transform="matrix(0.05,0,0,0.05,0,0)" xlink:href="#aR"/><use transform="matrix(0.05,0,0,0.05,12.950000000000001,0)" xlink:href="#aK"/><use transform="matrix(0.05,0,0,0.05,16.900000000000002,0)" xlink:href="#aL"/><use transform="matrix(0.05,0,0,0.05,26.900000000000002,0)" xlink:href="#aQ"/><use transform="matrix(0.05,0,0,0.05,35.900000000000006,0)" xlink:href="#aQ"/></g><path d="M177-190C167-65 218 103 67 71c-23-6-38-20-44-43l32-5c15 47 100 32 89-28v-30C133-14 115 1 83 1 29 1 15-40 15-95c0-56 16-97 71-98 29-1 48 16 59 35 1-10 0-23 2-32h30zM94-22c36 0 50-32 50-73 0-42-14-75-50-75-39 0-46 34-46 75s6 73 46 73" id="aS"/><path d="M210-169c-67 3-38 105-44 169h-31v-121c0-29-5-50-35-48C34-165 62-65 56 0H25l-1-190h30c1 10-1 24 2 32 10-44 99-50 107 0 11-21 27-35 58-36 85-2 47 119 55 194h-31v-121c0-29-5-49-35-48" id="aT"/><g id="m"><use transform="matrix(0.05,0,0,0.05,0,0)" xlink:href="#aA"/><use transform="matrix(0.05,0,0,0.05,12.950000000000001,0)" xlink:href="#am"/><use transform="matrix(0.05,0,0,0.05,16.900000000000002,0)" xlink:href="#aw"/><use transform="matrix(0.05,0,0,0.05,26.900000000000002,0)" xlink:href="#aS"/><use transform="matrix(0.05,0,0,0.05,36.900000000000006,0)" xlink:href="#al"/><use transform="matrix(0.05,0,0,0.05,42.85000000000001,0)" xlink:href="#aw"/><use transform="matrix(0.05,0,0,0.05,52.85,0)" xlink:href="#aT"/><path d="M-.9 1.25h74.6v1.32H-.9z"/></g><path d="M30 0v-248h187v28H63v79h144v27H63v87h162V0H30" id="aU"/><g id="n"><use transform="matrix(0.05,0,0,0.05,0,0)" xlink:href="#aU"/><use transform="matrix(0.05,0,0,0.05,12,0)" xlink:href="#av"/><use transform="matrix(0.05,0,0,0.05,15.949999999999998,0)" xlink:href="#ay"/><use transform="matrix(0.05,0,0,0.05,25.950000000000003,0)" xlink:href="#aT"/><use transform="matrix(0.05,0,0,0.05,40.9,0)" xlink:href="#ay"/><use transform="matrix(0.05,0,0,0.05,50.9,0)" xlink:href="#ar"/><use transform="matrix(0.05,0,0,0.05,60.900000000000006,0)" xlink:href="#ap"/><path d="M-.9 1.25h72.7v1.32H-.9z"/></g><path d="M194 0L95-120 63-95V0H30v-248h33v124l119-124h40L117-140 236 0h-42" id="aV"/><g id="o"><use transform="matrix(0.05,0,0,0.05,0,0)" xlink:href="#aV"/><use transform="matrix(0.05,0,0,0.05,12,0)" xlink:href="#ay"/><use transform="matrix(0.05,0,0,0.05,22,0)" xlink:href="#az"/><path d="M-.9 1.25h32.8v1.32H-.9z"/></g><path d="M206 0h-36l-40-164L89 0H53L-1-190h32L70-26l43-164h34l41 164 42-164h31" id="aW"/><g id="p"><use transform="matrix(0.05,0,0,0.05,0,0)" xlink:href="#aq"/><use transform="matrix(0.05,0,0,0.05,10,0)" xlink:href="#aW"/><use transform="matrix(0.05,0,0,0.05,22.950000000000003,0)" xlink:href="#av"/><use transform="matrix(0.05,0,0,0.05,26.900000000000002,0)" xlink:href="#aE"/><use transform="matrix(0.05,0,0,0.05,31.900000000000002,0)" xlink:href="#aF"/><use transform="matrix(0.05,0,0,0.05,44.85,0)" xlink:href="#av"/><use transform="matrix(0.05,0,0,0.05,48.800000000000004,0)" xlink:href="#aw"/><use transform="matrix(0.05,0,0,0.05,58.800000000000004,0)" xlink:href="#an"/><use transform="matrix(0.05,0,0,0.05,67.80000000000001,0)" xlink:href="#an"/></g><path fill="#fff" d="M153-248C145-148 188 4 80 4 36 3 13-21 6-62l32-5c4 25 16 42 43 43 27 0 39-20 39-49v-147H72v-28h81" id="aX"/><path fill="#fff" d="M84 4C-5 8 30-112 23-190h32v120c0 31 7 50 39 49 72-2 45-101 50-169h31l1 190h-30c-1-10 1-25-2-33-11 22-28 36-60 37" id="aY"/><path fill="#fff" d="M114-163C36-179 61-72 57 0H25l-1-190h30c1 12-1 29 2 39 6-27 23-49 58-41v29" id="aZ"/><path fill="#fff" d="M24-231v-30h32v30H24zM24 0v-190h32V0H24" id="ba"/><path fill="#fff" d="M85-194c31 0 48 13 60 33l-1-100h32l1 261h-30c-2-10 0-23-3-31C134-8 116 4 85 4 32 4 16-35 15-94c0-66 23-100 70-100zm9 24c-40 0-46 34-46 75 0 40 6 74 45 74 42 0 51-32 51-76 0-42-9-74-50-73" id="bb"/><path fill="#fff" d="M59-47c-2 24 18 29 38 22v24C64 9 27 4 27-40v-127H5v-23h24l9-43h21v43h35v23H59v120" id="bc"/><path fill="#fff" d="M100-194c62-1 85 37 85 99 1 63-27 99-86 99S16-35 15-95c0-66 28-99 85-99zM99-20c44 1 53-31 53-75 0-43-8-75-51-75s-53 32-53 75 10 74 51 75" id="bd"/><path fill="#fff" d="M117-194c89-4 53 116 60 194h-32v-121c0-31-8-49-39-48C34-167 62-67 57 0H25l-1-190h30c1 10-1 24 2 32 11-22 29-35 61-36" id="be"/><g id="q"><use transform="matrix(0.05,0,0,0.05,0,0)" xlink:href="#aX"/><use transform="matrix(0.05,0,0,0.05,9,0)" xlink:href="#aY"/><use transform="matrix(0.05,0,0,0.05,19,0)" xlink:href="#aZ"/><use transform="matrix(0.05,0,0,0.05,24.95,0)" xlink:href="#ba"/><use transform="matrix(0.05,0,0,0.05,28.899999999999995,0)" xlink:href="#aQ"/><use transform="matrix(0.05,0,0,0.05,37.9,0)" xlink:href="#bb"/><use transform="matrix(0.05,0,0,0.05,47.9,0)" xlink:href="#ba"/><use transform="matrix(0.05,0,0,0.05,51.85,0)" xlink:href="#aM"/><use transform="matrix(0.05,0,0,0.05,60.85,0)" xlink:href="#bc"/><use transform="matrix(0.05,0,0,0.05,65.85,0)" xlink:href="#ba"/><use transform="matrix(0.05,0,0,0.05,69.8,0)" xlink:href="#bd"/><use transform="matrix(0.05,0,0,0.05,79.8,0)" xlink:href="#be"/></g><g id="r"><use transform="matrix(0.05,0,0,0.05,0,0)" xlink:href="#aS"/><use transform="matrix(0.05,0,0,0.05,10,0)" xlink:href="#ay"/><use transform="matrix(0.05,0,0,0.05,20,0)" xlink:href="#aq"/><use transform="matrix(0.05,0,0,0.05,30,0)" xlink:href="#aE"/></g><path d="M63-220v92h138v28H63V0H30v-248h175v28H63" id="bf"/><g id="s"><use transform="matrix(0.05,0,0,0.05,0,0)" xlink:href="#bf"/><use transform="matrix(0.05,0,0,0.05,10.950000000000001,0)" xlink:href="#ay"/><use transform="matrix(0.05,0,0,0.05,20.950000000000003,0)" xlink:href="#aw"/><use transform="matrix(0.05,0,0,0.05,30.950000000000003,0)" xlink:href="#ap"/><use transform="matrix(0.05,0,0,0.05,35.95,0)" xlink:href="#ak"/><use transform="matrix(0.05,0,0,0.05,45.95,0)" xlink:href="#al"/><use transform="matrix(0.05,0,0,0.05,51.900000000000006,0)" xlink:href="#ay"/></g><path d="M143 4C61 4 22-44 18-125c-5-107 100-154 193-111 17 8 29 25 37 43l-32 9c-13-25-37-40-76-40-61 0-88 39-88 99 0 61 29 100 91 101 35 0 62-11 79-27v-45h-74v-28h105v86C228-13 192 4 143 4" id="bg"/><g id="t"><use transform="matrix(0.05,0,0,0.05,0,0)" xlink:href="#bg"/><use transform="matrix(0.05,0,0,0.05,14,0)" xlink:href="#ay"/><use transform="matrix(0.05,0,0,0.05,24,0)" xlink:href="#aq"/><use transform="matrix(0.05,0,0,0.05,34,0)" xlink:href="#aT"/><use transform="matrix(0.05,0,0,0.05,48.95,0)" xlink:href="#ay"/><use transform="matrix(0.05,0,0,0.05,58.95,0)" xlink:href="#ap"/><use transform="matrix(0.05,0,0,0.05,63.95,0)" xlink:href="#al"/><use transform="matrix(0.05,0,0,0.05,69.9,0)" xlink:href="#az"/></g><g id="u"><use transform="matrix(0.05,0,0,0.05,0,0)" xlink:href="#ax"/><use transform="matrix(0.05,0,0,0.05,10,0)" xlink:href="#aw"/><use transform="matrix(0.05,0,0,0.05,20,0)" xlink:href="#an"/><use transform="matrix(0.05,0,0,0.05,29,0)" xlink:href="#bg"/><use transform="matrix(0.05,0,0,0.05,43,0)" xlink:href="#ay"/><use transform="matrix(0.05,0,0,0.05,53,0)" xlink:href="#aq"/><use transform="matrix(0.05,0,0,0.05,63,0)" xlink:href="#aT"/><use transform="matrix(0.05,0,0,0.05,77.95,0)" xlink:href="#ay"/><use transform="matrix(0.05,0,0,0.05,87.95,0)" xlink:href="#ap"/><use transform="matrix(0.05,0,0,0.05,92.95,0)" xlink:href="#al"/><use transform="matrix(0.05,0,0,0.05,98.9,0)" xlink:href="#az"/></g><g id="v"><use transform="matrix(0.05,0,0,0.05,0,0)" xlink:href="#aJ"/><use transform="matrix(0.05,0,0,0.05,12,0)" xlink:href="#aK"/><use transform="matrix(0.05,0,0,0.05,15.949999999999998,0)" xlink:href="#aL"/><use transform="matrix(0.05,0,0,0.05,25.950000000000003,0)" xlink:href="#aM"/><use transform="matrix(0.05,0,0,0.05,34.95,0)" xlink:href="#aN"/></g><g id="w"><use transform="matrix(0.05,0,0,0.05,0,0)" xlink:href="#aJ"/><use transform="matrix(0.05,0,0,0.05,12,0)" xlink:href="#bd"/><use transform="matrix(0.05,0,0,0.05,22,0)" xlink:href="#ba"/><use transform="matrix(0.05,0,0,0.05,25.950000000000003,0)" xlink:href="#be"/><use transform="matrix(0.05,0,0,0.05,35.95,0)" xlink:href="#bc"/></g><path fill="#fff" d="M101-234c-31-9-42 10-38 44h38v23H63V0H32v-167H5v-23h27c-7-52 17-82 69-68v24" id="bh"/><g id="x"><use transform="matrix(0.05,0,0,0.05,0,0)" xlink:href="#bd"/><use transform="matrix(0.05,0,0,0.05,10,0)" xlink:href="#bh"/></g><path fill="#fff" d="M33 0v-248h34V0H33" id="bi"/><g id="y"><use transform="matrix(0.05,0,0,0.05,0,0)" xlink:href="#bi"/><use transform="matrix(0.05,0,0,0.05,5,0)" xlink:href="#be"/><use transform="matrix(0.05,0,0,0.05,15,0)" xlink:href="#bc"/><use transform="matrix(0.05,0,0,0.05,20,0)" xlink:href="#aN"/><use transform="matrix(0.05,0,0,0.05,30,0)" xlink:href="#aZ"/><use transform="matrix(0.05,0,0,0.05,35.95,0)" xlink:href="#aN"/><use transform="matrix(0.05,0,0,0.05,45.95,0)" xlink:href="#aQ"/><use transform="matrix(0.05,0,0,0.05,54.95,0)" xlink:href="#bc"/></g><path fill="#fff" d="M233-177c-1 41-23 64-60 70L243 0h-38l-65-103H63V0H30v-248c88 3 205-21 203 71zM63-129c60-2 137 13 137-47 0-61-80-42-137-45v92" id="bj"/><path fill="#fff" d="M177-190C167-65 218 103 67 71c-23-6-38-20-44-43l32-5c15 47 100 32 89-28v-30C133-14 115 1 83 1 29 1 15-40 15-95c0-56 16-97 71-98 29-1 48 16 59 35 1-10 0-23 2-32h30zM94-22c36 0 50-32 50-73 0-42-14-75-50-75-39 0-46 34-46 75s6 73 46 73" id="bk"/><g id="z"><use transform="matrix(0.05,0,0,0.05,0,0)" xlink:href="#bj"/><use transform="matrix(0.05,0,0,0.05,12.950000000000001,0)" xlink:href="#aN"/><use transform="matrix(0.05,0,0,0.05,22.950000000000003,0)" xlink:href="#bk"/><use transform="matrix(0.05,0,0,0.05,32.95,0)" xlink:href="#ba"/><use transform="matrix(0.05,0,0,0.05,36.900000000000006,0)" xlink:href="#bd"/><use transform="matrix(0.05,0,0,0.05,46.900000000000006,0)" xlink:href="#be"/></g><g id="A"><use transform="matrix(0.05,0,0,0.05,0,0)" xlink:href="#ao"/><use transform="matrix(0.05,0,0,0.05,10,0)" xlink:href="#au"/><use transform="matrix(0.05,0,0,0.05,19,0)" xlink:href="#ap"/><use transform="matrix(0.05,0,0,0.05,24,0)" xlink:href="#aE"/><use transform="matrix(0.05,0,0,0.05,29,0)" xlink:href="#aH"/><use transform="matrix(0.05,0,0,0.05,39,0)" xlink:href="#aq"/><use transform="matrix(0.05,0,0,0.05,49,0)" xlink:href="#au"/><use transform="matrix(0.05,0,0,0.05,58,0)" xlink:href="#aw"/><use transform="matrix(0.05,0,0,0.05,68,0)" xlink:href="#ap"/><use transform="matrix(0.05,0,0,0.05,73,0)" xlink:href="#am"/><use transform="matrix(0.05,0,0,0.05,76.95,0)" xlink:href="#aq"/><use transform="matrix(0.05,0,0,0.05,86.95,0)" xlink:href="#ar"/></g><g id="B"><use transform="matrix(0.05,0,0,0.05,0,0)" xlink:href="#aS"/><use transform="matrix(0.05,0,0,0.05,10,0)" xlink:href="#ar"/><use transform="matrix(0.05,0,0,0.05,20,0)" xlink:href="#aw"/><use transform="matrix(0.05,0,0,0.05,30,0)" xlink:href="#aD"/><use transform="matrix(0.05,0,0,0.05,35,0)" xlink:href="#aE"/></g><path d="M205 0l-28-72H64L36 0H1l101-248h38L239 0h-34zm-38-99l-47-123c-12 45-31 82-46 123h93" id="bl"/><g id="C"><use transform="matrix(0.05,0,0,0.05,0,0)" xlink:href="#bl"/><use transform="matrix(0.05,0,0,0.05,12,0)" xlink:href="#ao"/><use transform="matrix(0.05,0,0,0.05,22,0)" xlink:href="#ao"/><use transform="matrix(0.05,0,0,0.05,32,0)" xlink:href="#al"/><use transform="matrix(0.05,0,0,0.05,37.95,0)" xlink:href="#ay"/><use transform="matrix(0.05,0,0,0.05,47.95,0)" xlink:href="#an"/><use transform="matrix(0.05,0,0,0.05,56.95,0)" xlink:href="#an"/></g><g id="D"><use transform="matrix(0.05,0,0,0.05,0,0)" xlink:href="#aw"/><use transform="matrix(0.05,0,0,0.05,10,0)" xlink:href="#an"/><use transform="matrix(0.05,0,0,0.05,19,0)" xlink:href="#aS"/><use transform="matrix(0.05,0,0,0.05,29,0)" xlink:href="#an"/><use transform="matrix(0.05,0,0,0.05,38,0)" xlink:href="#aE"/></g><path d="M185-189c-5-48-123-54-124 2 14 75 158 14 163 119 3 78-121 87-175 55-17-10-28-26-33-46l33-7c5 56 141 63 141-1 0-78-155-14-162-118-5-82 145-84 179-34 5 7 8 16 11 25" id="bm"/><path d="M127-220V0H93v-220H8v-28h204v28h-85" id="bn"/><g id="E"><use transform="matrix(0.05,0,0,0.05,0,0)" xlink:href="#bm"/><use transform="matrix(0.05,0,0,0.05,12,0)" xlink:href="#ap"/><use transform="matrix(0.05,0,0,0.05,17,0)" xlink:href="#aw"/><use transform="matrix(0.05,0,0,0.05,27,0)" xlink:href="#ap"/><use transform="matrix(0.05,0,0,0.05,32,0)" xlink:href="#ay"/><use transform="matrix(0.05,0,0,0.05,42,0)" xlink:href="#aG"/><use transform="matrix(0.05,0,0,0.05,56,0)" xlink:href="#al"/><use transform="matrix(0.05,0,0,0.05,61.95,0)" xlink:href="#bn"/><use transform="matrix(0.05,0,0,0.05,70.9,0)" xlink:href="#ay"/><use transform="matrix(0.05,0,0,0.05,80.9,0)" xlink:href="#al"/><use transform="matrix(0.05,0,0,0.05,86.85000000000001,0)" xlink:href="#al"/><use transform="matrix(0.05,0,0,0.05,92.80000000000001,0)" xlink:href="#am"/><use transform="matrix(0.05,0,0,0.05,96.75000000000001,0)" xlink:href="#ap"/><use transform="matrix(0.05,0,0,0.05,101.75000000000001,0)" xlink:href="#aq"/><use transform="matrix(0.05,0,0,0.05,111.75,0)" xlink:href="#al"/><use transform="matrix(0.05,0,0,0.05,117.7,0)" xlink:href="#az"/></g><path fill="#fff" d="M143 4C61 4 22-44 18-125c-5-107 100-154 193-111 17 8 29 25 37 43l-32 9c-13-25-37-40-76-40-61 0-88 39-88 99 0 61 29 100 91 101 35 0 62-11 79-27v-45h-74v-28h105v86C228-13 192 4 143 4" id="bo"/><path fill="#fff" d="M9 0v-24l116-142H16v-24h144v24L44-24h123V0H9" id="bp"/><g id="F"><use transform="matrix(0.05,0,0,0.05,0,0)" xlink:href="#bo"/><use transform="matrix(0.05,0,0,0.05,14,0)" xlink:href="#aL"/><use transform="matrix(0.05,0,0,0.05,24,0)" xlink:href="#bp"/><use transform="matrix(0.05,0,0,0.05,33,0)" xlink:href="#aN"/><use transform="matrix(0.05,0,0,0.05,43,0)" xlink:href="#bc"/><use transform="matrix(0.05,0,0,0.05,48,0)" xlink:href="#bc"/><use transform="matrix(0.05,0,0,0.05,53,0)" xlink:href="#aN"/><use transform="matrix(0.05,0,0,0.05,63,0)" xlink:href="#aN"/><use transform="matrix(0.05,0,0,0.05,73,0)" xlink:href="#aZ"/></g><g id="G"><use transform="matrix(0.05,0,0,0.05,0,0)" xlink:href="#al"/><use transform="matrix(0.05,0,0,0.05,5.95,0)" xlink:href="#ay"/><use transform="matrix(0.05,0,0,0.05,15.949999999999998,0)" xlink:href="#aS"/><use transform="matrix(0.05,0,0,0.05,25.950000000000003,0)" xlink:href="#aE"/></g><path d="M233-177c-1 41-23 64-60 70L243 0h-38l-65-103H63V0H30v-248c88 3 205-21 203 71zM63-129c60-2 137 13 137-47 0-61-80-42-137-45v92" id="bq"/><g id="H"><use transform="matrix(0.05,0,0,0.05,0,0)" xlink:href="#bq"/><use transform="matrix(0.05,0,0,0.05,12.950000000000001,0)" xlink:href="#ay"/><use transform="matrix(0.05,0,0,0.05,22.950000000000003,0)" xlink:href="#aS"/><use transform="matrix(0.05,0,0,0.05,32.95,0)" xlink:href="#am"/><use transform="matrix(0.05,0,0,0.05,36.900000000000006,0)" xlink:href="#an"/><use transform="matrix(0.05,0,0,0.05,45.900000000000006,0)" xlink:href="#ap"/><use transform="matrix(0.05,0,0,0.05,50.900000000000006,0)" xlink:href="#ay"/><use transform="matrix(0.05,0,0,0.05,60.900000000000006,0)" xlink:href="#al"/></g><path d="M108 0H70L1-190h34L89-25l56-165h34" id="br"/><g id="I"><use transform="matrix(0.05,0,0,0.05,0,0)" xlink:href="#aB"/><use transform="matrix(0.05,0,0,0.05,10,0)" xlink:href="#al"/><use transform="matrix(0.05,0,0,0.05,15.949999999999998,0)" xlink:href="#aq"/><use transform="matrix(0.05,0,0,0.05,25.950000000000003,0)" xlink:href="#br"/><use transform="matrix(0.05,0,0,0.05,34.95,0)" xlink:href="#aE"/></g><g id="J"><use transform="matrix(0.05,0,0,0.05,0,0)" xlink:href="#bl"/><use transform="matrix(0.05,0,0,0.05,12,0)" xlink:href="#aS"/><use transform="matrix(0.05,0,0,0.05,22,0)" xlink:href="#ay"/><use transform="matrix(0.05,0,0,0.05,32,0)" xlink:href="#ar"/><use transform="matrix(0.05,0,0,0.05,42,0)" xlink:href="#ap"/></g><g id="K"><use transform="matrix(0.05,0,0,0.05,0,0)" xlink:href="#an"/><use transform="matrix(0.05,0,0,0.05,9,0)" xlink:href="#ao"/><use transform="matrix(0.05,0,0,0.05,19,0)" xlink:href="#aq"/><use transform="matrix(0.05,0,0,0.05,29,0)" xlink:href="#aE"/></g><g id="L"><use transform="matrix(0.05,0,0,0.05,0,0)" xlink:href="#aG"/><use transform="matrix(0.05,0,0,0.05,14,0)" xlink:href="#al"/><use transform="matrix(0.05,0,0,0.05,19.95,0)" xlink:href="#aS"/><use transform="matrix(0.05,0,0,0.05,29.950000000000003,0)" xlink:href="#aw"/><use transform="matrix(0.05,0,0,0.05,39.95,0)" xlink:href="#ar"/><use transform="matrix(0.05,0,0,0.05,49.95,0)" xlink:href="#am"/><use transform="matrix(0.05,0,0,0.05,53.900000000000006,0)" xlink:href="#an"/><use transform="matrix(0.05,0,0,0.05,62.900000000000006,0)" xlink:href="#aw"/><use transform="matrix(0.05,0,0,0.05,72.9,0)" xlink:href="#ap"/><use transform="matrix(0.05,0,0,0.05,77.9,0)" xlink:href="#am"/><use transform="matrix(0.05,0,0,0.05,81.85000000000001,0)" xlink:href="#aq"/><use transform="matrix(0.05,0,0,0.05,91.85000000000001,0)" xlink:href="#ar"/></g><g id="M"><use transform="matrix(0.05,0,0,0.05,0,0)" xlink:href="#aC"/><use transform="matrix(0.05,0,0,0.05,12,0)" xlink:href="#ay"/><use transform="matrix(0.05,0,0,0.05,22,0)" xlink:href="#al"/><use transform="matrix(0.05,0,0,0.05,27.950000000000003,0)" xlink:href="#an"/><use transform="matrix(0.05,0,0,0.05,36.95,0)" xlink:href="#aq"/><use transform="matrix(0.05,0,0,0.05,46.95,0)" xlink:href="#ar"/></g><path fill="#fff" d="M160-131c35 5 61 23 61 61C221 17 115-2 30 0v-248c76 3 177-17 177 60 0 33-19 50-47 57zm-97-11c50-1 110 9 110-42 0-47-63-36-110-37v79zm0 115c55-2 124 14 124-45 0-56-70-42-124-44v89" id="bs"/><path fill="#fff" d="M106-169C34-169 62-67 57 0H25v-261h32l-1 103c12-21 28-36 61-36 89 0 53 116 60 194h-32v-121c2-32-8-49-39-48" id="bt"/><g id="N"><use transform="matrix(0.05,0,0,0.05,0,0)" xlink:href="#bs"/><use transform="matrix(0.05,0,0,0.05,12,0)" xlink:href="#bd"/><use transform="matrix(0.05,0,0,0.05,22,0)" xlink:href="#aZ"/><use transform="matrix(0.05,0,0,0.05,27.950000000000003,0)" xlink:href="#bd"/><use transform="matrix(0.05,0,0,0.05,37.95,0)" xlink:href="#aY"/><use transform="matrix(0.05,0,0,0.05,47.95,0)" xlink:href="#bk"/><use transform="matrix(0.05,0,0,0.05,57.95,0)" xlink:href="#bt"/></g><g id="O"><use transform="matrix(0.05,0,0,0.05,0,0)" xlink:href="#bq"/><use transform="matrix(0.05,0,0,0.05,12.950000000000001,0)" xlink:href="#ay"/><use transform="matrix(0.05,0,0,0.05,22.950000000000003,0)" xlink:href="#aS"/><use transform="matrix(0.05,0,0,0.05,32.95,0)" xlink:href="#am"/><use transform="matrix(0.05,0,0,0.05,36.900000000000006,0)" xlink:href="#an"/><use transform="matrix(0.05,0,0,0.05,45.900000000000006,0)" xlink:href="#ap"/><use transform="matrix(0.05,0,0,0.05,50.900000000000006,0)" xlink:href="#ay"/><use transform="matrix(0.05,0,0,0.05,60.900000000000006,0)" xlink:href="#al"/><use transform="matrix(0.05,0,0,0.05,66.85000000000001,0)" xlink:href="#ay"/><use transform="matrix(0.05,0,0,0.05,76.85000000000001,0)" xlink:href="#ao"/><use transform="matrix(0.05,0,0,0.05,86.85000000000001,0)" xlink:href="#aI"/><use transform="matrix(0.05,0,0,0.05,91.85000000000001,0)" xlink:href="#ap"/><use transform="matrix(0.05,0,0,0.05,96.85000000000001,0)" xlink:href="#ay"/><use transform="matrix(0.05,0,0,0.05,106.85000000000001,0)" xlink:href="#aT"/></g><g id="P"><use transform="matrix(0.05,0,0,0.05,0,0)" xlink:href="#aO"/><use transform="matrix(0.05,0,0,0.05,12.950000000000001,0)" xlink:href="#aL"/><use transform="matrix(0.05,0,0,0.05,22.950000000000003,0)" xlink:href="#aP"/><use transform="matrix(0.05,0,0,0.05,37.900000000000006,0)" xlink:href="#aN"/></g><path fill="#fff" d="M63-220v92h138v28H63V0H30v-248h175v28H63" id="bu"/><g id="Q"><use transform="matrix(0.05,0,0,0.05,0,0)" xlink:href="#bu"/><use transform="matrix(0.05,0,0,0.05,10.950000000000001,0)" xlink:href="#aN"/><use transform="matrix(0.05,0,0,0.05,20.950000000000003,0)" xlink:href="#aL"/><use transform="matrix(0.05,0,0,0.05,30.950000000000003,0)" xlink:href="#bc"/><use transform="matrix(0.05,0,0,0.05,35.95,0)" xlink:href="#aY"/><use transform="matrix(0.05,0,0,0.05,45.95,0)" xlink:href="#aZ"/><use transform="matrix(0.05,0,0,0.05,51.900000000000006,0)" xlink:href="#aN"/></g><g id="R"><use transform="matrix(0.05,0,0,0.05,0,0)" xlink:href="#aR"/><use transform="matrix(0.05,0,0,0.05,12.950000000000001,0)" xlink:href="#aL"/><use transform="matrix(0.05,0,0,0.05,22.950000000000003,0)" xlink:href="#aK"/><use transform="matrix(0.05,0,0,0.05,26.900000000000002,0)" xlink:href="#aQ"/><use transform="matrix(0.05,0,0,0.05,35.900000000000006,0)" xlink:href="#aQ"/><use transform="matrix(0.05,0,0,0.05,44.900000000000006,0)" xlink:href="#ba"/><use transform="matrix(0.05,0,0,0.05,48.85000000000001,0)" xlink:href="#bh"/><use transform="matrix(0.05,0,0,0.05,53.85,0)" xlink:href="#ba"/><use transform="matrix(0.05,0,0,0.05,57.80000000000001,0)" xlink:href="#aM"/><use transform="matrix(0.05,0,0,0.05,66.80000000000001,0)" xlink:href="#aL"/><use transform="matrix(0.05,0,0,0.05,76.80000000000001,0)" xlink:href="#bc"/><use transform="matrix(0.05,0,0,0.05,81.80000000000001,0)" xlink:href="#ba"/><use transform="matrix(0.05,0,0,0.05,85.75000000000001,0)" xlink:href="#bd"/><use transform="matrix(0.05,0,0,0.05,95.75000000000001,0)" xlink:href="#be"/></g><path d="M143 0L79-87 56-68V0H24v-261h32v163l83-92h37l-77 82L181 0h-38" id="bv"/><g id="S"><use transform="matrix(0.05,0,0,0.05,0,0)" xlink:href="#an"/><use transform="matrix(0.05,0,0,0.05,9,0)" xlink:href="#bv"/><use transform="matrix(0.05,0,0,0.05,18,0)" xlink:href="#aq"/><use transform="matrix(0.05,0,0,0.05,28,0)" xlink:href="#an"/><use transform="matrix(0.05,0,0,0.05,37,0)" xlink:href="#aE"/></g><g id="T"><use transform="matrix(0.05,0,0,0.05,0,0)" xlink:href="#aF"/><use transform="matrix(0.05,0,0,0.05,12.950000000000001,0)" xlink:href="#aq"/><use transform="matrix(0.05,0,0,0.05,22.950000000000003,0)" xlink:href="#ar"/><use transform="matrix(0.05,0,0,0.05,32.95,0)" xlink:href="#au"/><use transform="matrix(0.05,0,0,0.05,41.95,0)" xlink:href="#ay"/><use transform="matrix(0.05,0,0,0.05,51.95,0)" xlink:href="#aB"/><use transform="matrix(0.05,0,0,0.05,61.95,0)" xlink:href="#ap"/></g><g id="U"><use transform="matrix(0.05,0,0,0.05,0,0)" xlink:href="#al"/><use transform="matrix(0.05,0,0,0.05,5.95,0)" xlink:href="#ay"/><use transform="matrix(0.05,0,0,0.05,15.949999999999998,0)" xlink:href="#aS"/><use transform="matrix(0.05,0,0,0.05,25.950000000000003,0)" xlink:href="#aE"/><use transform="matrix(0.05,0,0,0.05,30.950000000000003,0)" xlink:href="#al"/><use transform="matrix(0.05,0,0,0.05,36.9,0)" xlink:href="#ay"/><use transform="matrix(0.05,0,0,0.05,46.9,0)" xlink:href="#aS"/><use transform="matrix(0.05,0,0,0.05,56.900000000000006,0)" xlink:href="#am"/><use transform="matrix(0.05,0,0,0.05,60.85,0)" xlink:href="#an"/><use transform="matrix(0.05,0,0,0.05,69.85,0)" xlink:href="#ap"/><use transform="matrix(0.05,0,0,0.05,74.85,0)" xlink:href="#ay"/><use transform="matrix(0.05,0,0,0.05,84.85,0)" xlink:href="#al"/></g><g id="V"><use transform="matrix(0.05,0,0,0.05,0,0)" xlink:href="#ax"/><use transform="matrix(0.05,0,0,0.05,10,0)" xlink:href="#aw"/><use transform="matrix(0.05,0,0,0.05,20,0)" xlink:href="#an"/></g><g id="W"><use transform="matrix(0.05,0,0,0.05,0,0)" xlink:href="#aB"/><use transform="matrix(0.05,0,0,0.05,10,0)" xlink:href="#av"/><use transform="matrix(0.05,0,0,0.05,13.949999999999998,0)" xlink:href="#aw"/><use transform="matrix(0.05,0,0,0.05,23.95,0)" xlink:href="#au"/><use transform="matrix(0.05,0,0,0.05,32.95,0)" xlink:href="#ay"/></g><g id="X"><use transform="matrix(0.05,0,0,0.05,0,0)" xlink:href="#ar"/><use transform="matrix(0.05,0,0,0.05,10,0)" xlink:href="#aw"/><use transform="matrix(0.05,0,0,0.05,20,0)" xlink:href="#aT"/><use transform="matrix(0.05,0,0,0.05,34.95,0)" xlink:href="#ay"/></g><path d="M26 75v-336h71v23H56V52h41v23H26" id="bw"/><path d="M27 0v-27h64v-190l-56 39v-29l58-41h29v221h61V0H27" id="bx"/><path d="M3 75V52h41v-290H3v-23h71V75H3" id="by"/><g id="Y"><use transform="matrix(0.05,0,0,0.05,0,0)" xlink:href="#bw"/><use transform="matrix(0.05,0,0,0.05,5,0)" xlink:href="#bx"/><use transform="matrix(0.05,0,0,0.05,15,0)" xlink:href="#by"/></g><g id="Z"><use transform="matrix(0.05,0,0,0.05,0,0)" xlink:href="#am"/><use transform="matrix(0.05,0,0,0.05,3.95,0)" xlink:href="#ar"/></g><path d="M24-231v-30h32v30H24zM-9 49c24 4 33-6 33-30v-209h32V24c2 40-23 58-65 49V49" id="bz"/><g id="aa"><use transform="matrix(0.05,0,0,0.05,0,0)" xlink:href="#bz"/><use transform="matrix(0.05,0,0,0.05,3.95,0)" xlink:href="#ak"/><use transform="matrix(0.05,0,0,0.05,13.949999999999998,0)" xlink:href="#al"/><use transform="matrix(0.05,0,0,0.05,19.9,0)" xlink:href="#am"/><use transform="matrix(0.05,0,0,0.05,23.849999999999998,0)" xlink:href="#an"/><use transform="matrix(0.05,0,0,0.05,32.849999999999994,0)" xlink:href="#ao"/><use transform="matrix(0.05,0,0,0.05,42.849999999999994,0)" xlink:href="#am"/><use transform="matrix(0.05,0,0,0.05,46.8,0)" xlink:href="#au"/><use transform="matrix(0.05,0,0,0.05,55.79999999999999,0)" xlink:href="#ap"/><use transform="matrix(0.05,0,0,0.05,60.79999999999999,0)" xlink:href="#am"/><use transform="matrix(0.05,0,0,0.05,64.75,0)" xlink:href="#aq"/><use transform="matrix(0.05,0,0,0.05,74.75,0)" xlink:href="#ar"/></g><g id="ab"><use transform="matrix(0.05,0,0,0.05,0,0)" xlink:href="#aW"/><use transform="matrix(0.05,0,0,0.05,12.950000000000001,0)" xlink:href="#aw"/><use transform="matrix(0.05,0,0,0.05,22.950000000000003,0)" xlink:href="#an"/></g><g id="ac"><use transform="matrix(0.05,0,0,0.05,0,0)" xlink:href="#ar"/><use transform="matrix(0.05,0,0,0.05,10,0)" xlink:href="#aw"/><use transform="matrix(0.05,0,0,0.05,20,0)" xlink:href="#aT"/><use transform="matrix(0.05,0,0,0.05,34.95,0)" xlink:href="#ay"/><use transform="matrix(0.05,0,0,0.05,44.95,0)" xlink:href="#ao"/></g><g id="ad"><use transform="matrix(0.05,0,0,0.05,0,0)" xlink:href="#as"/><use transform="matrix(0.05,0,0,0.05,10,0)" xlink:href="#az"/></g><g id="ae"><use transform="matrix(0.05,0,0,0.05,0,0)" xlink:href="#aw"/><use transform="matrix(0.05,0,0,0.05,10,0)" xlink:href="#ao"/><use transform="matrix(0.05,0,0,0.05,20,0)" xlink:href="#aT"/><use transform="matrix(0.05,0,0,0.05,34.95,0)" xlink:href="#an"/><use transform="matrix(0.05,0,0,0.05,43.95,0)" xlink:href="#aE"/></g><g id="af"><use transform="matrix(0.05,0,0,0.05,0,0)" xlink:href="#aI"/><use transform="matrix(0.05,0,0,0.05,5,0)" xlink:href="#ao"/><use transform="matrix(0.05,0,0,0.05,15,0)" xlink:href="#ay"/><use transform="matrix(0.05,0,0,0.05,25,0)" xlink:href="#ar"/><use transform="matrix(0.05,0,0,0.05,35,0)" xlink:href="#ap"/><use transform="matrix(0.05,0,0,0.05,40,0)" xlink:href="#am"/><use transform="matrix(0.05,0,0,0.05,43.95,0)" xlink:href="#aD"/><use transform="matrix(0.05,0,0,0.05,48.95,0)" xlink:href="#am"/><use transform="matrix(0.05,0,0,0.05,52.900000000000006,0)" xlink:href="#ay"/><use transform="matrix(0.05,0,0,0.05,62.900000000000006,0)" xlink:href="#al"/></g><g id="ag"><use transform="matrix(0.05,0,0,0.05,0,0)" xlink:href="#aw"/><use transform="matrix(0.05,0,0,0.05,10,0)" xlink:href="#ao"/><use transform="matrix(0.05,0,0,0.05,20,0)" xlink:href="#aT"/><use transform="matrix(0.05,0,0,0.05,34.95,0)" xlink:href="#an"/><use transform="matrix(0.05,0,0,0.05,43.95,0)" xlink:href="#aE"/><use transform="matrix(0.05,0,0,0.05,48.95,0)" xlink:href="#am"/><use transform="matrix(0.05,0,0,0.05,52.900000000000006,0)" xlink:href="#ao"/><use transform="matrix(0.05,0,0,0.05,62.900000000000006,0)" xlink:href="#ay"/><use transform="matrix(0.05,0,0,0.05,72.9,0)" xlink:href="#ar"/><use transform="matrix(0.05,0,0,0.05,82.9,0)" xlink:href="#ap"/><use transform="matrix(0.05,0,0,0.05,87.9,0)" xlink:href="#am"/><use transform="matrix(0.05,0,0,0.05,91.85000000000001,0)" xlink:href="#aD"/><use transform="matrix(0.05,0,0,0.05,96.85000000000001,0)" xlink:href="#am"/><use transform="matrix(0.05,0,0,0.05,100.80000000000001,0)" xlink:href="#ay"/><use transform="matrix(0.05,0,0,0.05,110.80000000000001,0)" xlink:href="#al"/></g><g id="ah"><use transform="matrix(0.05,0,0,0.05,0,0)" xlink:href="#aD"/><use transform="matrix(0.05,0,0,0.05,5,0)" xlink:href="#ay"/><use transform="matrix(0.05,0,0,0.05,15,0)" xlink:href="#aw"/><use transform="matrix(0.05,0,0,0.05,25,0)" xlink:href="#ap"/><use transform="matrix(0.05,0,0,0.05,30,0)" xlink:href="#ak"/><use transform="matrix(0.05,0,0,0.05,40,0)" xlink:href="#al"/><use transform="matrix(0.05,0,0,0.05,45.95,0)" xlink:href="#ay"/></g><g id="ai"><use transform="matrix(0.05,0,0,0.05,0,0)" xlink:href="#au"/><use transform="matrix(0.05,0,0,0.05,9,0)" xlink:href="#av"/><use transform="matrix(0.05,0,0,0.05,12.949999999999998,0)" xlink:href="#aw"/><use transform="matrix(0.05,0,0,0.05,22.95,0)" xlink:href="#an"/><use transform="matrix(0.05,0,0,0.05,31.950000000000003,0)" xlink:href="#an"/><use transform="matrix(0.05,0,0,0.05,40.95,0)" xlink:href="#am"/><use transform="matrix(0.05,0,0,0.05,44.900000000000006,0)" xlink:href="#aD"/><use transform="matrix(0.05,0,0,0.05,49.900000000000006,0)" xlink:href="#am"/><use transform="matrix(0.05,0,0,0.05,53.85,0)" xlink:href="#au"/><use transform="matrix(0.05,0,0,0.05,62.85,0)" xlink:href="#aw"/><use transform="matrix(0.05,0,0,0.05,72.85000000000001,0)" xlink:href="#ap"/><use transform="matrix(0.05,0,0,0.05,77.85000000000001,0)" xlink:href="#am"/><use transform="matrix(0.05,0,0,0.05,81.80000000000001,0)" xlink:href="#aq"/><use transform="matrix(0.05,0,0,0.05,91.80000000000001,0)" xlink:href="#ar"/></g></defs></g></svg>